<?xml version="1.0" encoding="UTF-8"?>
<svg id="Laag_1" data-name="Laag 1" xmlns="http://www.w3.org/2000/svg" xmlns:amcharts="http://amcharts.com/ammap" version="1.1" viewBox="0 0 841.9 595.3">
  <defs>
    <style>
      .cls-1 {
        fill: #ffe72d;
        stroke: #fff;
        stroke-width: .5px;
      }
    </style>
  </defs>
  <g id="_defs" data-name="&amp;lt;defs">
    <amcharts:ammap bottomLatitude="41.363289" leftLongitude="-4.796120" projection="mercator" rightLongitude="9.560553" topLatitude="51.089515"/>
  </g>
  <g>
    <path id="FR-A" class="cls-1" d="M605.9,231.9l3.5-1.7-1-2.5,1.4-1.2-.7-.6,1.3-5,2.4-1.4,3.2-5.5-.7-2.2,5.8-10.3-.8-1.8-2.6.4-1.7-1.2,1.3-1.6-1-1.3,1.3-4.8-1.1-1.8,1.8.4-2.9-1.7,4.2-.2,2.2-1.6,3.6-6.7h-1.6c0-.1-1-2-1-2l3-4.7-2.7-2.6.5-.9-4.4-1.5-1.1,2.7-2,1.1.5-1.7-1.5-.3v-1.8s1.8-1.2,1.8-1.2l-1.9.2v-1c0,0-4-1.2-4-1.2l-.4-2.5h1.4s.5-1.8.5-1.8l1.7.3,1.5-6.9,1.3-.8,1.2,4.5,7,2v1.1c-.1,0,1.3.8,1.3.8l5.2-1.6,3.5,2.3,1.7-1.6,2.4-6.1h0l4-.2v.8c.1,0,2.6-1.4,2.6-1.4l3,2,2.8-1.5,6.6,4.3,5.8,1.5-3.5,3.9-2.5,6.4-4.9,2.8-.3,2.2-5.2,5.1-1.6,3.6.2,4.3-1.6,1.5-1.5,6,.5,4.2-2.1,1.6-1.1,5-3.7,6.3-.3,5.4,2.2,3.8-2.7,5.7-1.1,6.2.8,2.8-1.5,2.2,3.3,5.7-.3,1.8-3.5,2.2,1.3.7-1.4.4.6,1.4-.9,1-2.4-.8-.4.9,1.4.6-2.9,2.4-2.4-.6-3.5,1.2-.5-1.1-2.6-.3,1.3-3.1-2.9-.6h0l.4-1.3-2.4-4.2-3.3-.6,1.7-4.3-.4-3.1-4-3-3.1-.7-1.2-2.4Z"/>
    <path id="FR-B" class="cls-1" d="M348.2,359.5l1,1.3,2.8-.4,2.2,1.7-1,2.9,2.5,2.5,2.4-2.8,1.2,1.3,5-.6,2.8,4.7,1.3-1,2.1,1.3-1.9,3,7.2,2.5-1.5,1.8,2.8,1.4-2.5,3.3h-1.2c0,0-.4,3-.4,3l2.1,1.1-2.1,2.9,2.5.9-1.2,1.3h-.2s2.2,1.9,2.2,1.9l4.3.5-1.4,1.2,2.9,5h0l-1.6.9h0l.2.7h0l1.2,4.5-1.2.4,1.2,1.9-3.2,2.1.2,1.9-2.8.9.7,3.2-3.8,3.3-3.1.8.2,1.8-2.5,2.6.4,1.2-3.7,2.1-1.4-.4,1.5,2.2v3.5s1.6,1,1.6,1l.2,3.5-4.6.2-.4,1-.9-2.2-1,.2-1.1,4.1,3.4,2.1-1.8,4.8-2.2.4,1.3.5.4,2.1-1.3.6-3-1,.4,1.9-1.7.2-.7,2.6-3.2,2.1-2.9-3.2-1.5,1.5h-3.9s-.8,1.5-.8,1.5l-5.3,1.1-.6,1.1-2.9-1.8-1.6.4-1.5,2.4-1.2-1.7-3,2.3.9,2.6-.7,1.2-3.3-1.9,1.1-1.4-1.8-1.7-2.5,3.2-3.5-.6-2.5,2.4,2.2,1.7-.9.6.6,2.7h-1.4c0,.1,1.3,4.2,1.3,4.2l-2.3,1.7.3,3-1.6.7v1.4c0,0,1.4.1,1.4.1l.4,1.9,2.6-.8,3.4.8v2.2c.1,0,1.2-.3,1.2-.3l2,4.3-2,.5v3c0,0,2.7-2,2.7-2v4.2c-.1,0,1.3,1.5,1.3,1.5l-3.1,2.5,1.2,1.8-1.3,3-1-.2.2,2.6-2.1-.2-1.2,2.9-1.9.8.5,3.5-3.4.8-1.1,1.8.3,4-1.9.9.6,3.8h0l-3.4,2.9-2,.2-2.6-1.8-1.9,2.8-5.2-6-2.2-.7-.9-4-7.9.8-7.1-4-1.2.9-.9-1.5-2.7-1.1-1.4.7-1.9-1.4,1.6-2.8-3,1.4-.4,3.7-3.6-1-1.4-2.4,2.4-2.2,1.4-3.5-.3-3.9-6.1-2-1.1.3-.6,2.2h-1.3c0-.1-.7-3.3-.7-3.3l-4.4.6-.3-1.9-2.1-1.2v-1.3c0,0,5-.9,5-.9l2.8-2.5,6.4-12.2,6.2-32.3,1.7-19.2,2.6-6.7,7.9,1.3-.6-2.5-2.1-1h1.5s-5.5-4.6-5.5-4.6l-2.7,4.8-.6,4.5-.6-1,4.3-49.4,2.6-4.8,1.4-1,.9,2.2-1.6.3h1.1c0,0-.6,1.2-.6,1.2l10.9,9.8,4.7,15.9,3.9,3.9-3.1-7.1-1.9-11.6h0l5,.4.3-1.5.9,3,5.8,1.1,1,5.4h0v.3h0l.7,2.2.9-1.5,1.1.2,1,1.7,1.4-.3.9,1.6,2.8,1.2,2,.3,2.3-1.9,1.8,1.4.3-2.4,1.7-.8-1-.7,1.1-2.2,2-1.4,3.3,1.2,1.7-3.2,3.8-2.1-.8-4.3,1.2-3.4,1.7-.6-.6-1.3,1.2,1,2.1-2.6h2.1s.7-2.2.7-2.2l2.3-1.6.3-4.8h2.3s2.6-4.5,2.6-4.5ZM318.9,498.9h0l-.2-3.6h0l-.4-.2h0l.2,2.1-1.2.5,1,1,.7.2ZM317.3,498.8h0l-.3.2h0l-.8,1.9.8,1.8,1.7-1.2-1-2.5h0l-.2-.2h-.1Z"/>
    <path id="FR-C" class="cls-1" d="M416.7,317.2l.7-3h1s1.6-2.8,1.6-2.8l5.2-1,2.1.8,3.2-2.1-.5-2.5-1.5-.9,1.2-1.8-1.1-1.2,1.5-.8.9.8v-1.9c-.1,0,3.1-1.7,3.1-1.7l.6-1.6,1.9,1.7,1.6-1.1,2,.5,3.1-4.1h4.6c0-.1,1.1,2.5,1.1,2.5l5.9,4.5,2.9-2.4,3.2,2,1.3-1.7h1.7c0,0,1.5,3.7,1.5,3.7l4.3-2.3-.5-2h2c0,0-.3-2.4-.3-2.4l1.5.4.6,2.9,4.1,6.3.2,3.8,2.6,1.2,1.4-.8,1.2,2.6,3.4-.3,2.1,1.9-1,3.8.4,4.2h.8c0,0-2.4.4-2.4.4l-2,2.7h-.3c0,0-.4.1-.4.1h0l-4.8,2.1,1.7,4.6-.6,3.1,1.2,1.4-.7,2.1,1.1,3.2-1.8,1.5-3.6.2-.3,2.4,2.6,2.6-1.6.9.3,3.4-1.4,1.3,3.8,3.9v2c-.1,0,1.8,3.5,1.8,3.5l4.6,3.2,2.1,4.9-.9,3.5-3.1,2.4.6,3.6,1.8-2.5,1.6.2,1.4,2.6v-1.3c.1,0,2.2.8,2.2.8l.4-1.3,3-.4-.4-1.1,1.4-.5,2.3.2,1.6,1.8,2.6-.6,1.4,1.9-1.5,1.1,1.6,1-.9,1.6,1.5,1.1,2.1-1.1,2.3,3-1.8,3.7.4,2.4-.9.5-.5-1.6-2-.4,1,1.8h0v.5h-1.1c0,0-1,1.7-1,1.7l1.4,2.3-3.5,1,.7,2.7-3.7.6-2.8,5.3h-5.1s-.3,2.3-.3,2.3l-1.2.8-.7-.8.2,1.2-1.6-.9-1.1,3.4-2.6,1.4h0l-1.1-.2.3-1.4-1.4.4-2-2.1-.7-2.2-3.2.5.3-1.6-1.8-1.4-1.5.3-.2,2.9-4.6,1-2.5-5.2v-2.5c0,0-1.9-2-1.9-2l-3.6,2.8-1.8-.5-.2,2.8-1.8,1.5-2.5-2.4-.9,2.2h-.2l-.2,1.9-1.1-.2-1.1,2.2-.3,4.9-2.4,4.1h0l-1.9-2.1-1-4.7,1.1-.7-.7-1.1-1.3.2-1.2-5-3.6,1.1v-3.3c0,0-1.5-1.7-1.5-1.7l-5.5,5.6-.2,3.1-2.1,2.2.4,1.9-2.5,1.8-.7,2.2-5.5.6-1.1-1.7h-1.3c0,.1-3.2,1.2-3.2,1.2l-.5,1.9-1.4-1.2-.5-3.3h-1.2c0,0,1.7-5.4,1.7-5.4l-3.3-4.9.5-2.7-1.7-3.2h0l1.6-.4h.4c0,0,1.4-1.1,1.4-1.1l-1.8-3.4,3.1-1.3.3-3.2,2.2-1.7-1.3-.9-.3-2.4,6.9-6.8-.5-4.4,5.5,2.5,2-1.3-1.7-1.6,1.3-8-2.3-2.5,1-2.7h1.5c0,0,0-4.1,0-4.1l-5.6-6.8,2.8-2.4h.2s1.3.1,1.3.1l2.7-3,.3-2.6,2-.9-.4-3.8-2.1-3.1.6-4.1-3.5-7.5-2.1-1-.4.8-1.4-2.9-1,1.3-2.6-2,1.3-1.7-1.9-.6-.3-2.3Z"/>
    <path id="FR-D" class="cls-1" d="M527.2,229.1h0l-1.5-3.4-1.4.2-.4,1.3-1.2-.8,1.4-1.9-.8-1.2h-2.5c0-.1,1-1.7,1-1.7l-.7-1.1-3.9-1.1-5-.3-1.8,1.4.8,2.4-10,.4-.9,2.2-2-.3-.8-2.6-1.3.3.3,1.6-1.5-1.1h0l-.5.3h0l-1.8,1.8-2.1-1.2-.6,1.3-1.7-1.1-4.5.8.8-3.1-.8-1.4-.6,1.4-1.2-.3-.5-1.3,1.4-.7-2.1-1.8-1.3-4.6-2.1-.9.4-2.1-1.4-.5.4,1.1-2.3,1-1.5-3.1-2.1.3,1.8-2.6-.9-.4.8-2.2-1.7-.9.4-1-3.5-4.1-1.6-.6-1.6,1.1-.6-2h0l-1.6-.6-.5,1.7-1.2.2-8.1-.2-1.5,1.5-2.3-.6-1.3,3.4,1.3,3.4-1.8,2.7-2.8,1.5v1.3h0l3.8,1.9-.6,1.1h.8c0,0,.6,2.7.6,2.7l3.1,2.7-1,.6,1.2,2.9-1.4,1.6h0l-.2.2h0l-3.3,2.3-.6,2.4,1.5,1.1-.3,3.9-7.2,1.8-.2,2.5,1.3-.2,2,2.4,1.1,2.3-.7,2.8,1.7,1.8-4.8,1.4h0v-.2h0l-.5.8,3.4,6.1-2.6,6.1,4.7,4.7,2,8.6-.5,3.5,2.5,2.5v4.1c0,0-1.2,2.9-1.2,2.9l.8,3.4-1.6,3.4h0l1.1,2.6,5.9,4.5,2.9-2.4,3.2,2,1.3-1.7h1.7c0,0,1.5,3.7,1.5,3.7l4.3-2.3-.5-2h2c0,0-.3-2.4-.3-2.4l1.5.4.6,2.9,4.1,6.3.2,3.8,2.6,1.2,1.4-.8,1.2,2.6,3.4-.3,2.1,1.9-1,3.8.4,4.2h.8c0,0-2.4.4-2.4.4l-2,2.7h0l-.4,3.7,3.4.7.7,2,4.7-1.8,3.1,1.5,1.2-1.2.8,1,1.2-.6-.2,1.7h1.1c0,.1,4-1.6,4-1.6l1.4-6.6h2.2c0,0,1.9,1.7,1.9,1.7l2.7-1.6,2.1,1.7.8-2.1,1.8-.3,1.3,1.6-1.3,1.2,2.4,1.5-.7,2.3,1.6,1.3.9-.2,6.7-20.5.4,1.1,1.4-.8,3,1.8,4.6-1.2v-.9s1.6.8,1.6.8l1.2,2.9,3.3.7h0l.4-1,3.9-.8.2-1.5-2.6-1v-2.6s1.9-1.2,1.9-1.2l-.4-1.7,1.9-1.6-1.9-2.9v-2.6c-.1,0-1.4,0-1.4,0l1.3-2.5-2.7-2.7,5.8-1.5-2.6-1.7v-1.5c-.1,0-3,.3-3,.3l-1.5-3.2-1.2.7-.4-3,2.6-2.1-1.8-.8.4-1.4,4.2-2,2.2-3.8h0v-.3h0l2-8.4,1.3-.9-1.9-.8h-.1l1.1-1.5-.5-3.2h-.2c0-.1-1.7,0-1.7,0h-.3l.3-3.5-3-.9,1.7-.8-.9-.2.5-1.1h2c0,0,2-3.5,2-3.5l-2.3-4.6-1.9,2.2-.9-.6h0l-.7.9-2-1.1-2.3,2,.3-2.8-3.6-1.8.2-1.7-2.5,2.1-2.6-1.3.3-1.7-1.3.2v-1.1s-2.5,1.5-2.5,1.5l-.4-4.7-1.8-.3,3.2-2.5-1.6-3.6h-.6Z"/>
    <path id="FR-E" class="cls-1" d="M187.2,258.6l1.2,1.5h2.5c0,0,.7,2.1.7,2.1l3.2.9-.6,1.7-6.8-1-1-3,.6-2.2ZM188.2,166.7l.2,2.2,5.6-2.3v3l3.1-.2.3,1.5-1.6,1.2,4.8,1.5-.7,2.2,5.3,4.5-.2,3.4,4.5,2.5-1.1,1.9,1.2-.5,1.6,2.8-.4-2.8,2.3.7,3-4.9,3.4-1.4-.6-1.4,2.1-.5.7,1.5,4.2-3.7,1.4,1.3-2.2,3,1,.6,2.9-2.1,1.4,3.6-.6,2.3,1.2-3.8.7,2.2,1.2-2.6,1.1,1.1-1.1-2.1,4.3-.3.4,2.4,1.7,1.1-.8.7,1.8,1.7-.5,3,.9-1.9,1.1.4-2-4,1.6.9-.6-1.3-2.1-.4.6-1.1-1.5-1.2,1.7-3.1,6.1-1.8.3,2.1-1.4,2.6,3.8,2.1,8.5-1.9h0l3.5,9.1,2.8,1.8,2.8-.5,4.2-4.7,7.6,2.2h0l-.5,5.9,1.5,5.4-2.3,3.9.9,3.9h0l.2.2h0l2.4,12.3-5.8,2.4-3.8,11.6-4.8-1.4-1-1.8-3.8-.4.2,2-6.2,2.4-1.6,3.3h-8.3c0,0-3.9,2.3-3.9,2.3l-.8-1.4-4.5,2.7-.7,7.2-2.5.7-.3,1.9-.9-1.4-2.5,1.1-2.2-1.3-.8,3.4-3.5.3-.9-1.3-1.4,1.8h-1.6c0-.1-.3-2.7-.3-2.7l2.5-.4-2.8-1.6-12.7,2.3-4-4.1h-2.2s-1.1-1.6-1.1-1.6l-.6.8-.8-1.6.2,1.5h-4.3c0-.1-.2,3.3-.2,3.3l2,2.8-2.1-.3-1.3-3.4,1.1-.9-.6-3.1-5.7-5.5h-3.1s-.2-1.6-.2-1.6l-3.6.9-3.1-4.2-6.3-.8-2-1.8-5.3.9-2-2.7.8-1.5-1.2.5-1.5-3.2-1.8,1.2.6,1.8-2.8.7-2.7-1.8-1.7.9-1.9,3.7h-7.3s.4-5.6.4-5.6l-2.6-4.6-3.7-2.6-2.4.3-2.6-1.8-4.3-.6,1.2-.3-.3-1.3,12.4-2.6,4.6,1.1,1.6-2.5-2-4.6-6.1-2.2-1.5.4-2.5,3.8-.5-4,1.2-.9-3.2-.3-.3-1.6,2.4-.2v-3c0,0,1.6-.6,1.6-.6l-1,2.4.9,1.2,1.5-1.7v1.9c-.1,0,2-1,2-1l2.2,1.4,3.8-1.4,1.9,1.1,1.6-2.1-1.1.9-3.7-1,1.4-1-1.2-.6.6-1.4-2.3,2.2h-1.8c0,.1.8-1,.8-1l-2.5,1,2.4-3.5-1-.8-7.6,3.6-3.1-1.1-1.1,1.5h-2.7c0,.1-.7-1.9-.7-1.9l1.2-1.3-1.4-1.9,1.4-3.4-.7-3,2-2.5,5-1.3.2-1.7,1.8.4.9-2.4,1.8,1,4.1-1-1.5-1.1,3.8-1.4,2.1.8v1.9s4.2-1.1,4.2-1.1l-1.1-.4,1.5-1.8,3.6-.5,1.7,1.2.2-1.9,1.9-1.4.3,1,1.3-1v3.3c0,0,1.6.7,1.6.7l.2-2.3v1.6c0,0,3.3.9,3.3.9l-.4-1.8,1-1.6.5.9v-1.2c-.1,0,5.8,2.1,5.8,2.1l1.5-.6-.6,2.3,1.5-1.7,1.7,1v-3.4c0,0,1.4-1.3,1.4-1.3l-1.5-.8.7-2.4-.8-.7,1.3.9,2.1-3,.5,1.2.4-1.1.9,1.4,1.3-.3-.5,1.4h1.8c0-.1,3.2-2.5,3.2-2.5l2.4.2,1.6-2.1Z"/>
    <path id="FR-F" class="cls-1" d="M384.4,162.2l2.6,3.1-.7,1.3,2.2,1.9-.7,4.9,1.9.9-2.1,2.8,1.5.9-.4,1.5,2.6,3.2h2s-.2,2.3-.2,2.3l3.2,1.5-.5,2.5,1.1,2.9,2.8,1.6,2.5-1v3.2c-.1,0,2,.3,2,.3l.4,2.4-1.3,3.3.6,1.4,7.9-.6-.5-1.1,1.2.3.9-2,1.8.8v2.1s2.2-.9,2.2-.9h0l.2-.4h0l1-.9,1.3,1.6,1.9-.5.8,3.5,3.9,2.1v3.6s-1.4.1-1.4.1l-1.6,2.5,4.8-1.1,6.1,1.1,2-1.4-.7-1.3,1.1.8,1.5-1,.9,2.4,1.9-1.6,2.9-.4h0l3.8,1.9-.6,1.1h.8c0,0,.6,2.7.6,2.7l3.1,2.7-1,.6,1.2,2.9-1.4,1.6h0l-.2.2h0l-3.3,2.3-.6,2.4,1.5,1.1-.3,3.9-7.2,1.8-.2,2.5,1.3-.2,2,2.4,1.1,2.3-.7,2.8,1.7,1.8-4.8,1.4h0v-.2h0l-.5.8,3.4,6.1-2.6,6.1,4.7,4.7,2,8.6-.5,3.5,2.5,2.5v4.1c0,0-1.2,2.9-1.2,2.9l.8,3.4-1.6,3.4h-4.6c0,.1-3.1,4.2-3.1,4.2l-2-.5-1.6,1.1-1.9-1.7-.6,1.6-3.2,1.7v1.9c.1,0-.8-.8-.8-.8l-1.5.8,1.1,1.2-1.2,1.8,1.5.9.5,2.5-3.2,2.1-2.1-.8-5.2,1-1.6,2.8h-1s-.7,3-.7,3h0l-3.5-.5-4.5,1.1-4.6-2-5.8,1-2.3-1.8-1.5.4.5,1.5-1.3,2.1-1.8-1.7-2.4,1.8-.8-2-2.7,1.7-.8-2.1-4.6,4.8-2.6-3.2-1.7.3-.4,1.4-3.5.3-.4-1.5-1.3.3h0l.8-1h0l.6-1.9-2.5-.9-.3-3.5-2.1-1.8h-3s-.2-1.8-.2-1.8l-4.3-2.1-.8-1.7,1.5-3.9-.6-2-4.1-3.8-.8-3.7-3.8-3.2-.5-4.3-3.1-2h-2.1c0,0,1.3,3.1,1.3,3.1h-3.8c0-.1-2.8,1.7-2.8,1.7l-3-1.2-1.7,1.1-1.3-3.6.9-.5-.4-3.2-1.4.5-1-1.8-2.8.8.9-2-.8-1.4-.8.9-1.1-.4.2-1.1-2.5.4-1.1-2.7h0l.9-7.2,4.4-6.1-1.2-1.1,2.9-6.2.2-1.7-1.3-.7,1.6-3.5h0v-.5h0l6.3,2.1.8-.5-1.6-2.5.8-1.5,2.7,1.5.6-1.6,5.5-1.7.9-1.3-1,.3-.4-1.8,1.7-2.1,3.1-.9-.4-1,3.2-3-.3-4.2,1.2-.7.9,1.4.2-2.7,1.4-.5-1.3-2.8,1-2.7-1.9-.5v-2.1c-.1,0,1.9-.2,1.9-.2v-1.4c0,0-1.2-.3-1.2-.3l1.1-.3.4-1.8,2.7-.3-4.9-3.4h0l1.3-1.2-1.8-2.9.8-1.8-2.1-.7.6-1.4,6-3.1,2.6-4.2-1.7-2.3,1.3-2.9-6.1-5.5v-3.6h-.1l2-1.1.5-1.7,4.7-.6h.9l2.2-2.1,2.2.7.3-2.7,4.2,2,4.6-.2,1.7-1.2-.4-3.4,4.1-2.4-.5-3.2,2.2-1Z"/>
    <path id="FR-G" class="cls-1" d="M522.8,84.7l2.5,1.1-1.2,1.1.2,2-.9-.9-1.3,2.4.9,1.7-2.1,4.5,4.1,3.8-1.7,2.8,1.1,3-1,1.7,6-.4,4.1,2.4,3,4.4,4.3-.2,2.5,2.7-.7,2.7,1.4-1.3,2,.9h0l-5.5,4.8-1.1-1.8-3,.4-.8-1.8h-1.3c0-.1-.9,3.1-.9,3.1h0v.4h0l-1.2,2.3,2.2,2.7.2,2.4-1.6,1.1,1,1.6-2,.7-1.2,3.6,1.3,1-.2,1.2-4.1,2.3,1.7,1.8-2.2,1.5,2.7,7.3-1.6,3,1.8-.9,1.1.8v1.9c0,0-1.7.6-1.7.6l1.9.6-1,2.2-3.2,1.3h0l-.2.2h0l-.9,2.9,1,1.6-1.9,2.8,5,3.6-.5,7.9,2.4-1.1.6,2.3h2s3.8,4.2,3.8,4.2l4.8,1.2,5.8,5.4-3.1,2,2,.7-.6,3,2.2-1.6,1.9.5,2.7,4.6.9-1.1,1.8,1.5-.5,1.6,1.9.5,1.8,2.2-2,1.2-.4,4.4-1.8,1.4,2.9.5,1.1,2,2.3.6.4,5,2.5-1.4,1.6,3.1h0v1.6s-1.4-.4-1.4-.4l-1.2,2.2.2,1.2-2.8-.4-.8,2.4h-2.1c0,0-.6,2.5-.6,2.5l1.4,2-.8,3.8-3.9.8-1.2-2.2-1.7,2.1h-4.8c0,0-1.6,4.2-1.6,4.2h0l-.7.9-2-1.1-2.3,2,.3-2.8-3.6-1.8.2-1.7-2.5,2.1-2.6-1.3.3-1.7-1.3.2v-1.1s-2.5,1.5-2.5,1.5l-.4-4.7-1.8-.3,3.2-2.5-1.6-3.6h-.6l-1.5-3.4-1.4.2-.4,1.3-1.2-.8,1.4-1.9-.8-1.2h-2.5c0-.1,1-1.7,1-1.7l-.7-1.1-3.9-1.1-5-.3-1.8,1.4.8,2.4-10,.4-.9,2.2-2-.3-.8-2.6-1.3.3.3,1.6-1.5-1.1h0l-.5.3h0l-1.8,1.8-2.1-1.2-.6,1.3-1.7-1.1-4.5.8.8-3.1-.8-1.4-.6,1.4-1.2-.3-.5-1.3,1.4-.7-2.1-1.8-1.3-4.6-2.1-.9.4-2.1-1.4-.5.4,1.1-2.3,1-1.5-3.1-2.1.3,1.8-2.6-.9-.4.8-2.2-1.7-.9.4-1-3.5-4.1-1.6-.6-1.6,1.1-.6-2h0l-1.3-5.6,2.3-.7-1.3-2.3,3.1-.9-.7-1.8,2-1.2-.5-.9,2.4-.7-1.6-1,.6-.8-3.5.7.7-6.4-3.1-1.3,2-2-1.7-1.2,3.5-.3v-2.4h0l1.8-3.8,1.8-.2v-1.6c.1,0,1.4-.2,1.4-.2l-.5-1.1,3.6-3.4-1.1-1.8-2.7.4v-1.5c0,0,2.2-1.1,2.2-1.1l-1.6-2.7.9-1.9,3.4.5,1.8-1v-1.4s-1.4.3-1.4.3l-.7-1.9-.7.6-1.2-1,1-1.4-1.4-5,5.5-2.7,3,.7.2-2.2,2.8-1.7,1.5,1.9,3.2,1.1v-5c0,0,1.3-.5,1.3-.5l-1.1-3.9,1.6-1.1-1.2-1.3,1.2-1.7-2.3-3.2.7-1,3.1.3.5-2.9,2.4-1.3,2.7-3.7-1.8-1.5,2-5.7v-2.3c0,0-1.5-.6-1.5-.6l.6-2.9h0l3.2-.7,5.7,2,6.3-3.2,3.9-.6-.5-4.5.9-1.9,5.1-4.7.5.9Z"/>
    <path id="FR-I" class="cls-1" d="M566.4,225.5l2-3.2,1.1.6-1.3,1.9h.9c0,.1,2.2-1.1,2.2-1.1l1.5-2.9,4-1h.1c0,0,.5,3.3.5,3.3l2.3,1.8h0v.3h0l7.7-1.8,1.9,1.2,1.8,3.5,5.2-3.7,1.8,2.6,7.9,5.1h0l1.2,2.4,3.1.7,4,3,.4,3.1-1.7,4.3,3.3.6,2.4,4.2-.4,1.3h0l-6.2.6.8,2.5-2.6,1.3-2.5,4.9,5.7-1.2,1.4.6.3,1.7-1.9.6-.6,1.8-2.2.5.5,2.7-4.7,4.3.7.4-.8,1-5.6,4.1.7,1.9-4.1,3.5-5.2,1.1-2.7,2.8,1.3,2.4-1.4,4.6.9,2.2-14.2,12,1.9,1.9-3.5,5-.3,2.8h0l-8.1,9.1-6,.2-.5-2.9-2.8-.9v-1.2c-.1,0-4.5,4.6-4.5,4.6l-2.7.2v-3.1c0,0-1.5,0-1.5,0l-.5-2-.8,2.2-1.8-3.6.6-.7-3.2-1.9.6-2h0l.4-1,3.9-.8.2-1.5-2.6-1v-2.6s1.9-1.2,1.9-1.2l-.4-1.7,1.9-1.6-1.9-2.9v-2.6c-.1,0-1.4,0-1.4,0l1.3-2.5-2.7-2.7,5.8-1.5-2.6-1.7v-1.5c-.1,0-3,.3-3,.3l-1.5-3.2-1.2.7-.4-3,2.6-2.1-1.8-.8.4-1.4,4.2-2,2.2-3.8h0v-.3h0l2-8.4,1.3-.9-1.9-.8h-.1l1.1-1.5-.5-3.2h-.2c0-.1-1.7,0-1.7,0h-.3l.3-3.5-3-.9,1.7-.8-.9-.2.5-1.1h2c0,0,2-3.5,2-3.5l-2.3-4.6-1.9,2.2-.9-.6h0l1.6-4.3h4.8c0,0,1.7-2,1.7-2l1.2,2.2,3.9-.8.8-3.8-1.4-2,.6-2.6h2.1c0,0,.8-2.4.8-2.4l2.8.4-.2-1.2,1.2-2.2,1.4.4v-1.6Z"/>
    <path id="FR-J" class="cls-1" d="M392.8,143.8l1.5.5-.5,1.9h.4s.8,1.2.8,1.2l2-.6,3.3,1.4,4.9-.8,3.3-2.2,3.7,3,2-1,.6,1.8,2.2-.5,1.2-1.7,1.8,2.4.7-.7,2.7.8-.2.8,1.1-.5,1.8,1.5-.6.7,1.7.4.8-1.6,1.3,2.8,2.1-1.8,4.2,3,3.1-2.3,1.8,1.7,4.9-1.3.8,1.3.9-1.3,2.4.4v-2c.1,0,3,.7,3,.7l2.2,3.5-1,2.4,3.5,2.5.6,2.1,1.7-.6,1,2.6,1.6-1.3.6,3.5,2.6.7.6,1.4,1-.9h0v2.4c0,0-3.4.3-3.4.3l1.7,1.2-2,2,3.1,1.3-.7,6.4,3.5-.7-.6.8,1.6,1-2.4.7.5.9-2,1.2.7,1.8-3.1.9,1.3,2.3-2.3.7,1.3,5.6h0l-1.6-.6-.5,1.7-1.2.2-8.1-.2-1.5,1.5-2.3-.6-1.3,3.4,1.3,3.4-1.8,2.7-2.8,1.5v1.3h0l-2.9.4-1.9,1.6-.9-2.4-1.5,1-1.1-.8.7,1.3-2,1.4-6.1-1.1-4.8,1.1,1.6-2.5h1.4c0-.1,0-3.8,0-3.8l-3.9-2.1-.8-3.5-1.9.5-1.3-1.6-1,.9h0l-.2.4h0l-2.2.9v-2.1s-1.8-.8-1.8-.8l-.9,2-1.2-.3.5,1.1-7.9.6-.6-1.4,1.3-3.3-.4-2.4-2.1-.3v-3.2c.1,0-2.4,1-2.4,1l-2.8-1.6-1.1-2.9.5-2.5-3.2-1.5.2-2.3h-2s-2.6-3.2-2.6-3.2l.4-1.5-1.5-.9,2.1-2.8-1.9-.9.7-4.9-2.2-1.9.7-1.3-2.6-3.1h0l-.4-1.7,1.1-.7-2,.2.3-2.4-1.3-2.5,1.7.2.9-2.2.5,1h.2l4-1,3.4-9.2Z"/>
    <path id="FR-K" class="cls-1" d="M445.9,422l2.4-4.1.3-4.9,1.1-2.2,1.1.2.2-1.9h.2l.9-2.2,2.5,2.4,1.8-1.5.2-2.8,1.8.5,3.5-2.8,1.8,2v2.5c0,0,2.6,5.2,2.6,5.2l4.6-1,.2-2.9,1.5-.3,1.8,1.4-.3,1.6,3.2-.5.7,2.2,2,2.1,1.4-.4-.3,1.4,1.1.2h0l1.7,8.7,2.1,1.4,1.5,5.7,3.4,3.9-1.2.8.3,4.2,3.4-1,5.3,4.1,2.9-4.2,2.7-.5v3.2c.1,0,1.9.4,1.9.4l.6-3.2,2.2-.3,6,4.2h0l1,3.2h1.4c0,0,.6,1.6.6,1.6v6.1s2.7.9,2.7.9l2.4,4.4h-1.3c0,0,0,1.5,0,1.5l-7.2,5.5,1.1,1.2-2.3,6.8.6,2.3-3.6-1.2-2.3.6-2.5,4.2,1.9.7-.4,1.3-5.3,3.1-.8-1.1.4,1.5-3.4,1.6-.4,2.2h0l-4-1.5-.7-1.3.8-1.3-1.3-1.2-5.6.4-10.3,8.3-3.4,1-5.7,6.6.2-1-.3.9-7.1-1.2.4,1.2-6.7,5.4-4.1,6.6-1.6,5.2.7,2.6-1.3,12.1.8,9.2,3.9,1.3-.5,1.9,1.8,2.7-3.7.5-1.9-2.7-3.1.4-.8-.9-1.2,1.5h-3.2c0-.1-2.5,2.5-2.5,2.5l-1.9-.7-2.4,1.1-1,1,.8,2.6-4-1-1.9,1.4-2-.4-2-3-7.3-2.5-2.3,1.2-1.9-.4-2.9,3.4-2.9.8-2.2-1.9-1.2-4-2.2.2-2.4-2.1-3.9-.5.4-3.4,2-1h0l3.4-.3,1.3-2h3c0,0,1-2.6,1-2.6h6.9c0-.1.5-1.1.5-1.1l-3.8-4-3.4,1-3.8-1.4.5-1-2.8-2.7.7-1.6,4.6-1-.3-3.3-1.9-.7,1-1.2h2c0,0-1.5-2.5-1.5-2.5l.7-1.4-1.8-1,.9-1-.5-2.5-1.5-1.2-1,1-1.6-2.5v.8s-2.8-.3-2.8-.3l-3.1-2.2.7-1.9-1.5-2.8,1.9-2.3-.6-1.6h3.8s-.5-2.9-.5-2.9l2.1-2.9,1.8,2.6,1-1.4h.2s2.7.7,2.7.7l2-1.5,1.5,2.3,4.1-1.2,1.8,1.9.3-2.7,1.5-1.6,5.7,2.5,1.5-1.1,7.3.3,2.5-2.2.3-2.6-2.4-2.9,1.2-5.4,3.1.9,1.5,1.8,6.3-2.3.7-2,2.6-1.1,3.1.9v-8.1c.1,0,6.3,1.2,6.3,1.2l1.5-.9-.6-1.9,1.2-1.8h3.3s.6-3.1.6-3.1l3.5-2.9.3-1.5-2.5-1.9-1.5.5-.9-1.6-1.5.6-1.3-1.4,2.5-.9.5-2.9,1.6-.6-.4-1.8-6.5.6,1.1-2.3-2.9-.8-.4-1.8-1.3.7,1.4-2.6-1.4-3.2,1-4.3-3.2-3.7.8-3.3-4.3-5ZM402.9,546.8l2.2.6-1-2.2-1.2,1.6Z"/>
    <path id="FR-L" class="cls-1" d="M371,319.3l1.3-.3.4,1.5,3.5-.3.4-1.4,1.7-.3,2.6,3.2,4.6-4.8.8,2.1,2.7-1.7.8,2,2.4-1.8,1.8,1.7,1.3-2.1-.5-1.5,1.5-.4,2.3,1.8,5.8-1,4.6,2,4.5-1.1,3.5.5h0l.3,2.3,1.9.6-1.3,1.7,2.6,2,1-1.3,1.4,2.9.4-.8,2.1,1,3.5,7.5-.6,4.1,2.1,3.1.4,3.8-2,.9-.3,2.6-2.7,3-1.3-.2h-.2s-2.8,2.5-2.8,2.5l5.6,6.8v4c0,0-1.6,0-1.6,0l-1,2.7,2.3,2.5-1.3,8,1.7,1.6-2,1.3-5.5-2.5.5,4.4-6.9,6.8.3,2.4,1.3.9-2.2,1.7-.3,3.2-3.1,1.3,1.8,3.4-1.4,1.2h-.4c0,0-1.6.3-1.6.3h-3.1c0,0-1.6,1.4-1.6,1.4l-1.6-1.5-4.4,3.2-2.1-.9-4.3-5.3h-4.2c0,0-.3-1.1-.3-1.1l-3.7,1.6h0l-2.9-5,1.4-1.2-4.3-.5-2.2-1.9h.2s1.2-1.3,1.2-1.3l-2.6-.9,2.1-2.9-2.1-1.1.4-2.9h1.2c0,0,2.5-3.4,2.5-3.4l-2.8-1.4,1.5-1.8-7.2-2.5,1.9-3-2.1-1.3-1.3,1-2.8-4.7-5,.6-1.2-1.3-2.4,2.8-2.5-2.5,1-2.9-2.2-1.7-2.8.4-1-1.3h0l3.5-3.1v-2.5c-.1,0,2.8.8,2.8.8l1.8-5.4-.6-2.9,2.9.5,2.7-2.8-.9-2.4-1.7-1.3-1.1.8-1.8-1.9.8-2.7-1-1.6,1.5-.8-2.2-4.5,2.4-1.1,2.1-3.4,4.3.5,1.8-4.9,3.4.9,1.1-2.5.9.3Z"/>
    <path id="FR-M" class="cls-1" d="M547,120.3l1.5,2.1.7,4.4,3.5-2.1,2.3,1.5,1.3-2.7,4.3.7,1.1-1.6,2.7,1.3,1.3,2.8,4.1.3.6,2.7,2.5.2,1.3-1.2,1.1.9,1.1-2.5,4.6-1.3,5.2,3.4,2.7-1.1,5.3,3.5-.7,1.2,2.5,2.3-1.4,1.2,4.3,4.3-.4,1.3,1.2.6.3,2.1,1.2-.2-.5,2,1.1,1.5,4,.7,1.1-1.8-1-2,4.2-.6,4,2,.7,4.9,2-2.6,2.4,2.2,3.7-.6,2,.9,1.3-1.8h1.5s0-1.8,0-1.8l3.3-.8-.4,1.2,2.4-.3,1.4,4.5,4.3,1.5.2,1.2h0l-2.4,6.1-1.7,1.6-3.5-2.3-5.2,1.6-1.5-.8v-1.1c.1,0-6.8-2-6.8-2l-1.2-4.5-1.3.8-1.5,6.9-1.7-.3-.5,1.8h-1.4s.4,2.5.4,2.5l3.9,1.2v1c0,0,1.9-.2,1.9-.2l-1.8,1.2v1.8s1.6.3,1.6.3l-.5,1.7,2-1.1,1.1-2.7,4.4,1.5-.5.9,2.7,2.6-3,4.7,1,1.9h1.6c0,.1-3.6,6.9-3.6,6.9l-2.2,1.6-4.2.2,2.9,1.7-1.8-.4,1.1,1.8-1.3,4.8,1,1.3-1.3,1.6,1.7,1.2,2.6-.4.8,1.8-5.8,10.3.7,2.2-3.2,5.5-2.4,1.4-1.3,5,.7.6-1.4,1.2,1,2.5-3.5,1.7h0l-7.9-5.1-1.8-2.6-5.2,3.7-1.8-3.5-1.9-1.2-7.7,1.8h0v-.3h0l-2.3-1.8-.5-3.2h-.1c0,0-4,.9-4,.9l-1.5,2.9-2.2,1.3h-.9c0-.1,1.3-2,1.3-2l-1.1-.6-2,3.2h0l-1.6-3.1-2.5,1.4-.4-5-2.3-.6-1.1-2-2.9-.5,1.8-1.4.4-4.4,2-1.2-1.8-2.2-1.9-.5.5-1.6-1.8-1.5-.9,1.1-2.7-4.6-1.9-.5-2.2,1.6.6-3-2-.7,3.1-2-5.8-5.4-4.8-1.2-3.8-4.2h-2s-.6-2.3-.6-2.3l-2.4,1.1.5-7.9-5-3.6,1.9-2.8-1-1.6.9-2.9h0l.2-.2h0l3.2-1.3,1-2.2-1.9-.6,1.6-.6v-1.9c0,0-1.1-.8-1.1-.8l-1.8.9,1.6-3-2.7-7.3,2.2-1.5-1.7-1.8,4.1-2.3.2-1.2-1.3-1,1.2-3.6,2-.7-1-1.6,1.6-1.1-.2-2.4-2.2-2.7,1.2-2.3h0v-.4h0l.9-3.2h1.3c0,.1.8,1.9.8,1.9l3-.4,1.1,1.8,5.5-4.8h0l.9,1Z"/>
    <path id="FR-N" class="cls-1" d="M317.5,498.8l.2.2h0l1,2.5-1.7,1.2-.8-1.8.8-1.9h0l.3-.2h.1ZM318.7,495.4l.2,3.6h0l-.7-.2h0l-1-1,1.2-.5-.2-2.1h0l.4.2ZM382.2,400.1l3.7-1.6.3,1h4.2c0,0,4.3,5.4,4.3,5.4l2.1.9,4.4-3.2,1.6,1.5,1.6-1.3h3.1c0-.1,1.7,3.1,1.7,3.1l-.5,2.7,3.3,4.9-1.7,5.4h1.2s.5,3.4.5,3.4l1.4,1.2.5-1.9,3.2-1.1h1.3c0-.1,1.1,1.6,1.1,1.6l5.5-.6.6-2.2,2.5-1.8-.4-1.9,2.1-2.3.2-3.1,5.5-5.6,1.5,1.7v3.3c0,0,3.5-1.1,3.5-1.1l1.2,5,1.3-.3.7,1.1-1.1.7,1,4.7,1.9,2.1h0l4.3,5-.8,3.3,3.2,3.7-1,4.3,1.4,3.2-1.4,2.6,1.3-.7.4,1.8,2.9.8-1.1,2.3,6.5-.6.4,1.8-1.6.6-.5,2.9-2.5.9,1.3,1.4,1.5-.6.9,1.6,1.5-.5,2.5,1.9-.3,1.5-3.5,2.9-.6,3.2h-3.3s-1.2,1.8-1.2,1.8l.6,1.9-1.5.9-6.2-1.2v8.1c-.1,0-3.3-.9-3.3-.9l-2.6,1.1-.7,2-6.3,2.3-1.5-1.8-3.1-.9-1.2,5.4,2.4,2.9-.3,2.6-2.5,2.2-7.3-.3-1.5,1.1-5.7-2.5-1.5,1.6-.3,2.7-1.8-1.9-4.1,1.2-1.5-2.3-2,1.5-2.7-.7h-.2s-1,1.4-1,1.4l-1.8-2.6-2.1,2.9.5,2.9h-3.8s.6,1.5.6,1.5l-1.9,2.3,1.5,2.8-.7,1.9,3.1,2.2,2.8.3v-.8s1.6,2.5,1.6,2.5l1-1,1.5,1.2.5,2.5-.9,1,1.8,1-.7,1.4,1.5,2.6h-2c0,0-1,1.1-1,1.1l1.9.7.3,3.3-4.6,1-.7,1.6,2.8,2.7-.5,1,3.8,1.4,3.4-1,3.8,4-.5,1h-6.9c0,.1-1,2.6-1,2.6h-3c0,0-1.3,2.1-1.3,2.1l-3.4.3h0l.2-.8h-2.8c0-.1.4-1.6.4-1.6l-5.7-.5-2-1.6-2.9.2v2.1c0,0-1.8.6-1.8.6l-3.4-6.5-5.2-.5-2.5,1.1-3.7-4.5h-4c0,.1-1-1-1-1l-1.4.9-9.1-4.1-2.1,1.3.5,1.9-1.1,1.2.9.4-1,1.1,1.5,1.6v2c-.1,0-3.4-.8-3.4-.8l-7.3.8-2.6-1.9-2.7,2.9-1.4-2.4-3.5-1.2-7.4,2.9-2.3-.4-.5-1.4-1.8-.5-2-4.1-1.1.6-5.2-3.5h0l-.6-3.8,1.9-.9-.3-4,1.1-1.8,3.4-.8-.5-3.5,1.9-.8,1.2-2.9,2.1.2-.2-2.6,1,.2,1.3-3-1.2-1.8,3.1-2.5-1.4-1.5v-4.2c.1,0-2.6,2-2.6,2v-3c0,0,2-.5,2-.5l-2-4.3-1.1.3v-2.2c-.1,0-3.5-.8-3.5-.8l-2.6.8-.4-1.9h-1.3c0-.1,0-1.6,0-1.6l1.6-.7-.3-3,2.3-1.7-1.3-4.1h1.4c0-.1-.6-2.8-.6-2.8l.9-.6-2.2-1.7,2.5-2.4,3.5.6,2.5-3.2,1.8,1.7-1.1,1.4,3.3,1.9.7-1.2-.9-2.6,3-2.3,1.2,1.7,1.5-2.4,1.6-.4,2.9,1.8.6-1.1,5.3-1.1.8-1.6h3.9s1.5-1.4,1.5-1.4l2.9,3.2,3.2-2.1.7-2.6,1.7-.2-.4-1.9,3,1,1.3-.6-.4-2.1-1.3-.5,2.2-.4,1.8-4.8-3.4-2.1,1.1-4.1,1-.2.9,2.2.4-1,4.5-.2-.2-3.5-1.6-1v-3.5s-1.5-2.2-1.5-2.2l1.4.4,3.7-2.1-.4-1.2,2.5-2.6-.2-1.8,3.1-.8,3.8-3.3-.7-3.2,2.8-.9-.2-1.9,3.2-2.1-1.2-1.9,1.2-.4-1.2-4.5h0l-.2-.7h0l1.5-.9Z"/>
    <path id="FR-O" class="cls-1" d="M428.4,26l.5,3.5,2.4,3.6-1.7,1.8.4,4.6,1.5,2.4h3.6c0,.1,3,5.8,3,5.8h2.2c0,.1,2.5,2.1,2.5,2.1l1.9-3.9,8.2-2.5,1.7,4.2,2.9,1.5-.9,2.9,2.2,8.7,3.5,2.2,3-1,1.1-1.7,1.8.6-.8,2.4,4.5-.6,2.2,2.6v5.6c0,0,2,4.2,2,4.2l1.6-3h4.3c0,0,2.1,1.6,2.1,1.6l5.1-2.1,2.1,3.1,1.7.5.9,3h1.2s-.2-2-.2-2l1.9,1.1.5,1.2-2.9,2.6.2,3.2-1.1,1.9h3s1.2,4.1,1.2,4.1l-2.9,1.4-.8,4.4h0l-2.3.7-4.4-1.6v-3.3c0,0-3.9,2.2-3.9,2.2l-.6-1.8-6.5-2.1-2.1,1-.2,1.6-1.9.3-2.9-1.9-2.2,2.4-5.3-1.2-1.4,1.3h-2.1c0,0-.8-1.1-.8-1.1l-3.6,1.3-3.2-2.7-3.3-.4-1.8,1.1-2.1-.5-2.3,1.8-.3-3.7-4.6,2.2,1.4-4.3-2.1-.9h-.9c0,0-.1,2.9-.1,2.9l-5.3-2.1v-1.7c0,0-1-.2-1-.2l-.8,1.9-.8-1.8-1.4.2-2.6,3.3-1.8-1.4.5-2.8,4.4-2.6-1.8-2.3-1.9-.3-2,1.8-1.1-2.1-.2,1.7-2.4-1-5,2.5-.8-1.2-1.8.6-.4-3.3-5.4-2.3-.6-.8,1.4-1.4-.8-.6-1.6,1.3-4.3-3.2-5.8,2-1-1.4h0l-3.6-3.1,1.3-9,2,1.6-2.4-3.7-.6-10.2.2-1,.4,1.6.8-1,.8-4.7-1.4-4.4,3.3-1,3.5-3.8,5.2-1.7-1.2-.2,10.5-2.7.5.7,2.2-2.3-.5,1.2,1.3,1.2.7-2.4.3.8,6.2-2.1,1.1.8,6.8-2.8.7,2.2Z"/>
    <path id="FR-P" class="cls-1" d="M241.8,112.2l2,1.3,1.5-.8,1.1,1.8,8.6,2-.2,1.5.5-1.4,5-.7.6-1.8h8.6c0,0,1.5,5.8,1.5,5.8l-1.1-.4-.7,2.7v-.9s-1.1.2-1.1.2l-.5,2.2,5.9,9-1.4,4.6,1.9-1.8,1.6,1.2,1.7-2.9,4.5-.5,8.7,3.1,15,1,4.8,2.6,1.5-.5.9,1.3,9.2-2.8,5.3-4.9,4-1.7-4.7-.2h7.2c0-.1,1.7,5.8,1.7,5.8l-1.2,1.5,1.2,1.2-.6.8,2.2-.9.9.7v1.3l-2.6,1,3.1,2.4-.4,3.6,2,.8-1.4,2.2.8,1.9-2.2,1.4,3.3,2.3-2.6,6.5,2.9,2.1,4.1.3,1.2-1.2.4,1.3,1.1-.4-.2,1.4h1.1s-1.1,1.4-1.1,1.4l6.1,4.1.7,1.9-1.9,1.9,1.7.7v1.6c0,0,1.9,0,1.9,0h0v3.6c.1,0,6.3,5.5,6.3,5.5l-1.3,2.9,1.7,2.2-2.6,4.2-6,3.1-.6,1.4,2.1.6-.8,1.8,1.8,2.9-1.4,1.2h0l-2.5.4-3.5-4.7-.6,1.9-4.3-1-1.9-3.8-.4.7-3.6-1.4-.4-6.4-3.4-3.5-6.5,1.4.5,1-3.6,2.1-.6,1.9-2.4-1.2-2.1,1.4v-4.8s-4-.4-4-.4l-1.1-3.4,1.2-1.1-2.6-2.2h-1.7s.3,1.7.3,1.7l-1.2,1.8-2.1-.9-1.3,2.4-1.8-1.6h-4.7c0,0-1.7,2.3-1.7,2.3l-4.2,1.8-.5-2.6-1.1,1.1-1.7-.3.7,1.5-1.9.9-.8-1.8-1.4.6-1.3-2.8-2.6.2-1.9-1.3-2,1.8-2.7-1.2h0l-7.6-2.2-4.2,4.7-2.8.5-2.8-1.8-3.5-9.1h0l2.5.9v-1.1c0,0,.9.9.9.9l2.7-1.3,3,.7-2.4-1.7,1.1-1-2.5,1.3-5.1-5.8-.2-4.7-1.7-.8,3.1-6.1-.9-.6.2-5.4,2.2.4-2.3-1.1-.7,2.4-.9-2.4-.6-11.4,1.9-.2-1.9-.8-.5,1.6-3.3-7.6-4.3-2.8-1.6-8.4-1.6-1.9,2-2.3-.3-3.8-1.1-1.8-3-1,.5-3.3Z"/>
    <path id="FR-Q" class="cls-1" d="M379.3,90.5l3-.4v2c.1,0,10.9,9.8,10.9,9.8l.9,4.6,2.1,3.4h-1.5c0,0-2.5,4.3-2.5,4.3l.7.9,1.9-.9-2.2,3.2,1,1.3-.9,2.6h-.2l2.2,2.8-1.3,2.2,1.1.9.6-1.4,1.3.5-.8,2.2h0l-.4.3h0l-2,3.7h1.1c0,.1-.8.9-.8.9l1.6,1.7.5,4.7,1.3,1.1-.6,1.8-1.3-1.7-2,.5-.2,2.1h0l-3.4,9.2-4,1h-.2s-.5-1-.5-1l-.9,2.2-1.7-.2,1.3,2.5-.3,2.4,2-.2-1.1.7.4,1.7h0l-2.2,1.1.5,3.3-4.1,2.4.4,3.4-1.7,1.3-4.6.2-4.2-2-.2,2.7-2.2-.7-2.2,2.1h-.9l-4.7.6-.5,1.7-2,1.1h-1.9s0-1.6,0-1.6l-1.7-.7,1.9-1.9-.7-1.9-6.1-4.1,1.1-1.4h-1.1s.2-1.5.2-1.5l-1.1.4-.4-1.3-1.2,1.2-4.1-.3-2.9-2.1,2.6-6.5-3.3-2.3,2.2-1.4-.8-1.9,1.4-2.2-2-.8.4-3.6-3.1-2.4,2.6-1v-1.3l-.9-.7-2.2.9.6-.8-1.2-1.2,1.2-1.5-1.7-5.9h0l.4-1.1-1,.8-6.5-2-2-2.5,3.6-8.7-1.2-1.6,1.3.6,2.1-3.3,5.4-2.2,10.4-7,7.7-1.2,7.8-3.3,2.5.7,2.7-1.2.4,1.1-.3-1.3,4.5-2.1,7.6-6.1Z"/>
    <path id="FR-R" class="cls-1" d="M228.4,280.4l1.6,1.1-.6,2,3.1,1.6.3,3.3-2.4-3.9h-2.2c0,0-1.6-2-1.6-2l-.3-2,2.1-.2ZM277.6,189.3l2.7,1.2,2-1.8,1.9,1.3,2.6-.2,1.3,2.8,1.4-.6.8,1.8,1.9-.9-.7-1.5,1.7.3,1.1-1.1.5,2.6,4.2-1.8,1.7-2.2h4.7c0,0,1.8,1.6,1.8,1.6l1.3-2.4,2.1.9,1.2-1.8-.3-1.8h1.7s2.6,2.3,2.6,2.3l-1.2,1.1,1.1,3.4,4,.4v4.8s2.1-1.4,2.1-1.4l2.4,1.2.6-1.9,3.6-2.1-.5-1,6.5-1.4,3.4,3.5.4,6.4,3.6,1.4.4-.7,1.9,3.8,4.3,1,.6-1.9,3.5,4.7,2.5-.4h0l4.9,3.4-2.7.3-.4,1.8-1.2.3,1.3.3v1.4c0,0-2.1.1-2.1.1v2.1c.1,0,2,.5,2,.5l-1,2.7,1.3,2.8-1.4.5-.2,2.7-.9-1.4-1.2.7.3,4.2-3.2,3,.4,1-3.1.9-1.7,2.1.4,1.8,1-.3-.9,1.3-5.5,1.6-.6,1.6-2.7-1.5-.8,1.5,1.6,2.5-.8.5-6.3-2.1h0v.5h0l-1.6,3.5,1.3.7-.2,1.7-2.9,6.2,1.2,1.1-4.4,6.1-.9,7.2h0l-1.5-.7-1.1.9-1.2,4.5-2.1-.9-1.8,2.8-2.1-1,1.5-2-1.7-.3-.9.9-2.5-.7-5.4.9-.5,1.5-3.1.8.9-1.7h-1.5c0-.1-2.6,1.1-2.6,1.1l.5,1.9-2.3,2.2-3-.4-1.8,1.2-3-1.3-2.7,2.2-1.8-.3,1.4.8-.6,1h1.3s-.5.7-.5.7l2.1.8-1,2.2,2.3,2.7h.2l1.6,1.1h.3l1.1.7-.8.8h0v.2h0v2.2c-.1,0,2.5,3.3,2.5,3.3l-1,.8,1.8,1.4-.9,1.6,1.8.9-.5,2.8,1,2.6-1.8.7,1.6,3.9-1.4,3.5.9.4.6-1.3,2.8,1.7-4.5,4.1-2.1-.5-1,1.4-4.4-2.1h0l-.2-.3h0l-.8,1.5-1.5-.6-1.9,1-1.2-.7,1.3-2.9-5.1,1.3-.9,2h-1.7s-3.6.1-3.6.1l-.2,2.7-4.6-3.8.8,2.6-2-3.1h-5.2s-1.9-3.7-1.9-3.7l-5.6-1-6.8-4.5-1.8-7-3.8-5.3-8.1-7.5-.4-4.1h1.7c0-.1-.4-1.2-.4-1.2l3.6-3.6.2-2.5,2.1-1.2-5-5.2-6.1-1.1,3.4-2.2-.2-5.8-1.7-.4-3.6,2.3-3.2-2.8-2.3,1.2-4.7-1.9,1.5-1.1v-1.8c.1,0-2.1-2.2-2.1-2.2l4.2-3v-1.5h0l1.4-1.8.9,1.3,3.5-.3.8-3.4,2.2,1.3,2.5-1.1.9,1.4.3-1.9,2.5-.7.7-7.2,4.5-2.7.8,1.4,3.9-2.3h8.3c0,0,1.6-3.4,1.6-3.4l6.2-2.4-.2-2,3.8.4,1,1.8,4.8,1.4,3.8-11.6,5.8-2.4-2.4-12.3h0l-.2-.2h0l-.9-3.9,2.3-3.9-1.5-5.4.5-5.9Z"/>
    <path id="FR-S" class="cls-1" d="M389.6,71.5l.6.5h0l1,1.4,5.8-2,4.3,3.2,1.6-1.3.8.6-1.4,1.4.6.8,5.4,2.3.4,3.3,1.8-.6.8,1.2,5-2.5,2.4,1,.2-1.7,1.1,2.1,2-1.8,1.9.3,1.8,2.3-4.4,2.6-.5,2.8,1.8,1.4,2.6-3.3,1.4-.2.8,1.8.8-1.9,1,.2v1.7c0,0,5.2,2.1,5.2,2.1v-3c.1,0,1.1,0,1.1,0l2.1.9-1.4,4.4,4.6-2.2.3,3.7,2.3-1.8,2.1.5,1.8-1.1,3.3.4,3.2,2.7,3.6-1.3.8,1.2h2.1c0,0,1.4-1.4,1.4-1.4l5.3,1.2,2.2-2.4,2.9,1.9,1.9-.3.2-1.6,2.1-1,6.5,2.1.6,1.8,3.9-2.2v3.3c0,0,4.4,1.6,4.4,1.6l2.3-.7h0l3.7,1.3h0l-.6,2.9,1.6.6v2.3c-.1,0-2.1,5.7-2.1,5.7l1.8,1.5-2.7,3.7-2.5,1.3-.5,2.9-3.1-.3-.7,1,2.3,3.2-1.2,1.7,1.2,1.3-1.6,1.1,1.1,3.9-1.3.5v5c0,0-3.3-1.1-3.3-1.1l-1.5-1.9-2.8,1.7-.2,2.2-3-.7-5.5,2.7,1.4,5-1,1.4,1.2,1,.7-.6.7,1.9,1.4-.3v1.4s-1.8,1.1-1.8,1.1l-3.4-.5-.9,1.9,1.5,2.7-2.1,1.1v1.5c0,0,2.6-.4,2.6-.4l1.1,1.8-3.6,3.4.5,1.1-1.2.2v1.6c-.1,0-1.9.2-1.9.2l-1.8,3.8h0l-1,.9-.6-1.4-2.6-.7-.6-3.6-1.6,1.3-1-2.6-1.7.6-.5-2.1-3.5-2.5,1-2.4-2.2-3.5-2.8-.7v2c-.1,0-2.5-.4-2.5-.4l-.9,1.3-.8-1.3-4.9,1.4-1.8-1.7-3.1,2.3-4.2-3-2,1.8-1.3-2.8-.8,1.6-1.7-.4.6-.7-1.8-1.5-1.1.5.2-.8-2.7-.8-.7.7-1.8-2.4-1.2,1.7-2.2.5-.6-1.8-2,1-3.7-3-3.3,2.2-4.9.8-3.3-1.4-2,.6-.8-1.2h-.4s.5-1.8.5-1.8l-1.5-.5h0l.2-2.1,2-.5,1.3,1.7.6-1.8-1.3-1.1-.5-4.7-1.6-1.7.8-.8h-1.1c0-.1,2-3.8,2-3.8h0l.4-.3h0l.8-2.2-1.3-.5-.6,1.4-1.1-.9,1.3-2.2-2.2-2.8h.2l.9-2.6-1-1.3,2.2-3.2-1.9.9-.7-.9,2.5-4.4h1.5c0,0-2.1-3.3-2.1-3.3l-.9-4.6-10.8-9.8v-2c-.1,0-3.1.4-3.1.4h0l3.1-2.8,2.9-6.4,1.9-.6.8,1.9,3,.8,1.2-.9-6.2-5.6.7-5.7h3Z"/>
    <path id="FR-T" class="cls-1" d="M263.6,339.4l3.8,3.2,3.2.6v3.3c0,0,2.1,4.1,2.1,4.1l-1.9,3.6-1.6-4.8-4.9-4.3-.9-5.6ZM259.4,326.9l1.5,1.4-1.9.3.8,1.5,3.7-1.6-1.1,1,.6.7,2.5-.5,4.8,2.8-2.4,1.2-6.3-3.5h-3s-1.2-2.5-1.2-2.5l2.1-.8ZM275.7,323.4h1.7s.9-2,.9-2l5.1-1.3-1.3,2.9,1.2.7,1.9-1,1.5.6.8-1.5h0l.2.3h0l4.4,2.1,1-1.4,2.1.5,4.5-4.1-2.8-1.7-.6,1.3-.9-.4,1.4-3.5-1.6-3.9,1.8-.7-1-2.6.5-2.8-1.8-.9.9-1.6-1.8-1.4,1-.8-2.6-3.3v-2.2h.1v-.2h0l.8-.8-1.1-.7h-.3l-1.6-1.1h-.2l-2.3-2.7,1-2.2-2.1-.8.5-.7h-1.3s.6-1,.6-1l-1.4-.8,1.8.3,2.7-2.2,3,1.3,1.8-1.2,3,.4,2.3-2.2-.5-1.9,2.6-1.2h1.5c0,.1-.9,1.8-.9,1.8l3.1-.8.5-1.5,5.4-.9,2.5.7.9-.9,1.7.3-1.5,2,2.1,1,1.8-2.8,2.1.9,1.2-4.5,1.1-.9,1.5.7h0l1.1,2.7,2.5-.4-.2,1.1,1.1.4.8-.9.8,1.4-.9,2,2.8-.8,1,1.8,1.4-.5.4,3.2-.9.5,1.3,3.6,1.7-1.1,3,1.2,2.8-1.8h3.8c0,.1-1.3-2.9-1.3-2.9h2.1c0,0,3.1,2,3.1,2l.5,4.3,3.8,3.2.8,3.7,4.1,3.8.6,2-1.5,3.9.8,1.7,4.3,2,.2,1.9h3s2.1,1.7,2.1,1.7l.3,3.5,2.5.9-.6,1.9h0l-.8,1h0l-.9-.3-1.1,2.5-3.4-.9-1.8,4.9-4.3-.5-2.1,3.4-2.4,1.1,2.2,4.5-1.5.8,1,1.6-.9,2.7,1.8,1.9,1.1-.8,1.7,1.3.9,2.4-2.7,2.8-2.9-.5.6,2.9-1.8,5.4-2.9-.8v2.5c.1,0-3.4,3.1-3.4,3.1h0l-2.7,4.5h-2.3s-.3,4.8-.3,4.8l-2.3,1.6-.7,2.2h-2.1s-2.1,2.6-2.1,2.6l-1.2-1,.6,1.3-1.7.6-1.2,3.4.8,4.3-3.8,2.1-1.7,3.2-3.3-1.2-2,1.4-1.1,2.2,1,.7-1.7.8-.3,2.4-1.8-1.4-2.3,1.9-2-.3-2.8-1.2-.9-1.6-1.4.3-1-1.7-1.1-.2-.9,1.5-.7-2.2h0v-.3h0l-1-5.4-5.8-1.1-.9-3-.3,1.5-5-.4h0l-1.6-5.8-2.7-3.9-6.2-4-2.2-3.7-7.6-4.4-1.1.2.5,1.2-.6-1.2v-5.5c0,0,4.2-1,4.2-1l-1.9-3,2.6-.3,1.7-2.9-1.1-2.2.9-.2-.2-1.8-1.5-1.4h2.8s-2-5.5-2-5.5l-1.7-.7.6-1.2-1.9-.6,1-1.1-2.4.7-1.3-1.1,1.6-2.9,3.7-2.9-1-2.5.7-.9Z"/>
    <path id="FR-U" class="cls-1" d="M529.3,435l.4.5h0l2.9,1.8h0v.3h0l-2,.9-1.5,3.9-4-.7-.6-2.6,1.5-2.7h0l.4-.6h0l.3-.2h0l.7-.2h0l1.3-1h0l.2.4h.4s0,.2,0,.2ZM543.8,504.2l1.4-2.4-1.2-1.4,1.1-.8-2.7-3.8-3.4,1.9-7.4.2-3.3-5.7-2.1-.4-1.1,1.5.5-1.4-1,.6-.9-2,.7,2.5-2-1.1,1.4,1.6-2.3.9h1.9c0-.1-.7.5-.7.5l1.8,1.1,1.6-1.4-3.3,3-10.6-1.9-1-1.2,1.4-2.4-2.4-1.7-12.6-.5h0l.4-2.2,3.4-1.6-.4-1.5.8,1.1,5.3-3.1.4-1.3-1.9-.7,2.5-4.2,2.3-.6,3.6,1.2-.6-2.3,2.3-6.8-1.1-1.2,7.2-5.5v-1.4s1.3,0,1.3,0l-2.4-4.4-2.7-.9v-6.1s-.5-1.5-.5-1.5h-1.4c0,0-1-3.2-1-3.2h0v-3.4s5.8,1,5.8,1l1.3,5,10-4.6,2,1.7,1.8-1.9h0l.7-.3h0l-.6,4.8,3.2,1.2.8-1.2,2,1.4,2.4-.4,1.2.8v2.6c0,0,2.1.2,2.1.2l.8,1.9,3.6-.8,2.5-3.4,1.6,1.4-.4,1,2,.2.2-1-1.6-.5,1.8-1.4v-4.1s-1.6,0-1.6,0l-.4-2-1.2-.3.9-1.6-3.4.2-1.1-1.2-1.2.8-2.6-2.1-.5-2.9,2.4.3.9-1-1.4-.6-.3-3,6.5,1.6.6-1.7h1.5c0-.1-2.8-2.5-2.8-2.5l2.1-3.9-.2-2.3,3.6.7.8-1.3,1.7.5,1.7-2.1-1.3-.9,1.2-3.1,2.3.8,2.8-.8,1.2-1.2-1.3-1.4,2.8-1.8,1.6,1.1,3.2-2.8,4.7.7,1.8-1.3,2.7,1.1v-4.9c.1,0-1.4-.9-1.4-.9v-2.6s-4.9-1-4.9-1l1.7-6.1,2,.7,1.6-.9,1.3,3.1,3.6,1.1,1.5-.2-.3-2.2,1.2-1,1.3.6,1.5-1.4,2.2.9h0l1.8,5.3,2.9.3.3,6.4,4.7,3.2,1.9.4,1-1.1,3.6,2.3-.9,2,3.2,6.2-4.7.4.2,3.4-4.7,5.2.9,2.8,2.9,2.9-2.3.5-.2,3.4,4.5,4.8.5,2.6,7.5,2,3.8,3.5,2.6-.3.6,1.8,2.8.2.2-1,7.8-1.1.8-1.6h2c0,.1-.7,2.6-.7,2.6l2,2.7-.4,2.4-1.8.8-.4,3.1-3.5,1.9-.4,2.6-2.5,1.3,1.4,5.2-5.2,3.6-2.8.4-.2,2.1-.7-1.7-.5,1.2-2.6-.2-1.4,2.2h-2.2c0-.1-1.5,3.6-1.5,3.6l1,2-1,.6-1-1.7-2.5,2-.9-.9-2.2.5-1.1,1.6.8,1-2.7,3.9-4.2,1.1-1.8-.8-1.2,4.3-5.9,4.3,5.1.3-1.3,1.4.7,2.5-1.6.7.2,1.1-1.1.5-2.5-1.8-2.7,2.2-4.6.4-.9,3.3-3.7-2-3.6.4-1.5,2.8.2,2.2h-2.5c0-.1,1.4-1,1.4-1l-.2-2h-4.3c0,0-.8-1.5-.8-1.5l-3.1.2-.2-1.3-1.7,1.3,2.8,2-2.4-.6-1.3,1.8-1.3-.2-1.5-1.1.6-2.6h-1.7s.2-1.3.2-1.3l-3.2-.3-.4-2-2.7-.4-.7,1.5-2.8-3.1-1.5,1-6.6-1Z"/>
    <path id="FR-V" class="cls-1" d="M483.9,325.8l-.4,3.7,3.4.7.7,2,4.7-1.8,3.1,1.5,1.2-1.2.8,1,1.2-.6-.2,1.7h1.1c0,.1,4-1.6,4-1.6l1.4-6.6h2.2c0,0,1.9,1.7,1.9,1.7l2.7-1.6,2.1,1.7.8-2.1,1.8-.3,1.3,1.6-1.3,1.2,2.4,1.5-.7,2.3,1.6,1.3.9-.2,6.7-20.5.4,1.1,1.4-.8,3,1.9,4.6-1.2v-.9s1.6.8,1.6.8l1.2,2.9,3.3.7h0l-.6,2,3.2,1.9-.7.7,1.8,3.6.9-2.2.5,2h1.6s0,3.1,0,3.1l2.7-.2,4.3-4.6v1.2c.1,0,2.9.9,2.9.9l.5,2.9,6-.2,8.1-9.1h0l4.4,3-2.8,4.9.9,2-6,2.1-.6,1.2,1.2.9-1.5,3.2,3.9-1.4,3.2.7,6.9-5.1.6-1.9-2,.3-.5-3.1-1.1-.5,1.3-2.9,11.1-5.8h6.8c0,.1,5.7,1.8,5.7,1.8l-2,4.3,3.9,4.5-2.5,4.6-.3,4,4.2.8-1,4.5,2.5-1,4.3,6.6.3,1.9-2,3.1-3.5,1.9-3.9.2-.5,6.6,4.5,4.4,3.5.7-1,3.1,1,4.9,2.3.6-.2,1.3h2.1c0,.1.6,2.3.6,2.3l3,1.6-3.2,4.6,1,4.2-2.7,2.6-2.8-.5-2.3,3h-2.2c0,0,0,1.9,0,1.9l-1.8.6-3.4-1.9-5.7,2.9h0l-2.2-.9-1.5,1.4-1.3-.6-1.2,1,.3,2.2-1.5.2-3.6-1.1-1.3-3.1-1.6.9-2-.7-1.7,6.1,5,1v2.6s1.4.9,1.4.9v4.9c-.1,0-2.8-1.1-2.8-1.1l-1.8,1.3-4.7-.7-3.2,2.8-1.6-1.1-2.8,1.8,1.3,1.4-1.2,1.2-2.8.8-2.3-.8-1.2,3.1,1.3.9-1.7,2.1-1.7-.5-.8,1.3-3.6-.7.2,2.3-2.1,3.9,2.8,2.4h-1.5c0,.1-.6,1.8-.6,1.8l-6.5-1.6.3,3,1.4.6-.9,1-2.4-.3.5,2.9,2.6,2.1,1.2-.8,1.1,1.2,3.4-.2-.9,1.6,1.2.3.4,2h1.6v4.1s-1.8,1.4-1.8,1.4l1.6.5-.2,1-2-.2.4-1-1.6-1.4-2.5,3.4-3.6.8-.8-1.9-2.2-.2v-2.6c0,0-1.2-.8-1.2-.8l-2.4.4-2-1.4-.8,1.2-3.2-1.2.6-4.8h0l-.7.3h0l-1.8,1.9-2-1.7-10,4.6-1.3-5-5.7-1v3.4h0l-6-4.2-2.2.3-.6,3.2-1.8-.4v-3.2c-.1,0-2.9.5-2.9.5l-2.9,4.2-5.3-4.1-3.4,1-.3-4.2,1.2-.8-3.4-3.9-1.5-5.7-2.1-1.4-1.7-8.7h0l2.6-1.4,1.1-3.4,1.6.9-.2-1.2.7.8,1.2-.8.3-2.3h5.1s2.8-5.3,2.8-5.3l3.7-.6-.7-2.7,3.5-1-1.4-2.3,1-1.8h1.1c0,0,0-.5,0-.5h0l-1-1.8,2,.4.5,1.5.9-.5-.4-2.5,1.8-3.6-2.3-3.1-2,1.1-1.6-1.1.9-1.6-1.6-1,1.5-1.1-1.4-1.9-2.6.6-1.6-1.8-2.3-.2-1.4.5.4,1.1-3,.4-.4,1.3-2.1-.8v1.2c-.1,0-1.5-2.6-1.5-2.6l-1.6-.2-1.8,2.5-.6-3.6,3.1-2.4.9-3.5-2.1-4.9-4.6-3.2-2-3.5v-2c.1,0-3.7-3.9-3.7-3.9l1.4-1.3-.3-3.4,1.6-1-2.6-2.6.3-2.3,3.6-.2,1.8-1.5-1.1-3.2.7-2.1-1.2-1.4.6-3-1.7-4.6,4.8-2.1h.4s.3,0,.3,0ZM526.6,435.6h0l-.3.2h0l-.4.6h0l-1.5,2.7.6,2.6,4,.7,1.5-3.9,2-.9h0v-.3h0l-2.9-1.8h0l-.5-.6h-.4s-.2-.5-.2-.5h0l-1.3,1-.7.2Z"/>
  </g>
</svg>