<?xml version="1.0" encoding="UTF-8"?>
<svg id="Laag_1" data-name="Laag 1" xmlns="http://www.w3.org/2000/svg" xmlns:amcharts="http://amcharts.com/ammap" version="1.1" viewBox="0 0 841.9 595.3">
  <defs>
    <style>
      .cls-1 {
        fill: #e9511e;
        stroke: #fff;
        stroke-width: .5px;
      }
    </style>
  </defs>
  <g id="_defs" data-name="&amp;lt;defs">
    <amcharts:ammap bottomLatitude="20.768035" leftLongitude="-17.107061" projection="mercator" rightLongitude="-0.995761" topLatitude="35.922390"/>
  </g>
  <g>
    <path id="MA-01" class="cls-1" d="M571.2,11v.4c.1,0,.5,0,.5,0l.3,1.2,1.2.4-.4,1.9.7,4.8.5,1.2h1.6c0-.1-.4.8-.4.8l.5,2.5,1,2.3h.5c0,0,.3.4.3.4h.6c0-.1.9.3.9.3l.7,1.1,1.6,1.1.8,1.7v.2c0,0,.6,1,.6,1l1.1.3.5-.2,3,3.5,1,.6h1c0,.1,1.2,1.5,1.2,1.5l1.3.8.4.5,3.4,1.4,1.1-.4.6.8.6.2h.8c0-.1,2.3.6,2.3.6h1c0,0,1.3.6,1.3.6h0l-1,1.1-.2,1.2.6.6.2,2.1-.8,2.2-2.3,1.5-3.4.6-3.6,3.1h-.7s-.6.5-.6.5l-.7,1.2h-.7c0,.1-1.3.8-1.3.8h-1s-2.5.6-2.5.6l-.9-.3-.6.4h-.8l-2.2,1-1,1.2h0l-2.3-.6-2.9,1.2-3.7-.8-1.7-1-1.3-2.2-1-.5-.5-.7h-.2c0,0-1.1.7-1.1.7l-1.1-.2h-1.4c0,0-.6-.3-.6-.3l-1.2-1.8-1.3-.6-.7-.7-1.5-.2-.8-.9-1.9-.2-2.1-.8-4.7-.8h-2.3c0,.1-3.2-.2-3.2-.2h0l2.7-8.5.5-.2.4-.6,2.2-7.6.7-1.1.3-1.3.8-.7.8-2.3.2-1.6.2-.4.9-4.2,1.1-4.1h.2c0,0,0-.6,0-.6l.8-.6,1.5.2.6-.2,1.4.5v.3s.8.2.8.2l1-.9v-.8s.9-.2.9-.2v-.3c.1,0,.5,0,.5,0l.7-.4,1.2.5.8-.4,1,.2.6-.2.7-.6v.2c0,0,.3,0,.3,0l1.5-1.7h.5c0,0,.4-.9.4-.9l.2.2.4-.4h.3l.5.5v-.3c.1,0,1,0,1,0l.4-.4Z"/>
    <path id="MA-02" class="cls-1" d="M542.3,49.7l3.2.3h2.3c0-.1,4.7.7,4.7.7l2.1.8,1.9.2.8.9,1.5.2.7.7,1.3.6,1.2,1.8.6.4h1.4c0,0,1.1.2,1.1.2l1.1-.8h.2c0,0,.5.8.5.8l1,.5,1.3,2.2,1.7,1,3.7.8,2.9-1.2,2.3.6h0l-.4,1.3v1.5s-.5,2.3-.5,2.3v.5s.6.3.6.3l-.2.6-.4.3-.9-.2-1.1.5-.2.8-.4.4-.6.4-1.2.3-.2.4v1s-.5.4-.5.4l-1,.2-.5,1-2.3,1.3-1.5.4-.3.6.6.7-.3.5.2.7h.4c0,0,.6-.3.6-.3l.5.2v.5h-.1v1l.9,1.3h0l-.4.4h-1s-.1,1.5-.1,1.5l-.7.9-.8.4-.2.5.7.9-2,.6-1.3,1.7-.5-.2-.3-.7.3-.6v-.7c0,0-.6-.4-.6-.4l-2.1-.4-1.2.2-.8-.2-.2-.6.8-1.4-.4-.5h-1.2c0-.1-.4-.7-.4-.7h-1.2c0-.1-1.2.8-1.2.8v1.1c0,0-.3.5-.3.5l-.5.3-1.2.2-.3.3.4,1h.7c0,0,.4.1.4.1l.6,2.1h-1.9c0,0-1.7-.6-1.7-.6h-1.4s-6.2-1.9-6.2-1.9l-5.9.5-3.4-.8-3.1,1.4-.4-.3h-1.4c0,0-.6-.4-.6-.4l-.7-1h-1.6c0,.1-.5-.7-.5-.7h0l1.1-2.8v-.4c.1,0,5.3-8.4,5.3-8.4l4.5-9.3,3-7.1.6.2-.3.9v.4c0,0,.9.3.9.3v.3c.1,0,.4-.7.4-.7h.3c0,0,0-1,0-1l-1.1-.4-.2-.3h-.3c0,0,1.6-4.6,1.6-4.6Z"/>
    <path id="MA-03" class="cls-1" d="M621.2,38.4l.4.3-.4.4.2.2v.4c0,0,.7.9.7.9l1.7.5,1.5-.3h0l.3,1.2-.5,2.6.3,1.5v2.1s.3.4.3.4v5c-.1,0,.4.3.4.3v.8c0,0,.4.2.4.2l1.5-.2v.2c.1,0-.4.4-.4.4l.3.4,1.8-.2,1.4.9,1.5-.2.4.4-.4.6.4.8v1.2c-.1,0-.9,1.4-.9,1.4l.3.5.8.4v.5c0,0-.5.3-.5.3h-1.3s-.2.2-.2.2l.4,1.7v.6c-.1,0-.9.7-.9.7v.3c.1,0,1.9-.6,1.9-.6l.6.7v.9c0,0,.3.3.3.3l1.7.7h.6s.8-2.7.8-2.7l.7-.3v-.9c0,0,1.2.4,1.2.4l1-1.2,2.2-1.3.5-1.1v-1.1s.4-.3.4-.3h4.3c0,0,.7.5.7.5l1.2,1.6h1.1s1.7.9,1.7.9l.5.6,1.4.5v.4c.1,0-.5,1.6-.5,1.6l1.3.7v.6c0,0-.2.2-.2.2l-1.9-.8-2,1v1.3c.1,0-.4,2.3-.4,2.3h-1.2c0,0,.2.9.2.9l-.2.5-.8.2-.4.7-2.1,1.1-.3.7v.4c.1,0-.2.3-.2.3v.8c.1,0,.8.8.8.8l1,1.1,1.6,1,.2,4.1,1.4,1.2v.6s-1.3,2.8-1.3,2.8l-.9.6-3.4,1.3-.3.6v1.9c-.1,0,1.4,1.2,1.4,1.2l2.4,3.3.9,2.1v1.9h0l-3-.5-1.3-.5-2.5-1.8-2.9-.6-.5-.3-1.6-1.9-.8-.2-.3-.4-.9-.4-.5-.8h-.4s-.5.1-.5.1l-.5,1.4-.9.5-1.8,3.3-1.3,1.1-1.3.5-.3.7-1.2,1.3-1.3.8-.2,1.2-.3.2-.7,1.2-2.8,1.3-1.2.8-3.6.3-1.4-1.8,1.2-1.8v-.7c0,0-.8-.5-.8-.5h-.7s-.6,0-.6,0l-1.2.8-.9-1.5.2-2.8.8-1.4,1.8-1.1-.4-.3h-2.2c0,.1-.4-.3-.4-.3h-.5c0,0-.5-1.9-.5-1.9l-.2-.2h-.9s-.9-.7-.9-.7h-.8s-2.5,1.8-2.5,1.8h-.5c0-.1-1.2-1.1-1.2-1.1l-1.2-.2-1.2-.5-1-1v-2.9s0-.6,0-.6l-.7-.9v-.6c0,0-.4-.3-.4-.3h-1.2c0,0-1-.8-1-.8h-1.3c0,0-.4-.5-.4-.5l-1.2-.3-.8-1.5.2-.8-.2-1.1-.8.3h-.5c0,0,.1-1.3.1-1.3l-.2-.6-.5-.2-.8.4h-1.6s0-.7,0-.7l-.6-.4v-.4c.1,0,1-.1,1-.1l-.6-.9h-.4s-.6.6-.6.6l-.6.2-.2-.4.5-.6-.4-.7-2.8-.2-.4.6h-.4s-.1-.3-.1-.3l.2-.4h-.4s-1,.8-1,.8h-.3c0,0,0-.8,0-.8l-.4-.3-1.6-.3-1.4.5-.7.7-.8-.2-.3.3h-1.1c0,0-1.6.7-1.6.7l-.6-.8-1.2.5-1.4-1.5h0v-.5c.1,0-.3-.2-.3-.2l-.6.4h-.4c0,0-.2-.8-.2-.8l.3-.5-.6-.7.3-.6,1.5-.4,2.3-1.3.5-1,1-.2.5-.4v-1s.2-.4.2-.4l1.2-.3.6-.4.4-.4.2-.8,1.1-.5.9.2.4-.3.2-.6-.5-.3v-.5s.5-2.3.5-2.3v-1.5s.4-1.3.4-1.3h0l1-1.2,2.2-1h.8l.6-.4.9.3,2.5-.7h1s1.3-.6,1.3-.6h.7c0-.1.7-1.3.7-1.3l.6-.5h.7s3.6-3.2,3.6-3.2l3.4-.6,2.3-1.5.8-2.2-.2-2.1-.6-.6.2-1.2,1-1.1h0l.9.3.8-.2,1.7.5.5-.4h.5s.4-.4.4-.4l.8-.2.2-.2,1-.4h1.2c0,.1.1,0,.1,0l1.7-.5.5.2h.5c0-.1,2.9-1.3,2.9-1.3l.2-.3.3.2.6-.3.2.3,1-.2,1.3-.9h.6Z"/>
    <path id="MA-04" class="cls-1" d="M654,31l.5.5-.5.6.3.4-.6,1.6.5.8v2.4c-.1,0,1.1.9,1.1.9v.4c.1,0,2.6,2.6,2.6,2.6l-1-.5-.2-.5-.8-.6-.5-.8h-.4c0,.1.2,1.2.2,1.2l.3.4h.3c0,0,.2.1.2.1v.3c-.1,0-.4-.2-.4-.2l-.5.5v.6s.7.9.7.9v.6c.1,0,.8.6.8.6l2.3,1.1h2.1s.1-.4.1-.4l-.2-.3-1.1-.8-.2-.5-.7-.4-1.1-1.3,3.3,2.9,3.4,1.4,2.7.4,1.6-.3,1.3-.6,2-1.8v.3s.5.2.5.2l2.3.5,4.2,1.6v1.6c0,0,.9.6.9.6l.6.9,1.6.7v.5c0,0,1.2,1.1,1.2,1.1l1.7,1.2,2.2-.4v2.4c.1,0,2.8,1.5,2.8,1.5l.2,1.4,1,.2,1.3.9.5-.2v.5c0,0,2.3,1.3,2.3,1.3l-1.1.8v1c-.1,0-2.7,3.4-2.7,3.4h.5c0,0,.8.5.8.5l.9,1.4v.4l.8.7v.5c0,0,.5.2.5.2l.2.6,2.1.9-3.3,4.2.5.8,1.2,1.2.9,1.4-.3,2.9,2.2,5.4-1.7,9.6,1,4-2,1.5-.3,1.4.9.5v.4c.1,0,2-.2,2-.2l.8,2.1,1.1.7v.4c.1,0-.1,1.2-.1,1.2h.3c0,0,0,.4,0,.4l-.3.4.5,1.1-1.1,1.6v1.8c-.1,0-.4.6-.4.6l-.4.3-.6,1.8v3.1c0,0-.2,1-.2,1l1.3,2.2,1,.8.9,2.3,1.4,1.7.7.5.9.3.6.7.3,1.1-.5.8.2.7-.5,1.1-.4.3h-.5c0,0-1.1.4-1.1.4l5.5,8.8,3.8,1.8,9.2,7.1v.3c0,0-1.6,1.4-1.6,1.4l-.7,1.1-1.2.7-.6.7h-1c0-.1-1.6.4-1.6.4l-.3.5-.5,1.9-.9.7.5.7-.4,2.4.2,1.8-2,1.5.4.3,2.4-.7,1.2.5.4,1.1.5.3v.7s-1,.3-1,.3l-.6.7-1.7.3-.6-.4-1.8.2-1.2-.4-.7.2h-1.4c0,0-2-.3-2-.3l-.7-.3-2.6.5-3.6-.9h-1c0,0-3.8-1.2-3.8-1.2h-1.6s-.8-.7-.8-.7h-.8l-.2.4-.6-.3h-.8s-.7-.6-.7-.6l-.9-.3-3,1.1-2.4.4h-.6s-3-1-3-1l-.9.5h-5.5c0-.1-2.8.4-2.8.4l-1.8,1.3-2.2-.2-2.2.3-3.1-.2-2.1.2-1-.4-.7,1-.3,2.6,1.6,2.6.2,1.3,1.2,2,.2,1-.2.9.8.9v.6c0,0-5.8,1.3-5.8,1.3v.2s-8.9,1.9-8.9,1.9h0l-1.1-7.6v-2.2c0,0,.4-3.8.4-3.8l1.4-2.7-.3-1-1.2-.4-5.9-.9-3.2-.3-2.5.4h-1.3c0-.1-.6-.5-.6-.5v-.6c0,0,.5-1.3.5-1.3l-.6-.8-1.2-.4-1.1-1-.7-.3h-1.6s-.9-.4-.9-.4l-.8-3.5-4-8-1.1-1.4-1.2-.5h0v-.7c-.1,0,1.7-2.9,1.7-2.9l2-2.2,3-5.7,1.7-2.8,2.7-2.7,1.7-1,4.3-.5h3.5s3.2.6,3.2.6h2.4c0-.1,2-.5,2-.5l3.8-1.6,1.5-.3,2.2-.8.7-1.1.3-1.7-.5-1.4-2.7-3.2-1.4-2.3-2.4-2.2-2.2-1.4-.7-1.3v-.8s.8-1.9.8-1.9l2.2-2.4,1-1.5.7-2.6h0v-1.9c0,0-1-2.1-1-2.1l-2.4-3.3-1.6-1.2v-1.9c.1,0,.4-.6.4-.6l3.4-1.3.9-.6,1.3-2.8v-.6s-1.5-1.2-1.5-1.2l-.2-4.1-1.6-1-1-1.1-.6-.8v-.8c-.1,0,.2-.3.2-.3v-.4c-.1,0,.2-.7.2-.7l2.1-1.1.4-.7.8-.2.2-.5-.2-.9h1.2c0,0,.6-2.3.6-2.3v-1.3c-.1,0,1.9-1,1.9-1l1.9.8.3-.2v-.6c0,0-1.4-.7-1.4-.7l.6-1.6v-.4c-.1,0-1.5-.5-1.5-.5l-.5-.6-1.7-1h-1.1s-1.2-1.6-1.2-1.6l-.7-.4h-4.3c0,0-.4.2-.4.2v1.1s-.5,1.1-.5,1.1l-2.2,1.3-1,1.2-1.1-.4v.9c0,0-.8.3-.8.3l-.8,2.7h-.6s-1.7-.6-1.7-.6l-.3-.3v-.9c0,0-.6-.7-.6-.7l-1.7.6v-.3c-.1,0,.6-.7.6-.7v-.6c.1,0-.3-1.7-.3-1.7l.2-.2h1.3s.5-.2.5-.2v-.5c0,0-.9-.4-.9-.4l-.3-.5.8-1.4v-1.2c.1,0-.3-.8-.3-.8l.4-.6-.4-.4-1.5.2-1.4-.9-1.8.2-.3-.4.5-.4v-.2c-.1,0-1.6.2-1.6.2l-.3-.2v-.8c0,0-.6-.3-.6-.3v-5c.1,0-.1-.4-.1-.4v-2.1s-.3-1.5-.3-1.5l.5-2.6-.3-1.2h0l1.2-.8.7-2.2,1.4-.6h1c0,0,.4.8.4.8l2.6,1.8,1.9.4,1.5.8,1.3-.3.8.6,3.1.3,1.1-.8,1.6-.3.7-.4h.4c0,0,.3-.2.3-.2l.9.2,1.2-1.2.8-1.4,1,.6,1.3-.9,1.8-3.4v-.7s0-.3,0-.3l.5-.7v-.7c0,0,1.1-.2,1.1-.2Z"/>
    <path id="MA-05" class="cls-1" d="M570.2,77l1.4,1.5,1.2-.5.6.8,1.6-.6h1.1c0,0,.3-.3.3-.3l.8.2.7-.7,1.4-.5,1.6.3.4.3v.7s.3,0,.3,0l1-.8h.4s-.2.4-.2.4v.3c.1,0,.5,0,.5,0l.4-.6,2.8.2.4.7-.5.6.2.4.6-.2.6-.6h.4c0,0,.6.9.6.9h-.9c0,.1-.1.5-.1.5l.6.4v.7s1.7,0,1.7,0l.8-.4.5.2.2.6v1.3c-.1,0,.4,0,.4,0l.8-.3.3,1.1-.2.8.8,1.5,1.2.3.4.4h1.3c0,0,.9.8.9.8h1.2c0,0,.5.4.5.4v.6c0,0,.6.9.6.9v.6c.1,0,0,2.9,0,2.9l1,1,1.2.5,1.2.2,1.2,1h.5c0,.1,2.5-1.7,2.5-1.7h.8s.9.7.9.7h.9s.2.2.2.2l.5,1.8h.5c0,0,.4.4.4.4h2.2c0,0,.4.2.4.2l-1.8,1.1-.8,1.4-.2,2.8.9,1.5,1.2-.8h.6c0,0,.7,0,.7,0l.9.5v.7c0,0-1.3,1.8-1.3,1.8l1.4,1.7,3.6-.3,1.2-.8,2.8-1.3.7-1.2.3-.2.2-1.2,1.3-.8,1.2-1.3.3-.7,1.3-.5,1.3-1.1,1.8-3.3.9-.5.5-1.4h.5c0-.1.5-.1.5-.1l.4.8.9.4.3.4.8.2,1.6,1.9.5.3,2.9.6,2.5,1.8,1.3.5,3,.5h0l-.7,2.6-1,1.5-2.2,2.4-.8,1.9v.8s.6,1.3.6,1.3l2.2,1.4,2.4,2.2,1.4,2.3,2.7,3.2.5,1.4-.3,1.7-.7,1.1-2.1.8-1.5.3-3.8,1.6-2,.4h-2.4c0,.1-3.2-.4-3.2-.4h-3.5s-4.3.4-4.3.4l-1.7,1-2.7,2.7-1.7,2.8-3,5.7-2,2.2-1.9,2.9v.7h.1l-1.2.5h-1c0,0-2.5,0-2.5,0l-1.3-.3-1,.2-.8-.3-.3-.5v-2.8c-.1,0-3.2-3.1-3.2-3.1l-1.4-.9-.8-1.8-.6-.6-.5-.3-2.3-.2-4.1.6-1.5-.6-1.3-1-.3-.8v-1c0,0,.5-.7.5-.7v-.7c.1,0-3-3.6-3-3.6l-1.8-5.6-1.2-2.8-2.1-1.9-.6-1.2v-.8c-.1,0,.1-.7.1-.7l3.5-5,.3-.9-.2-1.3-1.4-1.5-1.9-1.6-3.3-.4-.8-.5-.4-.8v-.9s1.5-4.1,1.5-4.1l-.2-2-1.1-1.8-.8-.5-.7-2.8-2-.6h-1s-.5-.6-.5-.6l-.6-1.4-.4-.3-.9-.2-1.1.5-.5-.2-.3-1.9.2-2.7-.2-1.9-.4-1.3-.4-.4h0l-.9-1.3v-1Z"/>
    <path id="MA-06" class="cls-1" d="M571.1,79.3l.4.4.4,1.3.2,1.9-.2,2.7.3,1.9.5.2,1.1-.5.9.2.4.3.6,1.4.5.6h1s2,.5,2,.5l.7,2.8.8.5,1.1,1.8.2,2-1.6,4.1v.9s.4.8.4.8l.8.5,3.3.4,1.9,1.6,1.4,1.5.2,1.3-.3.9-3.5,5-.2.7v.8c.1,0,.7,1.2.7,1.2l2.1,1.9,1.2,2.8,1.8,5.6,3.2,3.6v.7c-.1,0-.5.7-.5.7v1c0,0,.2.8.2.8l1.3,1,1.5.6,4.1-.6,2.3.2.5.3.6.6.8,1.8,1.4.9,3.1,3.1v2.8c.1,0,.4.5.4.5l.8.3,1-.2,1.3.3h2.5s1,0,1,0l1.2-.5h0l1.2.5,1.1,1.4,4,8,.7,3.5.9.4h1.6s.7.3.7.3l1.1,1,1.2.4.6.8-.6,1.3v.6c0,0,.6.3.6.3h1.3c0,.1,2.5-.3,2.5-.3l3.2.3,5.9.9,1.2.4.3,1-1.4,2.7-.5,3.7v2.2c0,0,1.2,7.6,1.2,7.6h0l-13.6,3v9.2l.6.3-.5.6-.4-.3-.2.6-1.1.3v.5c0,0-.4.3-.4.3h-.4c0,0-.2-.7-.2-.7h-.3c0,0-.3.5-.3.5v.3c.1,0-.2.2-.2.2v.9c0,0-.7.7-.7.7v.2c.1,0,.4-.2.4-.2l.2.5.4-.2v.7c0,0-.9.6-.9.6v.3c.1,0-.3.2-.3.2l.3.6h.3c0,0,.2,1.5.2,1.5l.3.2-.6,1.3.2,1.1.4-.2h.6s.4.3.4.3l.2-.7-.3-.4.8-.3v-.5c-.1,0,.3-.4.3-.4l.3.4h.5c0,0,.3.6.3.6v1.2c0,0-.3,1.3-.3,1.3h.4c0-.1,0-.6,0-.6l.7.4.3-.3-.3-.4v-.8s-.3-.2-.3-.2l.4-.3v1.2c0,0,.3.2.3.2l.5-.5v.8c0,0,.4.2.4.2v.9c0,0,.5,0,.5,0v.6s.6.6.6.6v-.3c0,0,.5,0,.5,0v-.5c0,0,.2-.1.2-.1v.9c0,0,.1.3.1.3l.2-.3v2.6c.1,0-.2.4-.2.4h.3s0,.3,0,.3l-.6.3.2.4h-.2c0,0,0,.4,0,.4l-.5-.2v.5s-.4.1-.4.1v.4c.1,0-.2.5-.2.5h-.4s-.4,1.1-.4,1.1h-.3s-.3,0-.3,0l-.6.8v1.6c-.1,0-.5.3-.5.3l.2,1.2.5-.2.5.3.4,1.3-.5.2-.4,1-6.9,2.9-5.1,1.4-5.1.3-5.9,2.2-9.7,9.6-11.2,5.6-6.2,5.2h0l-1.2-3.4-.5-.3-.9-1.2-.3-1.7-.4-.9.2-3v-4.9c0,0,.3-2,.3-2v-6.4s-1.7-2.3-1.7-2.3l-.2-.8-1-1.3-1.8-3.1-.6-3v-1.2c0,0,.9-5,.9-5l.8-6,1.4-3.3.8-3,.2-2.4-.2-1.2-.4-1-1-1.1-.8-.5-2.6-.8-2.5-1.5-.9-1.6-.5-.4-4.7-1.3-2.4.6-2.4-.3-.4-.4.4-1.2,7.7-8.2.9-1.9-.4-.5-4.6-3.2h-.8s-2.2,1.5-2.2,1.5l-1.3.3h0l.2-.7-.3-1.2-.8-.3-.3-.7.2-.6.8-.3-.2-1.4.9-.6v-1.4s.8-.7.8-.7h1.2c0,0,.7-.7.7-.7l.5-.7.2-1.2.3-.3.8-.4,2.1-.4,1.7.4.6-.4.2-1-.9-.8.8-1.8-.4-.7.6-.9v-.9c.1,0,.9-1.1.9-1.1l-.9-2-1.2-1.8-.4-1.3-2-.2-.3-.5-1.4-1-1-.2-1.1,1h-.9c0,0-.4-2.4-.4-2.4l-.3-.7-.7-.4-.7-1h-.7c0,.1-.6-.1-.6-.1l-.6-1.2-1.5-.9-2.1.3-.4-.2h0l-.3-.6.2-1.1-.3-.4v-.3c0,0,.8-.5.8-.5l-1.2-1.6-.2-1.1-.7-.3-1.6.7h-.6s-.5-.4-.5-.4v-1.5c0,0,1.6-.3,1.6-.3l.6-.4v-.6c0,0-.3-.4-.3-.4l-1.5-.6-.3-1.5-1.9-.9-1.6-1.5-1.3-.4-.4-1.1-3.3-1.1-.3-.6v-.7c0,0,.5-.7.5-.7l.6-.5v-.6h.1l-.9-1.7.7-1.6-.4-.6.4-1.6.5-.4,2.1-.5h.9s1,.6,1,.6h.5c0-.1.5-.7.5-.7l.5.3.4.8.4.2h.8c0-.1.3.1.3.1v.7s.3.4.3.4v2c.1,0,.6.7.6.7h1.4c0,.1.4.6.4.6h.7c0,.1.7-.2.7-.2l1.3-1.6,1.3-.4,4.2,1.2.8-.3.6-1.2v-1.1c0,0-.5-1.4-.5-1.4v-3c-.1,0,.3-4.4.3-4.4l.6-2.5.5-5v-1.5c0,0-.5-.6-.5-.6l-.9-.6-.3-.6v-.8c0,0,.3-.9.3-.9l-.6-.3-.7.2-.2-.5v-.9s1.9-1.7,1.9-1.7l-.3-1.5-2.2-1.8-.4-.7v-2h-.1l-.6-2.1-.4-.2h-.7c0,.1-.4-.9-.4-.9l.3-.3,1.3-.2.5-.3.4-.5v-1.1c0,0,1.2-.9,1.2-.9h1.2c0,.1.4.7.4.7h1.2c0,.1.4.7.4.7l-.7,1.4.2.6.8.2,1.2-.2,2.1.3.5.4v.8c.1,0-.1.6-.1.6l.3.7.5.2,1.3-1.7,2-.6-.7-.9.2-.5.8-.4.7-.9v-1.6c.1,0,1.1,0,1.1,0l.4-.4Z"/>
    <path id="MA-07" class="cls-1" d="M526.7,82.6l.5.9h1.6c0-.1.7.8.7.8l.6.3h1.4c0,0,.4.3.4.3l3.1-1.4,3.4.8,5.9-.5,6.2,1.9h1.4s1.7.5,1.7.5h1.9c0,0,.1,2.1.1,2.1l.4.7,2.2,1.8.3,1.5-1.8,1.7v.9s.2.5.2.5l.7-.2.6.3-.3.9v.8c0,0,.3.6.3.6l.9.6.4.6v1.5c0,0-.4,5-.4,5l-.6,2.5-.4,4.4v3c.1,0,.7,1.4.7,1.4v1.1c0,0-.7,1.2-.7,1.2l-.8.3-4.2-1.2-1.3.4-1.3,1.6-.7.3h-.7c0-.1-.4-.6-.4-.6h-1.4c0-.1-.5-.8-.5-.8v-2c-.1,0-.4-.4-.4-.4v-.7s-.3-.3-.3-.3h-.8c0,.1-.4,0-.4,0l-.4-.8-.5-.2-.5.6h-.5c0,.1-1.1-.5-1.1-.5h-.9s-2.1.5-2.1.5l-.5.4-.4,1.6.4.6-.7,1.6.9,1.7h0l-2,1.1h-.7s-1.4.9-1.4.9l-.9,1.7-.5.3-1.4-2-1.3-.9-2.7.2-.7.3-1.6-.7-1.2.6-1.9-.9.4-1-.4-2.5v-.6c.1,0,1-1.1,1-1.1l.2-1.1-1.1-1.6-.4-1.1v-.9s2.1-3.3,2.1-3.3l.3-1.5h-.9c0,0-.5.3-.5.3h-2.4c0,.1-.3-.4-.3-.4l-.7-.3-.7-1.1-1.2-.5h-.5v.4s-.5,0-.5,0l.3-1-1.1-1.8v-1.8s-.3-1.1-.3-1.1l-.8-1.3h-1.5c0-.1-.5-.9-.5-.9h0l2.1-1.7h.4c0,0,.9-.3.9-.3l.9-.8v-.2s.7-.3.7-.3v-.4c0,0,.6-.2.6-.2l.3-.5,1.4-1.2,2.6-3.1,1.8-2,2.5-4Z"/>
    <path id="MA-08" class="cls-1" d="M505,101.7h0,0ZM503.4,101.6v.6h.8s.4-.1.4-.1l.4-.3h0v.5s-.9,1-.9,1l.4.9-1.3.3.3.4-.4.9.2.2-.2.8.5.5-.4,1.1.3,1,.6.4.3,1.1-.4.2-.4-.2-.2.5-.7.2.5,1-1.6.2v.5c0,0-1,.2-1,.2l-1.8,1.4-.4,1.6-.8,1.5h-.8s-.5-.2-.5-.2l-.6-2,1.2-.6,1.9-.6h-.2c0-.1-1.5-.7-1.5-.7h-1.2c0,0-.6.3-.6.3l-.5-.6-1.5.7-.2-.8-1-.4-.4-.6-.7.3-.4-.3-.7.3-.6-.6h-.5c0,.1-.7-.1-.7-.1l-1,.4-.8-.8-.2-.7h0l2.2-1.3.3-.4.2.4h.5s.3-.2.3-.2h0s1.2-.7,1.2-.7l1.5-.9.2-.6h.4c0,0,.5-.4.5-.4h.6c0-.1.4-.7.4-.7l.3.4.3-.3h.6c0,.1,0,.1,0,.1l.3.2v-.2h0c0,0,.3.3.3.3v-.4s.3.3.3.3l1.1-.6,1.1-.2,2.7-2.2v-.2c.1,0,.9-.5.9-.5l.7-1Z"/>
    <path id="MA-09" class="cls-1" d="M512.6,97.2l.5.8h1.5c0,.1.8,1.5.8,1.5l.3,1.1v1.8s1.1,1.8,1.1,1.8l-.3,1h.5s0-.3,0-.3h.5l1.2.5.7,1.1.7.3.3.6h2.4c0-.1.5-.5.5-.5h.9c0,0-.3,1.6-.3,1.6l-2.1,3.3v.9s.5,1.1.5,1.1l1.1,1.6-.2,1.1-.8,1.1v.6c-.1,0,.3,2.5.3,2.5l-.4,1,1.9.9,1.2-.6,1.6.7.7-.3,2.7-.2,1.3.9,1.4,2,.5-.3.9-1.7,1.4-.9h.7s2-1,2-1h0v.6c-.1,0-.8.5-.8.5l-.4.7v.7c0,0,.2.6.2.6l3.3,1.1.4,1.1,1.3.5,1.6,1.5,1.9.9.3,1.5,1.5.6.3.4v.6c0,0-.6.4-.6.4l-1.5.3v1.5c0,0,.4.4.4.4h.6s1.6-.7,1.6-.7l.7.3.2,1.1,1.2,1.6-.7.5v.3c0,0,.2.4.2.4l-.2,1.1.3.6h0l-.9.8-.5.9-1.3.8-3.4.3-2.5,1h-3.6c0,0-.6-.1-.6-.1l-1.9.2-1.4-.6-1.9-.4-1.7.3-.5.5h-.5c0,.1-.2.5-.2.5l.4.4-.2.4-1.6-.2-1-.5h-1.7c0,0-1.1-.6-1.1-.6h-.4c0,0-.3.6-.3.6l-1.4.2-1.1,1-1.6.6h-.8l-.8-.8-.8-.2v.5c.1,0-.3,1.1-.3,1.1l-.2,3.6-1.6,4.3-1.9,2h0l-.5-.7h-1.3c0-.1-.6-1.1-.6-1.1l-1-.3-1.2-1-2.2-.3-1.5-2.1h-2.6c0,.1-1,.7-1,.7l-.4-.3-.3.2v.7s-1.5,1-1.5,1h-1.1c0,0-.7-.4-.7-.4l-.3.4h-.3l-1-1.6-.9-2.3-.5-.8-.9-.4-1.2-2.9-.5-.6-.5-.3h-1.1c0-.1-.9-1-.9-1l-3.1-1-.2-1-1.5-2.1-.5-1.5h-.7s.5-.6.5-.6v-.2s-.8,0-.8,0v-.4c0,0,.7-.4.7-.4l-.2-.2-.7-.2-.7.6h-.9s.9-.8.9-.8l-.8-.4.2-1.2.3-.3-.8-.8.7-.3-.2-.4-.6-.3.5-.3v-.5c-.1,0,.4-.5.4-.5l-.5-.6.2-.2h.5s0-.3,0-.3l-.7-.8.3-1.9-.2-.2-.6.3-.3-.2.4-.6-.9-.7v-.7c0,0-.5-.1-.5-.1l-.2.3h-.2v-.4l-.4-.4v-.3c0,0,.9-.1.9-.1l.6-1,.2-1,.6-.3.8.3h1.2c0,0,.5-.8.5-.8l-.8-.4,1.4-.6,1.1-1.5-1-.3-.2-.9h-.4c0,.1-.3-.2-.3-.2l1-.7-.6-.6.7-1.2-.4-.3-.2-.7-1.3-1.7h0l1.4-.8h1c0-.1,1.4-.8,1.4-.8h0l.2.7.8.8,1-.4.7.2h.5c0-.1.6.5.6.5l.7-.3.4.3.7-.3.4.6,1,.4.2.8,1.5-.7.5.6.6-.4h1.2c0,0,1.5.7,1.5.7h.2c0,.1-1.9.7-1.9.7l-1.2.6.6,2,.5.2h.8s.8-1.5.8-1.5l.4-1.6,1.8-1.4.9-.2v-.5c0,0,1.6-.2,1.6-.2l-.5-1,.7-.2.2-.5.4.2.4-.2-.3-1.1-.6-.4-.3-1,.4-1.1-.5-.5.2-.8-.2-.2.4-.9-.3-.4,1.3-.3-.4-.9.9-1v-.5h0v-.2h.2c0,0,.1-.4.1-.4l.9-.5,1.7-1.6.6-.2.3-.4h.3s0-.3,0-.3h1.5c0,0,.5-.5.5-.5h.3s.5-.5.5-.5l.3.3.3-.4Z"/>
    <path id="MA-10" class="cls-1" d="M482.7,112.2l1.3,1.7.2.7.4.3-.7,1.2.6.6-1,.7.3.3h.4c0-.1.2.7.2.7l1,.3-1.1,1.5-1.4.6.8.4-.5.7h-1.2c0,0-.8-.2-.8-.2l-.6.3-.2,1-.6,1h-.8c0,.1,0,.4,0,.4l.4.4v.3h.2c0,0,.2-.3.2-.3h.5c0,.1,0,.8,0,.8l.9.7-.4.6.3.2.6-.3.2.2-.3,1.9.7.8v.3s-.6,0-.6,0l-.2.2.5.6-.5.5v.5c.1,0-.4.3-.4.3l.6.3.2.4-.7.3.8.8-.3.3-.2,1.2.8.4-.9.8h.9s.7-.6.7-.6l.7.2.2.2-.7.4v.4c0,0,.7,0,.7,0v.2s-.5.5-.5.5h0l-.7.2-.8.9-.2,1,.4,1-.3.4v.6l-1.2,1,.2.4-.2.7,1,1.5.2,1-.2,1.1-.2.2-.4-.2-1.2,1.7-.9.6-.5.7-1,.5-.5.6h-2.1s-.6.5-.6.5v1.4s-.2.3-.2.3h-1.5s-1,.4-1,.4l-.7,1.2-2.6.8-.3,1.3v.8c.1,0,1.2,2.6,1.2,2.6l1.4,2,1.4,1.2,1.2.2,2.1,1.1,1.4,1.2v.6c.1,0,0,.7,0,.7l-.4-.6h-.6c0,0-.1,1.7-.1,1.7l-1.3.8-1.5,1.3-1.3,2.3-.2,1.3-.8,1v.6c-.1,0-1.7,1.9-1.7,1.9l.6,2.1h.6c0,.1,1.1,1.6,1.1,1.6l-1,.4h-.5c0,0-1.1-.9-1.1-.9l-2.5,1-1.8-.6-.7-1.1-1-.6-2.9.4-.5.3-.8-.4h-.5c0,0-.7,1-.7,1h-.3c0,0-.3-.5-.3-.5l-.5.7h-.4c0,0-1.2-1.1-1.2-1.1l-.9.4-.4-.3v-.8s-2-.5-2-.5l-.3-.6-1.9-1.1-.5-2.2-.6-1-1.8-.6-4.4-.4-2.4.4-1.9-.2-3.3-1.2h0l2.7-3.1.4-.3h0c0-.1.1-.7.1-.7h-.2s.6-.7.6-.7l.2-1.9,2.1-2.5.3-1v-.9s-.4-1.1-.4-1.1l.7-1.9v-.3c0,0-.2-.5-.2-.5l-1-.4-.3-1.4.2-.5,1.3-1.6.6-2.4-1.1-1.1-.3-1-.5-.6,5.6-4.8,2.6-3.1.2.2.3-.4h-.4c0,0,4.7-3.8,4.7-3.8l3.7-4.1.4-.6.8-.8h.4l.3-.6h-.3c0,0,0,.4,0,.4h-.5s1.4-1.6,1.4-1.6l.5-.3v-.3s.7-1.2.7-1.2l1.7-1.9v-.3c.1,0,.2-.3.2-.3v-.3c.1,0-.7.4-.7.4l.4-.4.7-.2-.6-.9.2-.4,1.3-1.5,1.1-.6v-.4c-.1,0,.3-.6.3-.6l1.2-.9h.3c0,0,.2.4.2.4l-.2.2.4.3,1.5-.3,1.7-1,1.5-1.4.6-.3,1.1-1.9,3.1-.8,1.1-.8,1.7-.4,4.2-1.9Z"/>
    <path id="MA-11" class="cls-1" d="M483.3,138.2h.7s.5,1.6.5,1.6l1.5,2.1.2,1,3.1,1,.9.8h1.1c0,.1.5.5.5.5l.5.6,1.2,2.9.9.4.5.8.9,2.3,1,1.6h.3l.3-.4.7.5h1.1c0,0,1.6-1.1,1.6-1.1v-.7s.3-.2.3-.2l.4.3,1-.6h2.6c0-.1,1.5,2,1.5,2l2.2.3,1.2,1,1,.3.6.9h1.3c0,.1.5.8.5.8h0v2.2c0,0-.3,1.3-.3,1.3l.7,3.1-.4,1.4.4,3.4,1,1.6,1.2.5.4,1.6-.8.9v.6c0,0,.3.5.3.5v.7c-.1,0,1.6,2.1,1.6,2.1l-.3.4h-.8c0,0-.2.7-.2.7l.3,1.4-.6.5-1.6-.3-2.2.5-1.4-.7h-.9c0,0-.8,0-.8,0l-1,.6-.6.8v2.5s.3.6.3.6l1.4.8-.2,1.4.6.4.4-.3,1.7-.3h.7c0,.1.2.9.2.9v1.3c-.1,0-1.2,3.1-1.2,3.1v1.1c-.1,0,0,1.2,0,1.2l.4,1.1h0l-2,.6-.9.6-1.8,2.5-2.3.5-3.1.2-1.7.8-2.8,2.9-.9.6-1.3.3h-2s-1.9,1-1.9,1l-2.8,2.6-2.4,1.3v.3c-.1,0,.2.5.2.5l-.3,1.1-2.8,2.5-2.3,1.3h-.5c0-.1.1-1.4.1-1.4l-1.1-.9-2.8,1.3-1.2.3-3.5.6-1.6-.4-.7.2-1.1,1.2h-5.5c0-.1-1,0-1,0l-1.2,1.1h-1.2c0,.1-.9-3.1-.9-3.1l-.6-.7-1.3-.3-.4-.9h-.6c0-.1-.7,0-.7,0l-1.3,1.6-1,.7-3.7,1.6-.8,1.3-.8.4-3.1-.5-1.8.8h-1.7s-1.1.7-1.1.7l-1.9-.2-.8-.7-2.2.2-.6.4h-.9c0,.1-1.2-.5-1.2-.5l-1.1-.3-.2-.2.2-.9-.3-.3-1.2,1.8-1,.4-1.7-.7-.8.3h-1.9c0,0,.1-.3.1-.3l-.8-2-2.5-2.6h0l-.2-.5v-.5c0,0,.6-1.2.6-1.2l-.3-.8v-1.1s-.3-.2-.3-.2l.3-1.3-.9-.5.3-.7-.2-.6.3-.8v-.3c-.1,0,.5-1.1.5-1.1l-.3-.3v-1.5c0,0,.9-1.7.9-1.7v-1.6c.1,0,0-1.3,0-1.3l-.4-.9-.3-.3h-.8c0-.1.3-1.2.3-1.2l1.1-1.2.9-1.7h.2c0,0,.1-.8.1-.8h-.5c0,0,1.4-1.3,1.4-1.3l1.7-2.5.4-1.4v-2.5c-.1,0,1.3-1.2,1.3-1.2l1.7-2.5,1-.8,1.3-1.8,2.9-3.3h0l3.3,1.2,1.9.2,2.4-.4,4.4.4,1.8.6.6,1,.5,2.2,1.9,1.1.3.6,2,.5v.8s.4.3.4.3l.9-.4,1.2,1h.4c0,0,.5-.7.5-.7l.3.5h.3c0,0,.7-1,.7-1h.5c0,0,.8.3.8.3l.5-.3,2.9-.4,1,.6.7,1.1,1.8.6,2.5-1,1.1.8h.5c0,0,1-.3,1-.3l-1.1-1.5h-.6c0-.1-.6-2.2-.6-2.2l1.6-1.9v-.6c.1,0,1-1,1-1l.2-1.3,1.3-2.3,1.5-1.3,1.3-.8v-1.8c.1,0,.7,0,.7,0l.4.6v-.7s0-.6,0-.6l-1.4-1.2-2.1-1.1-1.2-.2-1.4-1.2-1.4-2-1.1-2.6v-.8c-.1,0,.1-1.3.1-1.3l2.6-.8.7-1.2,1-.4h1.5s.2-.3.2-.3v-1.4s.5-.5.5-.5h2.1s.5-.6.5-.6l1-.5.5-.7.9-.6,1.2-1.7.4.2.2-.2.2-1.1-.2-1-1-1.5.2-.7-.2-.4,1.2-1v-.6l.3-.4-.4-1,.2-1,.8-.9.7-.2Z"/>
    <path id="MA-12" class="cls-1" d="M550.5,140.4l.4.2,2.1-.3,1.5.9.6,1.2.6.3h.7c0-.1.7.8.7.8l.7.4.3.7.4,2.3h.9c0,0,1.1-.9,1.1-.9l1,.2,1.4,1,.3.5,2,.2.4,1.3,1.2,1.8.9,2-.8,1.1v.9c-.1,0-.7.9-.7.9l.4.7-.8,1.8.9.8-.2,1-.6.4-1.7-.4-2.1.4-.8.4-.3.3-.2,1.2-.5.7-.7.6h-1.2c0,0-.8.8-.8.8v1.4s-.9.6-.9.6l.2,1.4-.8.3-.2.6.3.7.8.3.3,1.2-.2.7h0v1.2c0,0,.2.7.2.7v.8s-.4.6-.4.6l-1.6,1.3v.5c-.1,0-1.8,0-1.8,0l-1.3,1.7-3.2,1.4v1.7c0,0-.5.9-.5.9h-1.3s-.7.3-.7.3l-1.4-.3-1.3.8-.8,1.2-5.4,2.1-5.1,3.2-2.1.7-1.7-.4-1,.5-1.6.2-1,1.2v.7c-.1,0,.4,1.5.4,1.5l-.5.5-.7,2.1-.7-.2-.8.3-.4-.7-1.7.2-1,.5-5.5-1.6h-2.4s-.4-1.1-.4-1.1v-1.2c0,0,0-1.1,0-1.1l1.1-3.1v-1.3c.1,0,0-.8,0-.8h-.7c0-.1-1.7.2-1.7.2l-.4.3-.6-.4.2-1.4-1.4-.8-.3-.6v-2.5l.6-.8,1-.6h.8c0-.1.9,0,.9,0l1.4.7,2.2-.5,1.6.3.6-.5-.3-1.4.2-.6h.8c0,0,.3-.5.3-.5l-1.7-2.1v-.7c.1,0-.3-.5-.3-.5v-.6c0,0,.9-.9.9-.9l-.4-1.6-1.2-.5-1-1.6-.4-3.4.4-1.4-.7-3.1.3-1.3v-2.2h0l1.9-2,1.6-4.3.2-3.6.4-1.1v-.5c-.1,0,.6.2.6.2l.8.8h.8l1.6-.6,1.1-1,1.4-.2.3-.6h.4c0,0,1.1.4,1.1.4h1.7c0,0,1,.6,1,.6l1.6.2.2-.4-.4-.4.2-.3h.5c0-.1.5-.6.5-.6l1.7-.3,1.9.4,1.4.6,1.9-.2.6.2h3.6c0,0,2.5-1,2.5-1l3.4-.3,1.2-.8.5-.9.9-.8Z"/>
    <path id="MA-13" class="cls-1" d="M557.3,171.4l1.3-.3,2.2-1.6h.8s4.6,3.2,4.6,3.2l.4.5-.9,1.9-7.7,8.2-.4,1.2.4.4,2.4.3,2.4-.6,4.7,1.3.5.4.9,1.6,2.5,1.5,2.6.8.8.5,1,1.1.4,1,.2,1.2-.2,2.4-.8,3-1.4,3.3-.8,6-1,5v1.2c0,0,.7,3,.7,3l1.8,3.1,1,1.3.2.8,1.7,2.3v6.4s-.3,2-.3,2v4.9c0,0-.1,3-.1,3l.4.9.3,1.7.9,1.2.5.3,1.2,3.4h0l-.7.2-3.5,2.6-.4.7-1.1.7-1.4,2.4.2,1.5-.5,1.1-6.9,9.8-.6.2.3.4-.4.8h-.2c0,0-.4-.4-.4-.4h-.9s-.8-.5-.8-.5h-.7c0-.1-1.3-1.5-1.3-1.5l-.9.8h-1.2c0,0,.2-1.1.2-1.1l.7-1v-.5s-.7-.6-.7-.6l-1.8-.5-2.2.3-.6.5-2.6.2-2,.7h-.7s-.8.4-.8.4l-3.5-.8-1.9.2v.2l-.9.3-1.4-.2h-2.9c0,.1-.4.4-.4.4v.4c-.1,0-.4-.4-.4-.4h0v-1.1c.1,0-.2-2.5-.2-2.5l.5-3.5-.2-3.2.7-3.3-.2-5.8-1.4-3.3-5.2-8.2-1.5-1.6-1.7-.9h-.9c0,0-.7.3-.7.3l-1,.9-1.7,2.3-.9.3-1.7,1h-1.7l-3.2-1.5-1.4-.2-.5.2-1.5,1.7-1.5,3.5-.6,2.9-.8.6-5.2-.2-1.7-.3-1-1-.3-2.1-.3-.6-.5-.6-2.6-1.7-1.5.8-1.3,1.2-1,1.9v.8c-.1,0,.9,4.9.9,4.9v.6c0,0-.7.8-.7.8l-.5.3h-1.9c0,0-2.5-.8-2.5-.8l-1.3.2-1.4.9-2.3,2.4-1.6.4-.5.4-1.3-.2-2.3-1-3.8-2.7-.9-.2-.7.2-1.1.9-1.1,2.7-.7,1-.7.4h-1.1s-5.5-2.7-5.5-2.7l-.9-.2h-1.5c0,0-1.2.3-1.2.3l-1.2,1.1v1.9c0,0,.7.5.7.5l1.4-.5h.9c0,0,.2.3.2.3l-.2,1.2-1.3,1.3-1,1.6-.3,1.3v4.7c-.1,0,.6,1.6.6,1.6l1.1.8.3.7-.4.8-7.5,2.2-.9.5h-2.3c0,0-2.1-.3-2.1-.3l-.5.3-.8.6-1.1,2.4-1.3,5.5v-.6c-.1,0-1.2-1.4-1.2-1.4l-.5-1.3-1.3-.7h-1.5c0,0-.9-.4-.9-.4l-1.4.4-.7,1.4-1.3,1-2.6.5-2.1,1.1-2.1.6-.5-.3-1.3.2-.3-.2-.9-1.5-1.1-1h-1.3c0-.1-.8.1-.8.1l-1,1.2-1.4,3.9-.4.4-1.3.5-1.4-.4-1.3.4-3.6,2.6h-1c0,.1-.5-.1-.5-.1l-.4-.7-.8-.2-1.6.3-3.7-.4-1.1.2h-.6c0-.1-1.6-1.4-1.6-1.4h0l.5-1.3.6-.3v-.7c.1,0,2.2-2.4,2.2-2.4l.4-.7,1.2-1,1.5-.8,1.2-1.2,1.1-2.5.9-1.3,1.2-1.1.7-1.6.7-.8.3-.5v-.7c-.1,0,.2-.2.2-.2v-.4s.3-.2.3-.2v-.4c-.1,0,.2-.1.2-.1v-.6s.5-.3.5-.3l.4-1,1.1-1.3.4-1,5.1-5,.2-.7,1.2-1.7v-.5c0,0,.9-1.4.9-1.4v-.6c0,0,2.3-4.8,2.3-4.8l.7-1h.1c0,0,0-.6,0-.6l.9-3v-1.4s1.2-6,1.2-6v-.2c.1,0,.3,0,.3,0l-.3-.5.3-.7-.2-.6-.4-.6v.2c-.1,0-.4,0-.4,0h-.2s-.5-.4-.5-.4v-.3s-.5-.3-.5-.3l-.6-2.1-.3-.3-.5-1.3-1.3-.4-.2-.9-1.3-1.4-1.4-.7h-1.4c0,.1-.7-.1-.7-.1l.4-2.4.9-1.2v-.5c0,0,1.5-3.2,1.5-3.2v-.8s-.3-.3-.3-.3l-.3.2v-.4c-.1,0,.5-1.7.5-1.7l-.4-.8v-1.6h0l2.5,2.6.8,2v.2c-.1,0,1.7,0,1.7,0l.8-.3,1.7.7,1-.4,1.2-1.8.3.3-.2.9.2.2,1.1.3,1.2.6h.9c0-.1.6-.6.6-.6l2.2-.2.8.7,1.9.2,1.1-.6h1.7s1.8-.8,1.8-.8l3.1.5.8-.4.8-1.3,3.7-1.6,1-.7,1.3-1.6h.7c0,0,.6,0,.6,0l.4.9,1.3.3.6.7.9,3.2h1.2c0-.1,1.2-1.3,1.2-1.3l1-.2h5.5c0,.1,1.1-1,1.1-1l.7-.2,1.6.4,3.5-.6,1.2-.3,2.8-1.3,1.1.9v1.3c-.1,0,.3.1.3.1l2.3-1.3,2.8-2.5.3-1.1-.3-.5v-.3c.1,0,2.6-1.3,2.6-1.3l2.8-2.6,1.9-.9h2s1.3-.4,1.3-.4l.9-.6,2.8-2.9,1.7-.8,3.1-.2,2.3-.5,1.8-2.5.9-.6,2-.6h2.4s5.5,1.7,5.5,1.7l1-.5,1.7-.2.4.7.8-.3.7.2.7-2.1.5-.5-.5-1.5v-.7c.1,0,1.1-1.2,1.1-1.2l1.6-.2,1-.5,1.7.4,2.1-.7,5.1-3.2,5.4-2.1.8-1.2,1.3-.8,1.4.3.7-.3h1.3s.4-.9.4-.9v-1.7c0,0,3.3-1.4,3.3-1.4l1.3-1.7h1.7c0,0,.1-.4.1-.4l1.6-1.3.4-.6v-.8s-.3-.7-.3-.7v-1.2Z"/>
    <path id="MA-15" class="cls-1" d="M354.2,318.9l-2.7,1.2h-.2c0,0-1,.4-1,.4l-6.1,3.2-5.1,1.3h-.8s-10.6,2.2-10.6,2.2l-8.5,1.1-1.4.4h-1.8c0,0-.5.5-.5.5l-.2.4-.8.3-.2.6-.6.6-.9,3-.6.5-.8,1.7-.7.6-1.4.6-1.8,1.2-1.1,2.6-1.1,4.5-1.7,4.9-.7,1.2v.8c-.1,0-3.6,6-3.6,6l-.3,2.1-.2.5.2.4-.4,1v.2s-1.4,3.6-1.4,3.6l-.9,3.3-1.1,2.7-1.5,2.6-1.5,1.6-2.1,1.7-8.2,4.9-2,1.7-3.5,1.4-3.5.4-.8,1.6-1.3,1.7-2.8,2.3-2.6.5-2.7,3.6-.6,1.4.5,1.3v2.2c0,0-.4,1.8-.4,1.8l-2.3,5.2-1.6,2.3-.8.6-.9,3.9-.7,1.7v1.3s-.4,1.5-.4,1.5l-.8,1.6-2.3,3.1-.2,1.7-1.2,2.9v1.6c0,0-.6,1.8-.6,1.8l.3,1.6-.3,1.3.3.9v.7c-.1,0,.3.3.3.3l.3.9-.2,2.8-.3,1.2.2,1.3-1.8,5.2-.2,1,.2,1.4-2.1,1.9-1.4.7-.2,1.3-.3.4h0l2.8.4,4.6,1.9,1.1.7,2,2.9,1.1.6,1.1.2,4.3-.7,7.2-1.8,7.3-.4,9,2.1,2.6,1.1,1.6.4,6-1.6,2.6-1.2,4.8-1.7,5.9-.5,10,2,7.4,2.5h3s8-1.7,8-1.7h5.6s1.8.4,1.8.4l2.1-.5h0v-57.7h-15c0,0-.5-3.3-.5-3.3l-.6-1.9-.3-2.3-.6-2.3-.8-1.1-.2-1.6-1.2-3.4-.3-1.4v-1.5c0,0,.8-2.6.8-2.6l1.7-3.4,2.9-3.5,3.4-3.3,2.1-2.6,2.3-6,1.8-3.3,1.5-6.5,1.4-3.6,4.5-6.6,2.6-2.3,1.8-1.1h7.1s-.5-2.9-.5-2.9l1.1-.3h2.9s-2.9-3.4-2.9-3.4l-1.6-2.6-1.1-3.4-2.4-2.5-2.1-5.5h-.2c0,.1-.3.2-.3.2Z"/>
    <path id="MA-14" class="cls-1" d="M397.7,287.4l-3.9,2.7-5.4,3.2-7.5,4-1.2.4-1.2.8v.4s-1.3,1.7-1.3,1.7l-.7.3-1.1,1.3-1.5,1.1-1.4,1.8-1.8,1.4-1.6,1.9v.4s-1.3,1.2-1.3,1.2l-.6,1.3-1.2,1.1-.7,1.5-2.1,1.4-.2.4.3.4-.5-.2v-.3s-.3,0-.3,0l-2.9,1.2h-.2s-1.3.4-1.3.4l-3.5,1.4h0l2.1,5.5,2.4,2.5,1.1,3.4,1.6,2.6,2.9,3.4h-2.9s-1.1.3-1.1.3l.5,2.9h-7.1s-1.8,1-1.8,1l-2.6,2.3-4.5,6.6-1.4,3.6-1.5,6.5-1.8,3.3-2.3,6-2.1,2.6-3.4,3.3-2.9,3.5-1.7,3.4-.7,2.6v1.5c0,0,.2,1.4.2,1.4l1.2,3.4.2,1.6.8,1.1.6,2.3.3,2.3.6,1.9.5,3.4h15c0,0,113.1-.1,113.1-.1l.2-103.3,7.1-3.2,4.7-4.6,4.9-3.9h.9s2.5-1.9,2.5-1.9l3.9-2.3.3-.6.8-.9,3-1.8,2-1.8,3.5-1.6.7-.2h.4c0,.1.9-1.2.9-1.2v-.9c0,0,.9-.7.9-.7l3.6.4,2.8-.6h.7c0,0,.5-.4.5-.4l1.4-.4,3.2-3.2,3.1-1.4h1.4s2.9,1.1,2.9,1.1l1.1-.4.8.4h1.7c0-.1.8.4.8.4h1.2c0,0,.8.7.8.7l1.9.2.7-.2,1.2-1.5.9-.4,2.2-.2.4-.4,3.1.3.4-.6,1.8-1,.7-.2,1.4.2h0v-1.1c.1,0-.2-2.5-.2-2.5l.5-3.5-.2-3.2.7-3.3-.2-5.8-1.4-3.3-5.2-8.2-1.5-1.6-1.7-.9h-.9c0,0-.7.3-.7.3l-1,.9-1.7,2.3-.9.3-1.7,1h-1.7l-3.2-1.5-1.4-.2-.5.2-1.6,1.7-1.5,3.5-.6,2.9-.8.6-5.2-.2-1.7-.3-1-1-.3-2.1-.3-.6-.5-.6-2.7-1.7-1.5.9-1.3,1.2-1,2v.8c-.1,0,.9,4.9.9,4.9v.6c0,0-.7.8-.7.8l-.5.3h-1.9c0,0-2.5-.8-2.5-.8l-1.3.2-1.5.9-2.3,2.4-1.6.4-.5.4-1.3-.3-2.3-1-3.8-2.7-.9-.2-.7.2-1.1.9-1.1,2.7-.7,1-.7.4h-1.1s-5.5-2.7-5.5-2.7l-.9-.3h-1.5c0,0-1.2.3-1.2.3l-1.2,1.1v1.9c0,0,.7.5.7.5l1.4-.5h.9c0,0,.2.3.2.3l-.2,1.2-1.3,1.3-1,1.6-.3,1.3v4.7c-.1,0,.6,1.6.6,1.6l1.1.8.3.7-.4.8-7.5,2.2-.9.5h-2.3c0,0-2.1-.3-2.1-.3l-.5.3-.8.6-1.2,2.4-1.3,5.5v-.6c-.1,0-1.2-1.4-1.2-1.4l-.5-1.3-1.3-.7h-1.5s-.9-.4-.9-.4l-1.4.4-.7,1.4-1.3,1-2.6.5-2.1,1.1-2.1.6-.5-.3-1.3.2-.3-.2-.9-1.5-1.1-.9h-1.3c0-.1-.8.1-.8.1l-1,1.2-1.4,3.9-.4.4-1.3.5-1.4-.4-1.3.4-3.6,2.6h-1c0,.1-.5-.1-.5-.1l-.4-.7-.8-.2-1.6.3-3.7-.5-1.1.2h-.6c0-.1-1.6-1.4-1.6-1.4h-.3s-2.1,2.6-2.1,2.6Z"/>
    <path id="MA-16" class="cls-1" d="M245.2,455.5l2.8.4,4.6,1.9,1.1.7,2,2.9,1.1.6,1.1.2,4.3-.7,7.2-1.8,7.3-.4,9,2.1,2.6,1.1,1.6.4,6-1.6,2.6-1.2,4.8-1.7,5.9-.5,10,2,7.3,2.5h3s8-1.7,8-1.7h5.6l1.8.4,2.1-.5h0v36.9c.1,0-25.7,2.5-25.7,2.5l-3.1,2.2-3.6,4.3-3,4.8-1.3,3.3-1.8,7.6-.3,2,4.9,51-66.5-.5-66.5.5h-.7c0,.1-2.2,8.2-2.2,8.2l-1.3,2.3-.3,2.2-.6,2.1v3s.5,2.4.5,2.4h.2c0,0-.2.2-.2.2l-1-2h-.5s-.3-.7-.3-.7l.9-1.5-.6-1.3,1.1-2.8v-2.8s.7-3,.7-3l-.2-.8.8-3.9-.2-1.3,1.7-8.4v-1.8c-.1,0,.3-1.9.3-1.9l-.3-2.1,1.1-1.5v-.3s-.5-.1-.5-.1l.2-2,2-2.6.2-.8v-.8c-.1,0,.7-1.7.7-1.7l2.2-6.3,1.1-.5.2-.4-.2-.6.2-.6,1.8-1.4.6-.9.6-.5h1c0,0,.6,1,.6,1h1c0,0,2.1-.8,2.1-.8l1.8-1.2v-.9s.6-.5.6-.5l.6-1.1.3-2.5.4-.8v-.7s.4-.8.4-.8l1.4-.9.9-1.1.2-1.7.4-.9v-2.8s.2-1.2.2-1.2l1.7-2.9v-.5c0,0-.6-.1-.6-.1l.5-1.9.5.3,2-.8,1.4-1.4.9-1.5.2-1.4-.2-.9-.5-.7-.7-.4h-.6c0,.1-.4.5-.4.5l.4-1.1.3-.7.9-.6,1.3-1.7.3-.7v-.9c0,0,1.8-2.9,1.8-2.9l-.2-.7,1.9-1.8,1-1.3,1-2.2-.8-1.3,1.2-.7.6-1.1.5-.3,1-2.3.5-.2.4-.5.5-1,1.1-1.3.7-1.5,1.2-1,.4-1.1.7-.5v-.3c-.1,0-1.1.7-1.1.7l.3-1.7.9-1.4-.3-1,.7-2.1-.5.3-.6.6h-.6c0,.1,0,1,0,1l-.5.9v-.3c-.1,0-.1-.2-.1-.2v-.3c-.1,0-.6.4-.6.4l-.7,1.5-.8.5h-.2s0-.3,0-.3l-.5.3-1.5,2.1-1,3.6-1.1,1h0c0,0-.7,1.2-.7,1.2v.5c0,0-.6-.2-.6-.2l-.2-.7.7-1.1.9-.8v-.9c0,0,1.2-1.1,1.2-1.1v-.5c0,0,.7-1.8.7-1.8l2.2-2.6,1.2-.9v-.4c0,0,2-1.3,2-1.3l3-1.5,2.3-1.7.5-.8-.3-.4.4-.7,1.3-.9.5-1,.6-.4,2.9-3.2,2.9-2.3,3-4.2,2.6-2.8,1.5-.8,3.5-1.4.5-.5.2-1Z"/>
  </g>
</svg>