<?xml version="1.0" encoding="UTF-8"?>
<svg id="Laag_1" data-name="Laag 1" xmlns="http://www.w3.org/2000/svg" xmlns:amcharts="http://amcharts.com/ammap" version="1.1" viewBox="0 0 841.9 595.3">
  <defs>
    <style>
      .cls-1 {
        fill: #00a6db;
        stroke: #fff;
        stroke-width: .5px;
      }
    </style>
  </defs>
  <g id="_defs" data-name="&amp;lt;defs">
    <amcharts:ammap bottomLatitude="50.750938" leftLongitude="3.359403" projection="mercator" rightLongitude="7.227496" topLatitude="53.560406"/>
  </g>
  <g>
    <path id="NL-DR" class="cls-1" d="M519,107.3l3.3,1.2,1.5-4.1.9-.3.3-2.6,1.9-4.9.2-1.4.8-.7.8-1.4.5-.2.5-.6.2-1.5.2-.4,1.2-.5,1.7-1.1v-.2c.1,0,1-.2,1-.2l1.1-1v-.7c0,0,2.1-.4,2.1-.4l2-.7h1.1s1-.2,1-.2l3.3,1.4h.9s.8,1.6.8,1.6v.4s.4,0,.4,0l1.8,3.1.9,2.4,1.5-.7h.3s.5,1,.5,1v.8l.4,1.5h1l1.6,1.4.6.8.5.2.8,2.2.5.4.3,1,.5.3v1.4s5-2.3,5-2.3l2.1-.6,5,.3,1,.6.6.9,5.2,5.4,2.4,2.8,1.9,1.8,6.9,7.9,5.8,5.8,3.5,4.8,6.3,9.5h.1s1,1,1,1l2.6.7-3.4,8.4,2.9.3.4,1.4h.5s1.8,2.6,1.8,2.6h.3c0,.1.5.8.5.8h.3c0,0,.5-.2.5-.2h.1c0,0-.3,1-.3,1v1.1c-.1,0,2.3-.1,2.3-.1h0l-2.5,5.7v2.3s-2.1,30.6-2.1,30.6v.5c0,0-1.6,2-1.6,2l-.7-.5h-.9s-2-.4-2-.4l-.6-.4-.3-.5h-1.5c0,0-1.1-.7-1.1-.7l-.9-.3-.8.9h-1c0,0-.8.7-.8.7h-.9c0-.1-1.1.2-1.1.2l-1-.4-.2-.3h-1.1s-.3-1.2-.3-1.2l-1.3-.4h-.3c0,0-.6-.4-.6-.4l-1.9.2-.9-.7-1.3.8h-1s-.4.1-.4.1l-1.8-.7h-.5c0,.1-1.2.9-1.2.9l-1.8-.3-.4-.4h-1.2c0,.1-.4-.2-.4-.2h-.7s-.9.1-.9.1l-.7.4-.4.6-1.1-.4-.7.5-.3-.4-1.1.5-1.6,1.8-.5.7-1.1.6-.5.8h-1.4c0,0,.4-1.3.4-1.3l-.2-.4.8-.9-.2-.4h-.3c0,0,.6-1.5.6-1.5l-4.1-1.4-7.4-3.5-7.7,1.7-1,.6-3.6,3v.4c0,0,.2,2.3.2,2.3l.4,1.1.3,3.3-.2.3h-.3v-.4c0,0-.3,0-.3,0l-.2-.5h-.5s-.3-.7-.3-.7h-.8l-.7-.3h-.8s-.3.2-.3.2h-.9c0,0-.1-.4-.1-.4l-.5-.2v-.5s-.5-.3-.5-.3l-.5,1.5-.4.4-1.3.4h-.7c0-.1-.7-.6-.7-.6l-.4-.5v-.8s-.3-.3-.3-.3v-.5c-.1,0-.5.6-.5.6l-.7.5v.5c0,0-.4.3-.4.3l-1.1-.6-.4.7h-1.2s-.3.5-.3.5l-1.1.6h-.2s-.1-.6-.1-.6h-.3l-.4-.6v-.6c0,0-.4-.6-.4-.6v-.8c.1,0-.4-.7-.4-.7l-.2-1-.8-1v-.3c.1,0-.4-.4-.4-.4h-.4s-.2-.2-.2-.2v-.4c0,0-1.2-.7-1.2-.7l-.3-.4-.9-.3-.9-.8v-.9s.3-.4.3-.4l-.4-.7h-.7s-1.5.8-1.5.8h-.9c0,0-.4.7-.4.7h-.4c0,0-.4-.1-.4-.1l-.7-1h-.4c0,0-.5.6-.5.6h-.3c0,0-.6-.3-.6-.3l-.4-.6h-.9c0,0-.7-.6-.7-.6l-.6-1.1h-.7c0,0-.9-.4-.9-.4v-.3c-.1,0-.5.1-.5.1l-1.1-.6v-.5c-.1,0-1.1.4-1.1.4h-.7s-.7.9-.7.9l-1.6-.2-.3-.3-.9.4-.6-1.2-.4-.4h-.2c0,0-.4-.2-.4-.2l-.8-1-.6-2.2-1.4-3-2.5-6.3.6-1,.3-.2,2.8-.7,2.4-1.2v-1c.1,0,4.1-4.4,4.1-4.4l-.8-.8-2.3-3.2-.9-.5-4.3-5-.6-.8-.3-.8-.9-1.2h0l5.1-3.9,5.1-3.3,3.2-4.5,1.5-1.2.6-1.1.9-.6h.8c0,0,5,.4,5,.4l3.8,3.9,7.2-5.1,4.2-8-7.9-12.3.5-6.8-7.2-2.7,1-2.7Z"/>
    <path id="NL-FL" class="cls-1" d="M411.1,220.5l-.5-.2v-.4s.2-.3.2-.3l.3-1.6,1.6-3.8.9-.9,2-1,.3-.5v-.4s-1.4-4.3-1.4-4.3l-6.7-10.8h0l.3-.2h0l6.8,10.8,1.4,4.6-.3,1-2.3,1.1-.7.8-1.6,3.9-.2,2.1ZM445.6,158.8l1.2.2,1,.9.8-.3-.8-2.3,2.4.7,4.4,4.4.8,2.9.5-.3h0l1.1,1.9,1.6,1.4v.4h2.2l.3.2,1.4.3,1.1.5,2.4,1.6.7,1,1.2,1.1.7.5h.4s2.3,2.2,2.3,2.2l.4.7.9,2.2,1.2,4.2.9.4.4.7v.7h.2s.4.3.4.3l.5,1.2v.7s-.3.5-.3.5h-.4c0,0-.7.9-.7.9l-1.1.8-1.4,1.6v.7s.3.3.3.3h.5c0,0,0-.2,0-.2l1.6.6h.8c0,0,1.2.5,1.2.5l1.9,1.7,2,.5,1.4,1.4.3.5v.3s-.6.7-.6.7l-2.7,1.8-4,.9-.2.4-2.8,1.6-1.8.2-.6-.7-1-.4-7.1,1.6-.6.3-.3.5h-7.2s0,5.2,0,5.2h2.9s1.1.2,1.1.2l5.2,5.5.4,1.1,1,5.5h0l-.8,3.7-.8,1.1-.3,1.9-.8,2.1v.4s-.2.2-.2.2l-.9-.3-.3.2-1.7,3.2v.2s.7,1,.7,1l-1.3,1.9-.3.8-2.4,2.3-1,.6-2.6,2.4h-.4c0,.1-.1.4-.1.4l-1.9,1.5h-.3s-.5-.4-.5-.4h-.3c0,0,0,.3,0,.3l.2.4-.6.5-.3.5-.9.6-1.3.5-1,1-1.1.3h-1.1s-3.3,2.8-3.3,2.8l-.6-.6h-.4c0-.1-3,1.3-3,1.3l-.8.7-.6-.7h-.4c0,0-1.8.3-1.8.3l-.3.3-1.4,2.2-4,12.4-.8,2.2-.4.6-13.5,3.9-1.8.7h0l-2.4-2-6.2-6.1h0l-2.9-2.9-3.6-2.4-7.5-1.9-8.4,1.4-.8-.5-.9-1.1h0l.2-.2-.2-.4.8-.8-1.1-1h-.3s-.1.1-.1.1v-.2c0,0,.3-.4.3-.4v-.5c.1,0,0-3.8,0-3.8l-1.2-2.4v-1.2s4.2-2.5,4.2-2.5l.6-1.4,5.5-3.3h1.4s.6-.3.6-.3l.4-.3.7-1.3,2.5-1.5,15.7-11,1.2-.2.8-.4,4.7-4.2.2-.8-.4-.7v-.9c0,0-.4.2-.4.2h-.4s.1-1.1.1-1.1h.5c0-.1.1.2.1.2v-.3c.1,0,.7-.2.7-.2l.6-.5,1.1-2.5.8-1,3.7-.2.5-.2,4.1-3.9v-.2c.1,0-.4-.5-.4-.5l.4-.4.4.4h-.2c0,.1.1.3.1.3l3.4-3.5,8.1-2.4,1.1-1h.4l1.2-1.2-3.8-6.2-2.2-1.6v-.2s.4-.2.4-.2l-.6-.7h-.8c0,.1.2-20.3.2-20.3l8.1-13.2.8-.5,4.8-.6h.4c0,0,.1-.3.1-.3Z"/>
    <path id="NL-FR" class="cls-1" d="M428.3,160.2v.3c0,0-.2,0-.2,0l-1.1-.4.2-.2h.7l.4.3ZM423.4,159.3l-.5-.2h.1c0,0,.4,0,.4,0v.2h0ZM408.6,135.5l-.2-.2v-.4c.1,0,.3.2.3.2l-.2.4ZM407.6,127.4l-.2-.7h0c0-.1.2.5.2.5h0ZM404.1,110.8l.3.6.5.2h.5c0-.1.6.5.6.5l.3,1.2.8,1.5-2.3-.2-.3-.7-.8-1.1-.3-1.8v-.2c0,0,.6,0,.6,0ZM399.9,110.9l.2.6v.3c-.1,0-.5-.1-.5-.1l-.5.3h-.3c0,0-3.1.8-3.1.8l-10,8.8v.5c0,0-.6.5-.6.5l-.3-.2-.4.3.6.2.4-.3h0c0,0-.5.5-.5.5l-.8-.2-4.3,3.7h0l-.5-.7h0l4.2-3.7v-.4c0,0,.5-.3.5-.3l-.5.4v.3c0,0,11.4-10,11.4-10l.5-.3,3.1-.8h0c0-.1.4,0,.4,0h.5c0-.1.1-.3.1-.3l.3.2ZM368.1,63.8l3.2.6h.2c0,0,.1,1,.1,1l-.6.3-.4.5-.5-.2.2.4-.5-.2h-1s-1.8.5-1.8.5l-.9,1-1.5,1-2,.9-4.5,1.6-2.2,1.1-.2.5.8,1.9-.2.3h-.7c0,.1-.2.4-.2.4v1.1c0,0,.3.1.3.1l-.2.8-3,1.2-1.6,1.8-.7.4h-1.6c0-.1-1,0-1,0l-2.2,1.2h-.6s-.4-.3-.4-.3l-.6-1.1v-.6s6.9-4.3,6.9-4.3l1-.9,2.6-3,1.8-1.5,7.1-4.9,1.6-.5,2.4-1h.9ZM376.6,67.3l-.4.6h-.5c0,0-.6.9-.6.9h-.3c0,0-.5-.2-.5-.2h-.7c0,.1,0-.3,0-.3h.4s.3-.3.3-.3l-.3-.6-.5-.2,1.1-1.1v-.3c.1,0,1.2-.8,1.2-.8l.7-.9.4-.3h.7s.4.7.4.7v.6c0,0-.8,1.3-.8,1.3l-.7.9ZM382.4,46.4v-.2c0,0,.2-.3.2-.3l-.2.5ZM503.9,43l-2.8,4.1v2.6c0,0,.7,1.8.7,1.8l.4.7.9.7,4,1.1.5.3.5.7.3,1.3.5.7h.9c0,0,1.4-1.1,1.4-1.1l2,.5,2.2,1-.6,5.6v.2s1.2.3,1.2.3l.3.5-.7.8-1.1.4-.4.6v.7c0,0-.4.4-.4.4v.9c-.1,0-.3.1-.3.1l-.9-.3-.9.5-.2,2.3.4,1.2v.7h-.4l-.3.3-.3-.4h-.2s-.3.7-.3.7l-.5.5v.6c0,0-.1.4-.1.4l-.7.3.4.5v.3c0,0-.6.4-.6.4l.2.6v1s-2.1.3-2.1.3l.3,1.3,1,.8.2,1,.5.7-.2.9-.4.4-.2.8-.6,1-.8.6-.4.7h-.7c0,0-.4.3-.4.3l-.2,1.1-.8.8-.2.6-1.6,2.9-.3,2.1-.2,5.1,2.2,2.7,1.5,1.3,4,.6h3.3c0-.1,1.8.8,1.8.8l.9.9.7,1.1,2.9,1.2h0l-1,2.7,7.2,2.7-.5,6.8,7.9,12.3-4.2,8-7.2,5.1-3.8-3.9-5-.5h-.8c0,0-.9.6-.9.6l-.6,1.1-1.5,1.2-3.2,4.5-5.1,3.3-5.1,3.9h0l-1.5,1.3-1.5.9h-.7c0,0-.6.4-.6.4l-.5.5h-.5c0,0-1.6,0-1.6,0l-1.4.6.4,2-.2.4-1.8,1.1-1,.4-.5-1.1-1.4.2-1,.3-.4.3h-.4s-.5,0-.5,0l-.6-.6h-.5c0,0-.6-1.6-.6-1.6l-.7-1-.4-1.5-1.6.4-.5.4v.3c-.1,0,0,.8,0,.8l-1.1-.5-.6.2-1.3.2v.4s-.5.2-.5.2l.2.3v.2c-.1,0-.2,1-.2,1l-1.1.7-.6.9-1.1.7-.5.7-2.5,1.2h-.6c0,0-1.1-.7-1.1-.7h-.6s-.4-.2-.4-.2h-1.1s-.7-.3-.7-.3l-.5.4h-.3l-.3-.8-1.5-.8-.2-.3-2.9,2h0l-.5.3-.8-2.9-4.4-4.4-2.4-.7.8,2.3-.8.3-1-.9-1.2-.2h0v-.9c0,0-.2.3-.2.3h-.2l-.2-.3-.4.4-.3-.3v-.6s-.2-.2-.2-.2l-1.6-.2h-1.5c0,0,.2-.6.2-.6h-.2c0,0-.3.7-.3.7h-.4c0,0,0,.5,0,.5l-.4-.3h-.9c0,0,0-.2,0-.2l-.5-.4.3-.2v-1.4c0,0-1.4-1-1.4-1l-.8.2-2.5,1.7-1.7-.2-2.2.5-.3.5-.3,1.3-.3.3-1.4.8-1.7.4h-.6c0,0-2.7-1.1-2.7-1.1l-5-2.3-3.1-.9h-.8c0,0-.4.1-.4.1v.5c0,0-1.2,0-1.2,0l-1.7.6-1.1-.4-2.3-1.3-1.9-2-1.6-1.1-.6-.7.2-.4v-.2c0,0-.7,0-.7,0l-.8-1.4.6-.5.4-.7,1.2-1.4,1.7-.8.5-.5,1.2-.3.7-.9v-2c.1,0-.1-.4-.1-.4l-.4-2.8-.7-.8.6-.6h.4c0,.1.3,0,.3,0v-.2c0,0-.5,0-.5,0v-.2s.5,0,.5,0l.2.2.2-.2v-1.4s0-.1,0-.1l.2.3v-.2s-.4-.6-.4-.6v-.5s-.4.1-.4.1h-.2c0-.1.9-.3.9-.3v-.9c.1,0-.5-2.4-.5-2.4l-.3-.3-.2-.9v-.4c0,0-.2-.1-.2-.1l-.2-1.1v-2s-.3-.4-.3-.4l1.1-1.8-.3-.4.3-1.7h-.3c0,0-.8-.3-.8-.3v-.9c.1,0-.2-.2-.2-.2v-.2h.6v-.8c0,0,.2.3.2.3h.2s-.4-1.1-.4-1.1l.2-1.9-.4,1.3v1.6c0,0-.5.3-.5.3l-.3-.3v-.7s-.5-1-.5-1l-.3-.5-.9-.8-.2-1.2.2-.2h.8v.5c.1,0,.6,0,.6,0v-.5h.5s.4.6.4.6h.6c0,0-.6-1.4-.6-1.4l-.4-.5-.4-.8-.2-.9.2-.7-.2-.8-1.1-2.4h-.2c0,0-.5,0-.5,0l-3,2.9-.9.4-.2.4h-.4s-.3-1.2-.3-1.2l.2-.2.3.2.7-.2.5-.3,3.4-3.3.2-.3.3-1.6-.3-.4v-.2c0,0,2-1.2,2-1.2l1-1.3.7-2.5.3-4.5.4-1.7v-.9s-.7-.4-.7-.4l-.2-.4.4-.4v-.4c.1,0,1-.5,1-.5v-.5c.1,0,0-.1,0-.1l1-3,.6-1.1.5-1.5,1.2-2,1.8-1.6,2.4-2.7,1-.4,1.4-1.1,1.5-.8.3-.3,1.3-.7,1.2-1.5,2.2-2,.7-2.1,3.4-3.4,3.4-1.8,1.5-.3,4.6-1.7,1.1-.2,1.1-.5h.8s1.3-1,1.3-1l7.6-4.4,2.8-1.1,1.1-.7h.5c0,0,.3-.4.3-.4l1.8-.5,1.4-1,2.6-1.5,1.8-.6.7-.8,1.3-.4.5-.3-1.3-1.9v-.2c0,0,.4.5.4.5l.3-.3.2.5-.2.3.7,1,1,.2.8-.4,1.8.2,3.5-1,1.4-.7,1.5-.2.2-.4.3.3,1.8-.3,3.2-1,3.3-.3,3.1-.6,2,.5.2-.5.2.5.5-.8.2.4h1.1s4,.8,4,.8l4.8-2.3h.8c0,0,1,.7,1,.7ZM423.2,35.8h-1.4c0,.1-.1.4-.1.4l.2.2,3.2-.4h.5c0,0,.3.6.3.6l-.4,1.4-1.9,1.1-.6.2-.9.2h-.2c0,0,.1-.3.1-.3h-.1c0,0-.2,0-.2,0h-.3c0,0-1.4,1-1.4,1l-2.1,1.1-1.1-.2-.6-.6v.5c0,0,.2.6.2.6v.7s-1.2-.3-1.2-.3l-1-.7h-.7c0-.1,0,.1,0,.1v.2c.1,0,1.6,1.1,1.6,1.1l1.9.7-.2.3-.4-.3h-.3c0,0-.3.4-.3.4l.2.2-.3.2-1.1.3-5-.2h-1.6c0,0-1.9.6-1.9.6l-1,.4-2.3,2.3-1.4,1-.8.3h-.6s-1.1.8-1.1.8l-1.4-.5-.3.6-.8.4h-.6s-.4.5-.4.5v.5c-.1,0-1.2-.1-1.2-.1l-1.1-.4-1.2.4-1.1-.3-1.9,1.7v-.2c0,0-.6-.2-.6-.2l-2,.2-.5.7v1c0,0-.1.1-.1.1l.2.3h-.4c0,0-.5-.3-.5-.3h-.5l-.2.3-.6.3-.7.9-.6.3-.5.7-1.4-.3-1.9-1.2-.2-.3-.3-1.7v-.8l.7-.9,1.9-1.7,1.2-1.8.5-1.2h.1v.6c-.1,0,0,0,0,0v-.8c.1,0,.7-.6.7-.6h0c0-.1-.5,0-.5,0l.4-.2,12.9-2.4,2.3-.6.3.3h.6c0,0,11.8-3.9,11.8-3.9l.6-.6,2.4-.7,7.3-2.9,2.4-.4h1.3s.6.1.6.1l.2.3v.4s-.3.3-.3.3l-2.3.3ZM488.1,33.2l.2,1.6-.3-.5-.4.5-.9.4-.4.5-.7-.3-.3-1.1.7-1h.9c0,0,.9-.1.9-.1h0ZM447.1,33.1l6.5-.3,8.2-.9,1.7.3,8.6-.4,4.5.2h.8c0,.1.5.7.5.7l-.2.5-.5.2-1.2.3h-2.9c0,0-1.1,0-1.1,0l-2.6-.2-1.7.8-.6.5-1.9.5h-.4s-1,.5-1,.5l-3.4.7-.2.2-3.4.9h-2.2c0-.1-1.2,0-1.2,0h-.1c0,0,0,.6,0,.6l-.2.3h-.3c0-.1.2-.3.2-.3v-1s-2.4-.1-2.4-.1l-2.3-.6h-1.2c0,0-.4.4-.4.4l-.4.9-1.7,1.3-1.8.6-1,.6h-1.5c0,0,0,.8,0,.8l-.4.3-.7-.2-1.8-1.2-1.7-.8-.9-1-1.1-1.7v-1.2s.5-2.6.5-2.6l.5-.9.6-.5.7-.3h1.2s2.6,1,2.6,1l4.3,1,2.9.2ZM498.9,23.1l1.1.2,1.2,1.1,1.6.3h1.8c0,0,8.9-1.1,8.9-1.1l4.9-.5,4.4-.2.2.3-.2.5-1.9,1-1.1.5-1.3.2-2.7,1.3-1.5.3-.8,1-3,1.4-.8.2h-2.4c0,0-2.8.7-2.8.7l.6.8v.2s-.6-.4-.6-.4l-.3-.5h-3.2v.8s-.2,0-.2,0v-.8c-.1,0-1,.2-1,.2l-.2.5h-.3c0,.1.3.6.3.6h-1c0-.1-.3.1-.3.1l.3.5-.2.2v.3s.3.6.3.6h-.7c0,.1-1.1-.3-1.1-.3h-.6c0,0-.9,1.2-.9,1.2h-.4c0,0-.5-.1-.5-.1v-.2s.3-.9.3-.9l.2-1.7.4-1.4.9-1.7,1.1-1.6,2.4-2.1.6-.2-.2-.3-4.6-1.1-.9,2.3h-.5s-.3-.1-.3-.1v-.7c0,0,.9-1.9.9-1.9h1.5l2.7.4Z"/>
    <path id="NL-GE" class="cls-1" d="M464.1,222.1l1.6-.6,1.9,1.7,1.6,2,.9,1.4,1.3,2.7.4,1.2.9-.4.5.4,1.5-1.1.7-.2,1.1,1.5,5.3-5.5,1.3-.5.5-.4.3-.6.8.4h.5c0,0,2.3,1.9,2.3,1.9l.8,1.9.6.9,1,.8,1.8.8,1,1.2.3,1v2.2c.1,0,0,1.9,0,1.9l.5.6,1,.7,1.8,2.7.7,2v.7c0,0-.6,2.6-.6,2.6l-.5,1.1v1.9s-.3.6-.3.6l-.3.4-2.2.9-2.4.5-.5.7v.7s.2.5.2.5l.3.2,1,.2.4.3.2.4-.7.6-1.2.4-.3.5.2,2-.2,1.9-.2,1.4-.5.6v.4s1.2.2,1.2.2l.4.9v2.2c0,0,.9.3.9.3h1.3s.3.5.3.5l.3,1.1.6.9v1.9c0,0,1.3,1.4,1.3,1.4l.3,1.5.7.6-.7,1v.8l1.4.3.7.5h1.5c0-.1,0,.3,0,.3l-.2.7-.9.6-.3.7.3,1.3.8.6,1,.3.3.6v.6s.2.2.2.2l.2-.2v-.4s-.4-.5-.4-.5l-.2-.7.5.2v-.2c0,0-.2-.2-.2-.2l.3-.5.6.6v-1.2c.1,0,.3-.7.3-.7h.2c0,0,.5,0,.5,0l.5-.2.8.2h1.3c0,0,1.8,1.3,1.8,1.3l1.9.3.8.3h.8s.3.2.3.2h1.6c0-.1,1.2.2,1.2.2v-.6c0,0,.9.3.9.3l.3-.4,1.4-.4v.3c0,0,.5,0,.5,0v.3c0,0,.5.3.5.3h2.5s1-.3,1-.3h1.1s0-1.7,0-1.7l.8-.5h.5c0,0,.2-.6.2-.6h2.3c0-.1,1.3-.7,1.3-.7l.7.3h1.6c0,0,2,.1,2,.1v1s.8,1.2.8,1.2l.5,1.4,2.4,2.6,1,2,.7.3h.8s.2.3.2.3v1.1c0,0,.7,1.5.7,1.5l.4.5,1.2.6.4.4h.4c0,.1,2.3-.7,2.3-.7l4.8.8,4.4-.9v-.2c0,0,.5.2.5.2v.3s.8.3.8.3l.2.5.5.4-.4.8v.3c0,0,1.1.9,1.1.9l1-.8.5-.2.2-.6.3-.2.6.2.6.8.6-1h.5s2.5,1.4,2.5,1.4l.3.3.2.7v.5s-.4.6-.4.6l.3.2v1.1s.1.6.1.6l-.2,1.3-1.3,2.1,1.8.8,2.6.5,2.1,1h5.5s-.5,4-.5,4l-.4.7v-.3c-.1,0-.4-.1-.4-.1l-.7.7v.5c.1,0,.7.6.7.6v.6s-1.5,1.9-1.5,1.9l-5.2.9.3.5v.6c0,0-.8,1.6-.8,1.6l-.4.2v.8s.1.2.1.2v2.3s3.3,0,3.3,0l4.7,2.3,1.2,1,.4.8.8.3,4.1,3.4v.7s.2.3.2.3l2.2.3.4,1.3v1.4c-.1,0,.3,1.6.3,1.6l-.2.9-.4.6h-1.6c0,0-.6.6-.6.6l-1.3.5-.3,2.5v1.7s-1.2,1.3-1.2,1.3l.3.3-1.9,2.4-2.2.9v.7s-.3.3-.3.3l-1.8.6-.6,1.1-1.1.6-2-1.6-.4-.4v-.8c0,0-.4.2-.4.2h-.2c0,0-.4-1.2-.4-1.2h-.6s-.6-.4-.6-.4l-.6.2-4.8,2.3-.8.8h-.4s-.6-.2-.6-.2l-5.6,1.9-1.5,1-.9.9h-.4s-.5-.7-.5-.7l-.9.4-.9,1-1.2.8-1.4.6-1.1.8-.4.3v.6s-.5.7-.5.7l-2.5.7-1,.6-.7-.2-1.2-1.6-.5-.5-.7.5-1.5.7-.4-.3-.2-1.1-1.3-.4-.3-.5-2-.2-.6-.6h-.3c0,.1,0,.6,0,.6l-.5,1.3v.3c0,0,1.9,1.5,1.9,1.5l.9.2v.3c0,0-.9,1.3-.9,1.3v.7s.5,1.1.5,1.1h0c0,.1-.5,0-.5,0l.4,1.4v.3c-.1,0-.5.1-.5.1l-2-1.3h-1.9c0,0-.8-.4-.8-.4l.2-.5-.5-1.2-.9-.8-3.6-.5-2.2.2-.6-2.8-.3-.2v-.6c.1,0-1.2-.6-1.2-.6h-.6c0,0-.4-.5-.4-.5h-.9c0-.1-.5,0-.5,0l-.5.7-1,.3h-2s-.5-.2-.5-.2l-2.2.3h-.6c0-.1-1.5-1-1.5-1l-1.7-1.7v-.8c0,0,.8-.2.8-.2l-.3-.4v-.4s-2.6-2-2.6-2l-.2.4-1.4-.9-2.8.5-.8.6-.9-.7-.4.9-.4-.2-.2.2v.5c0,0-.6.5-.6.5h1.9s1.3,1,1.3,1l.8.4.7,1.9v1.1c0,0,2.4,1.9,2.4,1.9v1.2s.2,2.7.2,2.7l-2.6-.9-1.8-.4h-2.1c0,0-1.6-.3-1.6-.3l-1-.5-1.9-1.7-1.4-.9-.7,1.2-.8.3.3.6v.4c-.1,0-1.6.8-1.6.8l-1,.9-.4-.4-1.4.5-.6,1.2-1.4.7-1.8.2-1.1-.4h-.9c0,0-1-.7-1-.7l-2,2.4,1.6,1.2-.4.5h-.2c0-.1-.2,0-.2,0l-.3-.2h-.1c0,.1-.2,0-.2,0l-.2.3v.4c0,0,2.1,1.1,2.1,1.1l.4.8,1.2,1v.3c0,0-.4.3-.4.3l.3.3-.5.9.4.8h.8s.6.4.6.4h.4c0-.1.1,0,.1,0l-.8.8v1c-.1,0,.7,1,.7,1v.6c0,0-3.8,2.8-3.8,2.8h-.4c0,.1-.3.5-.3.5v1h-.5v.4c-.1,0-.4.1-.4.1h-1.4c0,0-.5-.4-.5-.4v-.4s-.5-.5-.5-.5l-.9-.4h-.5l-.4-2.2-2.3-2.9h-.8c0-.1-2.5.2-2.5.2v.5s.6,2.4.6,2.4l-.7.7h0l-1.8-.3-5.5.6-2.9.8h-1.8s-.8-.2-.8-.2l-1-.5-.7-.6-.6-1h.1c0-.1-.3-.7-.3-.7l-.9-.9-.5-.3-2.3-.4-.6-.6-.9-1.5-.9-.9-2.3-.4-1.3-.8-.8-1.2-.7-2.1-.8-.9-.6-.2h-1.5s-.7-.2-.7-.2l-2-1.3-1.5-.4-1.5.3-2.1.2-.5.5-.9,1.5-.8.2-2.5-.6-1.9-1.9-.8-.4h-.5l-1.2.5-.4.8-.2,1.1-.5.7-.7.5-1.5.4h-.8c0,.1-1.7,0-1.7,0l-1.2-.5-1.1-1.6-.4-.3h-1s-.4.3-.4.3l-.6,1.1-1.4,1.8-2.1,3.6-.8,2.5v2.6c-.1,0-.6.8-.6.8l-.6.4-3.8,1.8-2.4,1.7h-.6s-1.6-.5-1.6-.5h-1.3c0-.1-.9.2-.9.2l-.9.8-.8.3-.9-.3-1.3-1.1-.9-.4h-.7c0,0-2.9.5-2.9.5l-2.4-.6h-1.6c0,0-4.3,1.1-4.3,1.1v-1.4s1.4-1.2,1.4-1.2l.5-.8-.6-.5-.2-.5v-.8c0,0,.4-1,.4-1v-.6c0,0-2.9-1.3-2.9-1.3l-1.2-1.3-.6-.3h-.7c0-.1-.7.2-.7.2l-1.2,1.3h-.9c0,.1-.4,0-.4,0l-1.1-1.2-.5-1.1-.6-.4v-.5s-.3-.3-.3-.3l-3.3-1.5-.9-.8-.7-1.6-.7-.5h1.8s.8-3.8.8-3.8l-2.6-.4-.7-1.2.3-1.1-.4-1.4.3-.3,1.4,1.2h3.1c0,0,1.2.4,1.2.4l.4-.5,1.4-.5.5-.4-.8-.5-.3-.7.2-.7,1-.5h1.5s.8-.5.8-.5l.8-1.2v-1c.1,0,.5-.3.5-.3l.7.2.8-.2,1.3.3.3-.5.2-1.7,1.7-3.1.6.3v-1.2c0,0,1.5-2.3,1.5-2.3v-.5c0,0,.3,0,.3,0l3.5-6.7h0l1.7,1.1,1.6.3.7-.2.9-.8,1.1-2.1.5-.6.9-.2,1,.6,1.4,1.5,1.3.7,1.5.4,2,.3,1.9,1.3h1c0,0,1.5-.7,1.5-.7l1.2-1.5,1-.7,1-.2,1.8.4h1.2c0,0,3.8-1.5,3.8-1.5l1.6-1.3.8-.4,3.3.7,2.1-.2.7.2,1.7,1,.8.7,3.9,1.4.9,1.4.9.7.9.4,3.1.8,2.1,1.4,1.2-1.1.7.4v-1c0,0,.7-.2.7-.2v-1.2s-.5-1.3-.5-1.3v-.5s.3-.5.3-.5v-.8c.1,0-1.1-1.4-1.1-1.4l-.3-1.6-.5-.8-.8-.2-1-.9-.5-.5v-1.3c-.1,0-.3-.3-.3-.3l-.4-.4-.3.3-1.2-1.3h.7s.2-3.5.2-3.5l-2.3-.9.2-1.4-.9-.4.4-1.2.3-2.9v-.3c-.1,0,.2-1.5.2-1.5l-.2-1.5h-.3s-.4-.5-.4-.5v-1.4c0,0-.6-.3-.6-.3l.2-.6-.2-1.1h-.8c0,.1,0,.5,0,.5h-.3c0,0-.3-.3-.3-.3l-1.1.3v.5c0,0,.5.1.5.1v.3s.3.3.3.3l-.3.8.7.2v.5c0,0-.1.4-.1.4l-1-.3-.4.7.8.3-1.2,1.2-1-.2h-1.1c0,0-.3,1.1-.3,1.1h-1.4s-1,.4-1,.4l-2.1-1.2v-.4c0,0-.6-.1-.6-.1l-.2-.3,1.3-1.7,1.7-1.1-.2-2,1.1-1v-.4c0,0-.8-.6-.8-.6l2.5.3v-.3l-.5-.3v-.7s-.6-.2-.6-.2l-.6-.7h.3c0,0,.2-1.1.2-1.1l1.3-.2.6-1.1-1.6-.8v-.3c0,0,.1-1.1.1-1.1h-1.2s-1-.5-1-.5l.2-1.3h-.3c0-.1,0-.5,0-.5l-.8-.3v-.3c0,0-4.7-.6-4.7-.6l-1.9-.7v-.7c0,0,0-1.2,0-1.2l-.4-.4.5-.4.9.3.5-.4.3-1.5v-1.2s-5-4-5-4l1.4-6h0l1.8-.7,13.5-3.9.5-.6.8-2.2,4-12.4,1.4-2.2.3-.3,1.8-.4h.4c0,0,.6.8.6.8l.8-.7,3-1.4h.4c0,.1.6.8.6.8l3.3-2.8h1.1s1.1-.3,1.1-.3l1-1,1.3-.5.9-.6.3-.5.6-.5-.2-.4v-.3c0,0,.3,0,.3,0l.5.4h.3s1.9-1.5,1.9-1.5v-.3c.1,0,.6-.1.6-.1l2.6-2.4,1-.6,2.4-2.3.3-.8,1.3-1.9-.7-1v-.2s1.7-3.2,1.7-3.2l.3-.2.9.3.2-.2v-.4s.8-2.1.8-2.1l.3-1.9.8-1.1.8-3.7Z"/>
    <path id="NL-GR" class="cls-1" d="M576.5,33.6l.5.3h.6c0,0,1.6-1.5,1.6-1.5h.4c0-.1,2.1.7,2.1.7l.3.7v.6s-.3.4-.3.4l-2.1-.4v.4c0,0,1.8.5,1.8.5v.6c-.1,0-1.1-.2-1.1-.2v.3c-.1,0,1.5.4,1.5.4h.8c0,0,.9.1.9.1v-.4c0,0-.9-.2-.9-.2l-.2-.2.5-1.9,2.4.8,2.7,2.6v1c0,0-1,2.7-1,2.7v2.8c-.1,0,.6.7.6.7l1.1,1.8-.3.5.4.2.2.4-.2,2.1.7,2.1v1s.6,3,.6,3l.3.4h.8l2.2,2,.5.7h.6v.4h-.5c0,0-.3,1.1-.3,1.1l1.3.4.3.5h.4c0,0,1.5.5,1.5.5l.4.3h.7s.6.2.6.2l1.9.9h.6c0,.1.8.9.8.9l.9.5,2,.8h1.6c0,0,.8.2.8.2l.3.3h3.6c0,0,.5-.8.5-.8l1.4-.3.5-.5h.3v.5s-.3,0-.3,0l-.7,1-.7.5-.3,1.8.2,1.4-1,2.7v.8c0,0,.5.2.5.2v.6c0,0,.4.4.4.4l.9.4.3.4h.5c0,0,.2.5.2.5h1.6c0,0,.6-.1.6-.1v.3s.2,0,.2,0h1.9c0,0,1.2,1,1.2,1l1.4.4.8-.3,1.1.9,1.4.3.3.3,2.2.5.2.2.2-.2-.2-.5.4-.9.4,2.9v.9s.5,1.5.5,1.5l.2,3.6-.2.6-.8.9-.2.5,2.2,1.6v.5s-1.9.9-1.9.9h-1s-1.3,2.5-1.3,2.5v.5s-.4.6-.4.6v1.9s-.8,1.4-.8,1.4l-.4.3.5,3.4,2.2,1.6-.3,6.7,1.6,13.3.6,1.6-1,1.2-3,10.5-.2,1.2-9.3,15.4-2,2.6-.3.6.6,2.3h-2.4c0,.1.1-1,.1-1l.3-.9h-.1c0,0-.5.2-.5.2h-.3c0,0-.5-.8-.5-.8h-.3c0-.1-1.8-2.7-1.8-2.7h-.5s-.4-1.4-.4-1.4l-2.9-.3,3.4-8.4-2.6-.7-1-1.1h-.1s-6.3-9.5-6.3-9.5l-3.5-4.8-5.8-5.8-6.9-7.9-1.9-1.8-2.4-2.8-5.2-5.4-.6-.9-1-.6-5-.3-2.1.6-5,2.3v-1.4s-.5-.3-.5-.3l-.3-1-.5-.4-.8-2.2-.5-.2-.6-.8-1.6-1.4h-1l-.4-1.5v-.8l-.5-.9h-.3s-1.5.6-1.5.6l-.9-2.4-1.8-3.1h-.5s0-.4,0-.4l-.8-1.6h-.9s-3.3-1.5-3.3-1.5l-1,.3h-1.1s-2,.6-2,.6l-2,.4v.7c0,0-1.1,1-1.1,1l-.9.2v.2c-.1,0-1.8,1.1-1.8,1.1l-1.2.5-.2.4-.2,1.6-.5.6-.5.2-.8,1.3-.8.7-.2,1.4-1.9,4.9-.3,2.6-.9.3-1.5,4-3.3-1.2h0l-2.9-1.2-.7-1.1-.9-.9-1.8-1h-3.3c0,.1-4-.5-4-.5l-1.5-1.3-2.2-2.7.2-5.1.3-2.1,1.6-2.9.2-.6.8-.8.2-1.1.4-.2h.7c0,0,.4-.8.4-.8l.8-.6.6-1,.2-.8.4-.4.2-.9-.5-.7-.2-1-1-.8-.3-1.3,2.1-.3v-1s-.1-.6-.1-.6l.5-.4v-.3c0,0-.3-.5-.3-.5l.7-.3.2-.4v-.6c0,0,.5-.5.5-.5l.3-.6h.2s.3.4.3.4l.3-.3h.3v-.7c0,0-.4-1.2-.4-1.2l.2-2.3.9-.5.9.3h.2c0-.1.1-1,.1-1l.4-.4v-.7c0,0,.4-.6.4-.6l1.1-.4.7-.8-.3-.5-1.1-.3v-.2s.6-5.6.6-5.6l-2.2-1-2-.5-1.4,1h-.9c0,0-.5-.6-.5-.6l-.3-1.3-.5-.7-.5-.3-4-1.1-.9-.7-.4-.7-.6-1.8v-2.6c0,0,2.7-4.1,2.7-4.1h0l.4-.2h.6c0,0,.2.1.2.1l-.2.3v.3c0,0,.5,0,.5,0l4.6-1.4h1.2c0,0,1,.2,1,.2l4,2.2.6.4,1,1.5h.2l1.8-1.1,1.4-1.2,3.7-1.7,3.4-1.3,5.1-.9,15.1-1.7,3.6-1.1,2.1-.9,1.8-1,3.4-1.4,5.7-1.9,5.5-.7h1.3l3.1,1,1.4.9ZM530,20.8h.6c0,0,0,.6,0,.6l-1.6-.2h-1.3c0,0-.2-.2-.2-.2l.2-.3h.7c0,0,1.7.2,1.7.2ZM551.7,19.6h.8c0,.1,0,.4,0,.4l-.4.2v.4c0,0,0,.1,0,.1l-1.7-.6-.3-.4v-.3c.1,0,.9,0,.9,0l.7.4ZM555.3,16.1v.2c0,0,0,.2,0,.2l-1.1-.4h-.6c0,.1,0,.6,0,.6l.7.6v.4s-2.5-1.2-2.5-1.2h-.5c0,0-1.5.2-1.5.2l-.3-.4v-.3s.8-.9.8-.9l.8-.2,2.6.3,1.8.8ZM540.3,15.6h1.1c0,0,.9.5.9.5l2.1,1.7v.3s-.4,0-.4,0l-1.6-.5h-.5c0,0-.6-.7-.6-.7h-.1s-.3.4-.3.4l.2.8-.2.4h-1.2s-.6-.2-.6-.2l-.7.4.5.5v.4c0,0-.7.4-.7.4l-1.1-.3-.5-.4-.3-1.6-1.4-1-.5-.8v-1.5c0,0,.6-1.9.6-1.9h.5c0,0,.5,1.8.5,1.8l4.4,1.2Z"/>
    <path id="NL-LI" class="cls-1" d="M464.4,372.3l.7-.7-.7-2.4v-.5s2.6-.3,2.6-.3h.8c0,.1,2.3,3.1,2.3,3.1l.4,2.2h.5l.9.4.5.5v.4s.5.5.5.5h1.4c0,0,.3-.2.3-.2v-.4h.6l.2,1.1h4.6c0,.1,1.4,1.1,1.4,1.1l2.6,1.1.7.7.4.9.2.2.3-.2.6.5v.3c0,0-.2.6-.2.6h-1c0-.1-.3,0-.3,0l-.6.4v.6c-.1,0,0,1.3,0,1.3l.5.6v.6c0,0,.1.7.1.7l-.6.7.3,1.2v.8c0,0,.2.7.2.7l1,.6,1.7.5,2.9,1.1.2.4.7-.3.3.2v.3h1.1l2.5.6v1.2s-.4.6-.4.6h-.3c0,.1-.7,3-.7,3h-.2s-.7,2.2-.7,2.2l-.5-.2v1.4s-.3,1.7-.3,1.7l1.9,1.3,1.8,1.5.8,1.5,1.3,1.4,2,1.7.8.9,1.1,2.9,1,1.9,1.2.8,1.4,1.2,1.7,3v4.1s.6,1.4.6,1.4l.6,2.4-.6,4.1v.8s-.5,0-.5,0v.2c-.1,0-.2,3.5-.2,3.5l-.9,5.3h2.4c0-.1,0,.2,0,.2l-1.4,2.3,1.4,4.9-4.3,4v.3s.3.9.3.9l-2.9.6v.7s-.7.8-.7.8l-.4.8v.9s-.6.9-.6.9v.7c0,0-1.4,2-1.4,2l-1.7,2.1-.7,1.6v.6c0,0-4.7,5.1-4.7,5.1l-1.6,1,1.7,3.7-.2.3h-1.4c0,0-.6.2-.6.2v.3s.3,2.1.3,2.1l.4,5,1.1,2.1.8.3h1.3c0,0,.4-.3.4-.3h.5c0,0,.8-.6.8-.6l1.2-1.2,5.2-2.5.8.4,1.2,1.1-5,2.3v.2c-.1,0,4,2.6,4,2.6v.3c0,0-1.4,1-1.4,1v.8c0,0-.5,0-.5,0l-.3.2h-1c0,0-2,.6-2,.6l-.4-.2-.6.3-.4.5-1.7.9-1.8.3-.5,1.3-.3.2v.6c0,0-.2,0-.2,0l-.3-.4v.7c-.1,0-.6.2-.6.2l-.4.5-1.4.4-.5.3-.2,1-1.5,1.7-1.4,1.1-1.3.4-.5-.3-.2.5h-.5c0,0-.5.8-.5.8l-1.4,1.1-.7,1.5-1.1.4.2.6-.6,1-.7.6v.5c0,0-.2.5-.2.5l.2.4-.2.4v1.3s-.8.5-.8.5h-.6c0,.1.2,1.2.2,1.2l-.5.2-.3-.3h-1s-.9.3-.9.3l-.2-1-1.2-1.7-.8-2.6-.6-.8-2.7,2.5-3.2.4.2,1.2,1.4,1.8-.2,1h-.4s0,.4,0,.4l.8,2,.7.9,1.3.6v1.1s1.1.5,1.1.5l-.3,1.3v1.4c.1,0-1.1,1.4-1.1,1.4l.6,1.1h.9c0,0,2-.7,2-.7l1.6-1.2,2.4-.5h.2s.2.6.2.6l.9.6.3.5.7-.2.3-.3.7-.3,5.3-.2.2.4-1.4,3.6-.3.4-.9.8,1.4.9v.9s.4,2.7.4,2.7l2.7.8.5.4.7-.2.5.5v.9c-.1,0,1.4.2,1.4.2l.5-.4h.4s1.1.4,1.1.4l.7.7.3-.6.4-.2-.2.8-.7.5-.2.6-.5.5-.8,3.1.2,1.1.9,1.3.6,1.4-.3.4-.2,1-.3.2v.4c-.1,0-.6.6-.6.6l-.4,2.6h-.6c0,0-1.4-1-1.4-1l-.2-.8-3.4,1.7-.8.3h-.3c0,0,0,2.6,0,2.6l.4.6.3.2v.4s.5,1.1.5,1.1l-.4.4h-.2s.2.6.2.6l-1.1,1.1-.7,1.1-.3.2-.6.2-.5-.4-.8-.4-.5-.6h-.5c0,0-.6.4-.6.4l-.6,1v1.1c0,0,1.5.5,1.5.5l.9.7.5,1.1,3.4,2.1v.3s-.8,1.6-.8,1.6l-.4.3.5,1.2h-.6s-1.8.4-1.8.4h-2.4c0,0-.4-.2-.4-.2v-.7c0,0-.6-.6-.6-.6l-1.3-.3-3.5,1.1-1,.8-.9.3v-.8c0,0-.3,0-.3,0h-1c0,.1-.5.8-.5.8l-1.5-1.1v-1.1s-.4-1.3-.4-1.3l-2.9,1.5-1.3,1.3h-.2c0,0-.5-1.9-.5-1.9l-1.6,1h-1.2l-.8.4-.8.2-2-2.8-.9.5h-.2c0,0-1-2.8-1-2.8l-1.2.2-2.5,2.9-.7,1.2h-1.4l-1-.7-.6.8-1.3.2-.7.6h-.8c0-.1-.4-.5-.4-.5h-.6s0-.7,0-.7l1.5-2.1.6-1.8v-.5c0,0-1.1-2.2-1.1-2.2v-.4s.8-1.1.8-1.1v-.4s-.7-1.1-.7-1.1h-1.6c0-.1-.2-.9-.2-.9h-.7l-.3-.3h-.7c0,0-1-.4-1-.4l-.2-.3.2-.3v-.4c0,0-.6-.6-.6-.6h-.3c0,.1.2-.9.2-.9l-.9-1.1.2-.3-.4-.2v-.6s-.3-.4-.3-.4v-.6c.1,0,.3-.2.3-.2l-.2-.7.3-.5v-.9c-.1,0,0-.2,0-.2l-.2-.3.9-.7-.5-.6.3-.4h.6c0,0,2.1-1.5,2.1-1.5h1l.4-1.3,1.1-1,.4-.6.3-2.2.4-.6.9-.2,1.3.7.6-.3.4-.7v-1.4l.4-1.1,1.5-1.8.7-2.1,1.3-.7v-.8s-.4-.7-.4-.7l-.4-.4-.9-.2-1,.9-.9.2-.8-.4v-1c-.1,0,1.5-1.9,1.5-1.9l.4-1.1,1.3-.7,1.2-2,.7-.6.3-.5v-.5c.1,0,0-1.8,0-1.8l1.1-2.1v-.5c0,0-.4-.8-.4-.8l-1.6-.7v-.6c-.1,0,.7-1.3.7-1.3l.8-2v-1.9c0,0,.3-.3.3-.3h.7l1.5.8.7-.2.3-.4v-.5s-.4-1.7-.4-1.7l.3-.5.6-.5v-.3c0,0-.2-.7-.2-.7l-.8-1v-.6s.6-.7.6-.7l.9-.2,1.8.7.8-.7v-.3c.1,0,.3-1.1.3-1.1l-.5-.7-.5-.2h-1.3s-.6-.4-.6-.4l-.2-.8.2-.7,1.7-2.1.4-.2,1.6-.2.6-1.8,1.2-.8-2.3-1.8.2-.7-.5-.4v-.6c0,0-.6-.4-.6-.4l-.4-.7-1,.9-.2.8h-.3l-.7-.6h-.2s-.5.7-.5.7l-.6.3h-.5s-1,.9-1,.9l-.7.2-.3-.7v-.4c.1,0,.5-.4.5-.4v-.6h-.4c0,0,0-.5,0-.5h-.6c0,.1-.1-.5-.1-.5v-.3s.8-.2.8-.2v-.2c0,0-.5-.1-.5-.1l.3-1-1.1-1.2-1.5-.3-1.1-.6-.5.4v.3c-.1,0-.6-.2-.6-.2l-.5.3-.5-.2-.2.2h-1s-.9.8-.9.8l-1-.3-.2-.2h-.5c0,0-.1.2-.1.2h-.3s-.4-.4-.4-.4l-1.5.4-.2-.4-.4-.2h-1c0,0-.7,0-.7,0l-.8-1.2v-.3s.3-.2.3-.2l-.3-.7-1.4-.7-9.2-3.8h0l3.5-1.1v.4s3.1-1.5,3.1-1.5l.6-3.3.2-4.7,5.4-7.7,24.6-7.7,7.1-6.1-7.4-12.5-1.4-8.1-.9-2.4-1.8-12.3,6.4,1.3,2,1.6,4-.4,3.7-1.2,4.3-1.7,1.5,1.2,1.5,1.9.7-.7h.2s.4.3.4.3l.4-.3h.3s0-.3,0-.3l-.6-.6-.4-.8v-3.3s-1.3-1.9-1.3-1.9l-.4-.9-.2-1.3v-1.8c0,0-.3-1.3-.3-1.3l-3.1-3-2.7-1.6-.4-.4-.2-1,.9-1.9v-.9s-.8-.4-.8-.4h-1.3l-.4-.4v-.7c0,0,.9-1.5.9-1.5l-.8-3.4-.3-2.4-.5-.4-1.7-.7-3.4-.5-.7-.2-1.3-.6-.8-1.1-.3-2-.6-2.3-1.5-1.5Z"/>
    <path id="NL-NB" class="cls-1" d="M359.6,359.9l.7.5.7,1.6.9.8,3.3,1.5.3.3v.5s.6.4.6.4l.5,1.1,1.1,1.2.4.2h.9c0-.1,1.2-1.4,1.2-1.4l.7-.3h.7c0,.1.6.4.6.4l1.2,1.3,2.8,1.3v.6c0,0-.3,1-.3,1v.8s.2.5.2.5l.6.5-.5.8-1.4,1.2v1.4s4.3-1.1,4.3-1.1h1.6c0,0,2.4.5,2.4.5l2.9-.6h.7c0,0,.9.4.9.4l1.3,1.1.9.3.8-.3.9-.8.9-.3h1.3c0,.1,1.6.7,1.6.7h.6s2.4-1.7,2.4-1.7l3.8-1.8.6-.5.5-.8v-2.6c.1,0,.9-2.5.9-2.5l2.1-3.6,1.4-1.8.6-1.1.4-.3h1s.4.2.4.2l1.1,1.6,1.2.5,1.7.2h.8c0-.1,1.5-.5,1.5-.5l.7-.5.5-.7.2-1.1.4-.8,1.2-.5h.5l.8.4,1.9,1.9,2.5.6.8-.2.9-1.5.5-.5,2.1-.2,1.5-.3,1.5.4,2,1.3.7.3h1.5s.6.1.6.1l.8.9.7,2.1.8,1.2,1.3.8,2.3.4.9.9.9,1.5.6.6,2.3.4.5.3.9.9.3.6h-.1c0,.1.6,1.1.6,1.1l.7.6,1,.5.8.2h1.8s2.9-.7,2.9-.7l5.5-.6,1.8.3h0l1.6,1.5.6,2.3.3,2,.9,1.1,1.3.6.7.2,3.4.5,1.7.7.5.4.3,2.4.9,3.4-1,1.5v.7s.5.4.5.4h1.3l.8.4v.9s-.9,1.9-.9,1.9l.2,1,.4.4,2.7,1.6,3,3,.4,1.3v1.8c0,0,0,1.3,0,1.3l.4.9,1.3,1.9v3.3s.4.8.4.8l.6.6v.2s-.4,0-.4,0l-.4.3-.4-.3h-.2s-.7.7-.7.7l-1.5-1.9-1.5-1.2-4.3,1.8-3.7,1.2-4,.4-2-1.6-6.4-1.3,1.8,12.3.9,2.4,1.4,8.1,7.4,12.5-7.1,6.1-24.6,7.7-5.4,7.7-.2,4.7-.6,3.3-3.1,1.5v-.4s-3.5,1.1-3.5,1.1h0l-.5-.4-.5-3.8.2-1.5-.2-.7.2-.2v-.5c0,0,.1-.5.1-.5l-.2-1-1.4-1-2.1-2.3-.9-1.2-.4-1.1-3.1-.9h-.7c0,0,0,.2,0,.2l-.5.5-.3,1-1.3,1.2-3,.6-.4,1.1h-.7c0,0-2,2.7-2,2.7l-4.2-1-4.5-1.3-.2.2v.6s-.4,1.1-.4,1.1l-.6.5h-2.7s-2.5.3-2.5.3l-3.7-.9-2.9,1-.5-.2-1.1-1.1,1.8-6.8-.2-.5-4.7-3.1-3.2,1-1.4,1.1-3.4-1-.3-6.3-.9-.8-.5-.7-.4-1.1-.5-.7-5-5.6,2.6-5.2,1.4-2.3-3.2-7.5h-3.4c0,0-.6-.3-.6-.3l-.9-1.5v-1.3c0,0-.5-.2-.5-.2h-.4c0,0-1.4,1.2-1.4,1.2l-.6,1.1-.8.7-.4,1.2.3,2.2-.6,1v.9c0,0-4.7,4-4.7,4l-.8.8-3.5,4.6v-.7s-.4,0-.4,0v.4c0,0,.2.4.2.4l-.8.4-.9-.3,1.2-.3-.3-.4h-.5c0,.1-.1-.2-.1-.2l-.8-.5-.2-.8-.8-.7-.2-.6h-.4s-.3.4-.3.4l-.3-.5h-.7c0-.1.1-.6.1-.6h-.4c0,0,0,.4,0,.4l-1.1-.3v.3c0,0-1,.7-1,.7v.5h-.1s-.9-.3-.9-.3v-.5s-.7,0-.7,0l-.4-.3-.6.5-.9-.4-5.7,1.1-1.3-.5-.9-.6-.3-.8v-.8s-.2-.9-.2-.9l.3-.6h.4c0-.1,1.3-.2,1.3-.2l.3.6.6.3h1.2c0,.1,1.5.7,1.5.7l.7.4.9.2.9.5v.4s1,0,1,0v-.2s-.4-.2-.4-.2l.8-.7h-.1c0,0-.8.2-.8.2h-1.1c0,0,0-.2,0-.2l-.5-2.3v-.8c0,0-.3-1.5-.3-1.5v-.3s.6-.4.6-.4l.6-1v-.6c.1,0,.3.4.3.4h.4c0,.1.7-.5.7-.5l-1.2-.9.5-1.7.2-1.8-.5-.3-2-.3-.2-.5v-1.3c-.1,0-.4-.4-.4-.4l-2.2-.9h-.9c0,0-.7,0-.7,0l-.5-.7h-1c0-.1-1.5.2-1.5.2l-.3.5h-.7c0,0-.5.7-.5.7v.5s-.4.8-.4.8l-2,1-1,1.9-.7.5v.6s-1.5.4-1.5.4l-.5,1.6-.7,1.3-1.1.2-2.1,1.2.3,3.4-1.2.4-.9-.3-1.5.8-1.3-.7-6.5-1.2-4.8,1.8-.7-5,2.1-4.6-1.3-1.9-6.1,1-1-.2h-.7c0,.1-1.2,1.4-1.2,1.4l-2.6.5-6.7,3.7h-.4c0,0-.6.8-.6.8l.7.2h1.1s.5.8.5.8v.9c-.1,0,.2.3.2.3l-.2.4h-.5l.3.9h-.4v.4c-.1,0-.9.9-.9.9l1,2.5,4.8,6.3-.7.8.6,1.3-1.1-.2-3.3,1.7-1.4.3h-.7c0,0-2-.6-2-.6h-2.3c0,0-.7-3.3-.7-3.3l-.3-.4-7,.2h0l-.4-1.2h-.8c0,0-.4-1-.4-1l.2-.2v-1.1s.3-.4.3-.4v-1s-.6-2.8-.6-2.8l.5-1,1-.9-.6-1-4.6-10.9-1.6-3.3v-1.5s.8-2.4.8-2.4v-.2c0,0,1.3-3.6,1.3-3.6v-.8c.1,0,0-1.1,0-1.1v-.5c-.1,0-1.1-1.6-1.1-1.6l-4-4.9-.5-1.2v-.8c0,0,0-1.8,0-1.8l.9-1.9,1.4-1.4,3.3-1.5,1.3-2.4h0l3.3.4,2.9-.7,1.7-.7,2.4-.5,2.5-1.2,1.1-.6,1.1-1.1.8-1.4.3-1.3,1.5-1.5.4-.8h.7s.3-.9.3-.9l.8-.5,1.7-1.6,9.1,3,2.7.3,9.1-2.5,1.9-1.5,7.6-2.2,3.7-2.6,2.7-2.4,1.5-1.7.5-.9,1.2-3.5,1.9-2.2,1.8-1,1.7-.5h1.6c0,0,3.1.4,3.1.4l1.3-.3.7-.3,1.9-1.3,2.2-2.3,2.9-1.4,1.4-.3h2l3.5.8,4.1.6ZM350.5,432v.4s.6,0,.6,0l-.2.2v.2c.1,0,.6,0,.6,0l-.5.8h-.3c0,0,0,.6,0,.6h-.3c0,.1-.2-.6-.2-.6l.2-.2v-.4c0,0-.5.3-.5.3v-.2c-.1,0,0-.2,0-.2v-.3c0,0-.8.4-.8.4l.5.5-.3.4v.2c.1,0,0,.6,0,.6h-.2s-.5.4-.5.4l1.4.3.3.7.7-.2.3.4.4-.6v-.5h-.3s.3-.4.3-.4h.2c0,.1.3-.1.3-.1h-.3c0,0,.1-.3.1-.3h-.5c0,0,0,.2,0,.2h-.2s0-.2,0-.2h-.1c0,.1-.1-.5-.1-.5h.7c0,0,0-.4,0-.4h-.2c0-.1-.3,0-.3,0v-.4s.3-.1.3-.1l.2.2.5-.5h.3c0,0,.2.3.2.3v-.3c0,0,.6-.2.6-.2v-.3c0,0,.1-.2.1-.2l-.3-.4v.4c-.1,0-.6.2-.6.2l-1.5.2-.7-.2ZM352.6,433.2v.2s.9,0,.9,0l-.5-.4v.2c0,0-.3,0-.3,0ZM346.5,437.4v-.2c.1,0,0-.2,0-.2l-.3.4h.3ZM343.3,439.3v-.2s-.2,0-.2,0v.2s.2,0,.2,0ZM351.8,440.9v-1c-.1,0-.7.3-.7.3h-.6c0,0,.5.5.5.5l-.5.4,1.4-.2Z"/>
    <path id="NL-NH" class="cls-1" d="M372.4,256.9l-.7-.5v-.3c0,0,.7.4.7.4l.2.3h-.1ZM363,255.7h-.1c0,0,.2-.4.2-.4h.4s-.5.4-.5.4ZM367.8,252.8h-.2s0-.3,0-.3h.2s0,.3,0,.3ZM361.1,251.4h-.2s0-.2,0-.2h.3c0,0-.1.2-.1.2ZM367,199.2h-.1s0-.4,0-.4v.4ZM396,187.6l6.6,2.9,5.4,5.7h0l-.3.2h0l-5.4-5.7-6.3-2.8-1.6.2-.5-.2.2-.3,1.8-.2ZM323.6,131.9l-.5.2-2.1-.2h-1.1c0,0-2.6.7-2.6.7l-1.3.7v.3s.6.3.6.3l-.4.4h-1.1c0,0-.5-.5-.5-.5v-.6c-.1,0,0-.7,0-.7l.6-.6,1.2-.7,1.1-1,.8-.2h.9l1.7.4,2.6.9v.4ZM366.1,138.4v.4c-.1,0-.4,0-.4,0l-1.2,1-.2.5v1.4c0,0,1.1-.2,1.1-.2l3.1,6,.3.2.5,1.4,4.1,8-1.2,14h.9c0,0,.5,1,.5,1l.7,2.8,1.8,1.6.4.6,1.2,1.2.9.3h1.4s1.1-.7,1.1-.7l.4-.4,1.5-2.5h1.6s1.8.2,1.8.2l.5.3h.8c0,.1.4.6.4.6l.9.4h.7s.3-.2.3-.2h.3c0,.1,1.5-.3,1.5-.3l.3.4-1.1.3v.2s1.6,0,1.6,0l.8.7.6.2.5,1.7-.4.5.3.6-.3.5.2,1.2.3.2v.8c0,0,1.5,1.2,1.5,1.2h.7c0,0,0,.3,0,.3v.2c-.1,0-.9-.3-.9-.3l-.3.3v.8c0,0-.5.4-.5.4l-.3.4h-.9s-.1.2-.1.2l.2.2h-.6c0,.1,0,.3,0,.3l.6.5-.2.3-.2-.2h-.3s-.9.8-.9.8l-1.6.3-.2.2h-.3c0-.1-.9,0-.9,0l-.3.8v1.6c0,0-1,3.2-1,3.2l-.6.9-2.8,1.6-.8.8-.4.9h-1s-1.1.3-1.1.3l-.9.5-1.8,1.9-1.8.2-2.1.5-.4-.6.2-.8-.7-1.1h-1.6c0,.1-1.4-1.1-1.4-1.1l-.6-.9-1.7.5-.9.9-.3-.3.2-.3-.4.2h-.7c0,0,0,.4,0,.4l.2.3h-.4c0-.1.1-.8.1-.8l-.6-.7h-.7s-.9,1-.9,1h-.9c0,.1-.4.6-.4.6l-.8.4-.3.8v1.2c0,0,.4,2.5.4,2.5v.6c0,0,.1.3.1.3v.4c-.1,0,.1.5.1.5l-.3.8.3,1,.6,1v.4c0,0,.6,1.8.6,1.8l-.2,1.3,1.5,1.4v.9c.1,0,1.5,2.4,1.5,2.4v1.2c0,0,.5.6.5.6l.7,1.5v.9c.1,0,.6.9.6.9h.5s-.1.8-.1.8l.8.7.5,1.7-1.2,2.1-.4.2-.2.4h-.4c0,.1-.4,0-.4,0l-.4.5v1.1c0,0,0,1,0,1l.9,1v.3c0,0,0,.6,0,.6h-1.2c0,.1-.8,0-.8,0l-1.5.7-.5-.3.4,1,.5.2v.3c0,0,.1.1.1.1l.6-.8h.5s.3.2.3.2l-.6,1.3v1.2c0,0,.2.8.2.8l-.2.8.2.3h.7l.5.2.8-.2,1.4.4h1.1c0,0,.2-.3.2-.3l.2-2.5.3-.6.5-.5h.3c0,0,0-.3,0-.3l-.2-1,.2-.4-1.1-4.3v-.2c.1,0,.4,0,.4,0l1.2,4,.9.9v.4c0,0,1.5,0,1.5,0l.8-.2h.5c0,0,0,.3,0,.3l-1.2.5-.6.6h-1c0,.1-.8,1-.8,1h-.9l-.4,2.5-.8,1.3-.2.3h-.3v-.3c0,0,0-.3,0-.3h-.2c0,0-.4.4-.4.4l-.5.3-.3.8-.2,1.1-.4.6-.3.8-1.2-.2-.4.2-.3.2-.7,1.2-1,.4-.6.7-.9,2.6-.6.2-.3.5h-.6v.2c-.1,0,.2.5.2.5l-.2.5v.3c0,0-.3.6-.3.6h-.3c0,0-.7-.4-.7-.4l-.4-.6-.9.2-1.3.8-1.1-1.2h-.3c0,0-.7-.6-.7-.6l-.5.6.4,1h.9c0,.1,1.1,1,1.1,1v.2c-.1,0-.6,0-.6,0v.4c.1,0-.3.4-.3.4v-.7s-.4-.1-.4-.1h-.4l-.3.6.5.5.8.2.5.7.7.2.2.6.7.4.4.6.6.6.7.3h1.1c0,0,.7-.6.7-.6h1c0-.1.9.7.9.7v.7c-.1,0-.8.3-.8.3v.4l.3.3h.6c0,0-.2-.5-.2-.5h0c0,0,1.1.3,1.1.3l1.8-.4,1.2.2,1-.7,1.7.3,1.2.8,1.1,1,1.3.2.9.5.6-.2.4.3h0l.9,1.1.8.5,8.4-1.4,7.5,1.9,3.6,2.4,2.9,2.9h0l-3.6,2.6-3.5-.6-1.1,1.1-.7-.3-1.9,4-2.7,2.4v4.5c0,0-.4,1.6-.4,1.6l-1,2.3-2.4,4.4h-2.1l-6.2-.5-.2-.9,1.4-.7.9-.8.6-1.1-1.5-3-1.5-.8-.4.7h-5.2c0,.1-1.6-.3-1.6-.3l-2.5-1.2v-1.1s-.5-.6-.5-.6l2.5-1.1-1.7-1.6v-.7s-.4-1.5-.4-1.5l-.6.6h-.4c0-.1-.2-.6-.2-.6v-.9s-.4-.4-.4-.4v-.7s-.6-1.2-.6-1.2h.9l.4-.5.9-.4h.9s.1-.9.1-.9l1-.5h.4c0,0,.2,0,.2,0v.4l.4.2-.2-.9-.4-.6h-.4s-.6.4-.6.4l-.3-.3-.9,1.1-1.1-1-.5.2-.3.9-.4-.3-.3.9h-.5c0,.1-.2.6-.2.6h-.5l-1-2.5-.8-.3h-1.3s-.6.1-.6.1l-1,.7-.7,1.1-.4.2-2-.3h-.5c0,.1-1-.4-1-.4l-.9.4.2,1.7-.6.2-.4.4v.6c-.1,0-.8.2-.8.2l-.4.7v.6s-.5.4-.5.4l-3.2-.2-.4.2h-1.5c0,0-.5.3-.5.3l-.9.8-.3.3-.6,1.2-1.9,1.5-2.3,1.1h-.6c0-.1-1.3,0-1.3,0h0l-1.3-.3-1.2.5-.7,1-1.1.8-1.1.3-1.5,1-.9,1.2-.7-.5v-.4c.1,0,0-.7,0-.7l-.4-1,.2-2.3-2.4-.4-1.1.5-.9.9h-.2c0-.1-.3,0-.3,0h-2.3c0,.1-3.9,2.4-3.9,2.4l-2.5.2-1.7-.2-1.8-.7-1.3.4-1.8-.4-.8-.7v-1c-.1,0,0-.4,0-.4l1-1.2,1-5-.2-1.6,2.4-2.4,1.1-2.5v-.5s.8-2.1.8-2.1l1-1.4-3-1.3h-.3s-1.6.5-1.6.5l-.8,1.4-8.2-3.7h0l6.7-17.1,1.4-4,.5-2.1.2-2.5.6-.9-.5-1.3,1-2.1,1.4-3.9,1.5-7.2,1.6-10.1.8-7.6.9-6.2v-1.4s.7-4.5.7-4.5l1.1-10.2,1.1-5.1.7-1.8,1-2,2-6.9,2.8-11.2.6-2.9.5-10.8.4-1.7.9-1.7.7-.8.4-.2,1.8-.3.7.2.9-.5h2c0,0,0,.5,0,.5l.4-.2.3.2v.2c0,0-.4-.2-.4-.2l-.2.4v.6c.1,0,.4.3.4.3h.3s0,.5,0,.5h.1l.9-.2v-.6c0,0,.4-.4.4-.4l-.2-.3-.4.3-.2-.6,1.2-.2.4.8v.8s-1.2,2.5-1.2,2.5l-.3,1.7.2.2v.5h.4v.6c0,0,1.4,3,1.4,3l.3.5,7.9,4.6,3.9-1,1.4-.9,2.4-1v-.4c-.1,0,.3,0,.3,0l1.5-1.9.3-.7.2-1.1,1.1-1,1.6-.4h.8s1.8-.8,1.8-.8l1.4.4,1-.2.9-.4.3.3h.2c0,0,.5.4.5.4l1.4-1-.2-.2.2-.2,13.9-12h0l.5.7h0l-13.6,11.9ZM345,94.6l.6-.2.4.4.9,1.3,1.4,2.7v.7c-.1,0-.4,0-.4,0l-.2.5-.2-.7-.3,6.3.2,1.9v1.4s-.5,1.4-.5,1.4l-.5.2-1.5,1.2-.2.7-.8.5v2.1c-.1,0-1.1,1.3-1.1,1.3l-.3,1-.4.4-.2-.3-.7.6v.4c0,0-.5.8-.5.8l-.5.3-.9.4h-1.7c0,0-.3.3-.3.3l-3.3,4.2v.4s.6.3.6.3l-.4.5h-1l-.4-.5-.3.2-.8-.5h-.6l-1.8-.8-.3.3.3.2v.6c.1,0,1.5.6,1.5.6l.2.4.8.5v.3c.1,0-.2,0-.2,0l-.8-.4v.2c.1,0-1.3.6-1.3.6v.2s.4,0,.4,0v.2s-1.2.4-1.2.4l-1-.2-.7.4h.3c0,0-.3.5-.3.5h-.5c0,0-1-1-1-1l-1.1-2.2-.4-2.2.2-3.7.8-4,.6-2.1,1.1-2.8,2.3-4.4,3.6-5.7,1.3-1.7,3.9-6.4,1.6-2,1.5-1.3,1.1-.4h.3l.5.3.8,1.3.5.3.6,1.3v1.1c0,0,0,.7,0,.7l.3.5Z"/>
    <path id="NL-OV" class="cls-1" d="M495.3,155.3l.9,1.2.3.8.6.8,4.3,5,.9.5,2.3,3.2.8.8-4,4.4v1c-.1,0-2.5,1.2-2.5,1.2l-2.8.7-.3.2-.6,1,2.5,6.3,1.4,3,.6,2.2.8,1,.4.3h.2c0,0,.4.3.4.3l.6,1.2.9-.4.3.3,1.6.2.7-.9h.7s1-.4,1-.4v.5c.1,0,1.2.6,1.2.6h.3c0-.1.1.2.1.2l.9.5h.7c0,0,.6,1,.6,1l.7.5h.9c0,0,.4.6.4.6l.6.4h.3c0,0,.5-.7.5-.7h.4c0,0,.7,1.1.7,1.1l.4.2h.4c0,0,.4-.7.4-.7h.9c0,0,1.5-.8,1.5-.8h.7s.4.7.4.7l-.3.4v.9s.9.8.9.8l.9.3.3.4,1.1.7v.4c0,0,.3.3.3.3h.4s.5.4.5.4v.3c-.1,0,.6,1,.6,1l.2,1,.5.7v.8c-.1,0,.2.6.2.6v.6c0,0,.5.6.5.6h.3v.6c.1,0,.3,0,.3,0l1.1-.6.3-.5h1.2s.4-.7.4-.7l1.1.6.4-.3v-.5c0,0,.8-.5.8-.5l.3-.6v.5c.1,0,.5.3.5.3v.8s.4.5.4.5l.7.5h.7c0,.1,1.3-.3,1.3-.3l.4-.4.5-1.5.5.3v.5s.5.2.5.2v.3c.1,0,1.1,0,1.1,0l.3-.2h.8s.7.4.7.4h.8l.3.6h.5s.2.5.2.5h.3s0,.4,0,.4h.3l.2-.3-.3-3.3-.4-1.1-.3-2.3v-.4c0,0,3.7-3,3.7-3l1-.6,7.7-1.7,7.4,3.5,4.1,1.4-.6,1.4h.3c0,0,.2.5.2.5l-.8.9.2.4-.4,1.2h1.4c0,0,.2.1.2.1l.5.8.3.2.6,1.2-.3,2.3-.4,1.4v1.6c0,0,5.7,5.1,5.7,5.1l-1.7.6h-.7s-.8-.3-.8-.3h-.7s-1.2-.3-1.2-.3l-.6,2.1-.6.5v.3s-4.3-.9-4.3-.9l3,6.3-.9,6.9,1.9,1.5.7.4h.7c0,.1,3.2,2.6,3.2,2.6l1,.4,2,.6,7.2-.3,1.4.3h.7c0,0,0,1.8,0,1.8l1.2-.3,5.4,1.5,4.1,1.5.8-.3,1.7-1.7.5-.7,1.3-3.1,1.3-1,.6.8v.5c0,0,1.1,2.4,1.1,2.4l1,4.1,1.4,1.2,1.7,4v.4s.7,0,.7,0l1.2.5.5-.3.4.2v.6s.6,1,.6,1l1.2,3.6v4.2c0,0-2.1,2.9-2.1,2.9l-.2,1.3-.9,1.3v1c0,0-.2,1-.2,1l-.9,1.8-.4.4-1,2.2v.6c0,0,0,.9,0,.9l.3.9v.5s-.2.1-.2.1v.9c0,0,.8.7.8.7l1.2,2.9,2.4,2.7-.5,1.2-2.6,1.7h-2c0,.1-.4.4-.4.4l-.3-.3-1.5-.4-1.1.2h-.3c0-.1-.8.3-.8.3v.4c0,0-.7.5-.7.5v1.3c0,0-.5,1.5-.5,1.5l-.7.9-1.1,2.3-1.2,1.9-.2.2-2.1.4-2.9.4-.2.4v.9c-.1,0-2.8,2.5-2.8,2.5l-1.1,5.1-2,2-4.4.5h-12.6s-2.1-.9-2.1-.9l-2.6-.5-1.8-.8,1.3-2.1.2-1.3-.2-.6v-1.1s-.3-.2-.3-.2l.4-.6v-.5s-.2-.7-.2-.7l-.3-.3-2.5-1.3h-.5s-.6,1-.6,1l-.6-.8-.6-.2-.3.2-.2.6-.5.2-1,.8-1-.9v-.3c0,0,.3-.8.3-.8l-.5-.4-.2-.5-.8-.3v-.3s-.4-.2-.4-.2v.2c0,0-4.4.9-4.4.9l-4.8-.8-2.3.8h-.4c0-.1-.4-.5-.4-.5l-1.2-.6-.4-.5-.7-1.5v-1.1c0,0-.3-.2-.3-.2h-.8s-.7-.3-.7-.3l-1-2-2.4-2.6-.5-1.4-.9-1.2v-1s-1.9-.2-1.9-.2h-1.6c0,0-.7-.2-.7-.2l-1.3.6h-2.3c0,.1-.2.7-.2.7h-.5c0,0-.8.6-.8.6v1.7c0,0-1.1,0-1.1,0l-1,.3h-2.5s-.4-.4-.4-.4v-.3c0,0-.5,0-.5,0v-.3c0,0-1.5.4-1.5.4l-.3.4-.8-.3v.6c0,0-1.2-.3-1.2-.3h-1.6c0,.1-.3-.1-.3-.1h-.8s-.8-.3-.8-.3l-1.9-.3-1.8-1.3h-1.3c0,0-.8-.2-.8-.2l-.5.2h-.5c0,0-.2,0-.2,0l-.2.7v1.2c-.1,0-.7-.6-.7-.6l-.3.5.3.2v.2c0,0-.6-.2-.6-.2l.2.7.4.5v.4s-.2.2-.2.2l-.3-.2v-.6s-.3-.6-.3-.6l-1-.3-.8-.6-.3-1.3.3-.7.9-.6.2-.7v-.4c0,0-1.6.1-1.6.1l-.7-.5-1.4-.3v-.8l.7-1-.7-.6-.3-1.5-1.2-1.4v-1.9c0,0-.7-.9-.7-.9l-.3-1.1-.3-.5h-1.3s-.8-.3-.8-.3v-2.2c0,0-.5-.9-.5-.9l-1.2-.2v-.4s.5-.6.5-.6l.2-1.4.2-1.9-.2-2,.3-.5,1.2-.4.7-.6-.2-.4-.4-.3-1-.2-.3-.2-.2-.5v-.7s.5-.7.5-.7l2.4-.5,2.2-.9.3-.4.3-.6v-1.9s.6-1.1.6-1.1l.7-2.6v-.7c0,0-.8-2-.8-2l-1.8-2.7-1-.7-.5-.6v-1.9c.1,0,0-2.2,0-2.2l-.3-1-1-1.2-1.8-.8-1-.8-.6-.9-.8-1.9-2.3-1.8h-.5c0,0-.8-.5-.8-.5l-.3.6-.5.4-1.3.5-5.3,5.5-1.1-1.5-.7.2-1.5,1.1-.5-.4-.9.4-.4-1.2-1.3-2.7-.9-1.4-1.6-2-1.9-1.7-1.6.6h0l-1-5.5-.4-1.1-5.2-5.5-1.1-.2h-2.9s0-5.2,0-5.2h7.2s.3-.5.3-.5l.6-.3,7.1-1.6,1,.4.6.7,1.8-.2,2.8-1.6.2-.4,4-.9,2.7-1.8.6-.7v-.3s-.3-.5-.3-.5l-1.4-1.4-2-.5-1.9-1.7-1.2-.4h-.8c0,0-1.6-.7-1.6-.7v.3s-.5,0-.5,0l-.3-.3v-.7s1.3-1.6,1.3-1.6l1.1-.8.7-.8h.4c0,0,.3-.6.3-.6v-.7s-.5-1.2-.5-1.2l-.4-.3h-.2s0-.7,0-.7l-.4-.7-.9-.4-1.2-4.2-.9-2.2-.4-.7-2.3-2.2h-.4s-.7-.5-.7-.5l-1.2-1.1-.7-1-2.4-1.6-1.1-.5-1.4-.3-.3-.2h-2.2v-.4s-1.7-1.4-1.7-1.4l-1.1-1.9h0l2.9-2,.2.3,1.5.8.3.8h.3l.5-.4.7.3h1.1s.4.2.4.2h.6s1.1.6,1.1.6h.6c0,0,2.5-1.1,2.5-1.1l.5-.7,1.1-.7.6-.9,1.1-.7v-1s.2-.2.2-.2l-.2-.3.5-.2v-.4s1.3-.2,1.3-.2l.6-.2,1.1.5v-.8c-.1,0,0-.3,0-.3l.5-.4,1.6-.4.4,1.5.7,1,.6,1.5h.5c0,0,.6.7.6.7h.5c0,0,.4,0,.4,0l.4-.3,1-.3,1.4-.2.5,1.1,1-.4,1.8-1.1.2-.4-.4-2,1.4-.6,1.6.2h.6c0,0,.5-.6.5-.6l.6-.3h.7c0,0,1.5-1,1.5-1l1.5-1.3Z"/>
    <path id="NL-UT" class="cls-1" d="M334.5,279.3h1.3c0-.1.6,0,.6,0l2.3-1.1,1.9-1.5.6-1.2.3-.3.9-.8.5-.2h1.5c0,0,.4-.3.4-.3l3.2.2.5-.4v-.6s.4-.7.4-.7l.6-.2v-.6c.1,0,.5-.4.5-.4l.6-.2-.2-1.7.9-.4,1,.5h.5c0-.1,2,.2,2,.2l.4-.2.7-1.1,1-.7.6-.2h1.3s.8.4.8.4l1,2.4h.5l.2-.5h.4c0-.1.3-1,.3-1l.4.3.3-.9.5-.2,1.1,1,1-1.1.3.3.6-.4h.4s.4.6.4.6l.2.9-.4-.2v-.4l-.2-.2h-.4c0,0-1,.6-1,.6v.9c-.1,0-1.1,0-1.1,0l-.9.4-.4.5h-.9l.6,1.2v.7s.4.4.4.4v.9s.2.4.2.4h.4c0,.1.6-.4.6-.4l.5,1.5v.7s1.6,1.6,1.6,1.6l-2.5,1.1.5.6v1.1s2.5,1.2,2.5,1.2l1.5.4h5.2c0-.1.4-.9.4-.9l1.5.8,1.5,3-.6,1.1-.9.8-1.4.7.2.9,6.2.5h2.1l2.4-4.4,1-2.3.3-1.6v-4.5c0,0,2.7-2.4,2.7-2.4l1.9-4,.7.3,1.1-1,3.5.6,3.6-2.6h0l6.2,6.1,2.4,2h0l-1.4,6,5,4v1.2s-.3,1.5-.3,1.5l-.5.4-.9-.3-.5.4.4.4.2,1.2v.7c0,0,1.8.7,1.8.7l4.6.6v.3c0,0,.9.3.9.3v.4c0,0,.3.1.3.1l-.2,1.3,1,.4h1.2s-.2,1.2-.2,1.2v.3c0,0,1.7.8,1.7.8l-.6,1.1-1.3.2-.2,1.1h-.3c0,0,.6.6.6.6l.6.2v.7s.5.3.5.3v.3l-2.5-.3.9.6v.4c0,0-1.1,1-1.1,1l.2,2-1.7,1.1-1.3,1.7.2.3h.5c0,.1,0,.5,0,.5l2.1,1.2,1-.4h1.4s.3-1.1.3-1.1h1.1c0,0,1,.1,1,.1l1.2-1.2-.8-.3.4-.7,1,.3v-.4c0,0,.1-.5.1-.5l-.7-.2.3-.8-.3-.3v-.3s-.4-.1-.4-.1v-.5c0,0,1-.3,1-.3l.3.4h.3c0,0,0-.4,0-.4h.8c0-.1.2,1,.2,1l-.2.6.5.3v1.4c0,0,.5.5.5.5h.3s.2,1.6.2,1.6l-.4,1.5v.3c.1,0-.2,2.9-.2,2.9l-.4,1.2.9.4-.2,1.4,2.3.9-.2,3.4h-.7s1.2,1.3,1.2,1.3l.3-.3.4.4.2.3v1.3c.1,0,.6.5.6.5l1,.9.8.2.5.8.3,1.6,1.2,1.4v.8c-.1,0-.4.5-.4.5v.5s.6,1.3.6,1.3v1.2s-.7.2-.7.2v1c0,0-.6-.4-.6-.4l-1.2,1.1-2.1-1.4-3.1-.8-.9-.4-.9-.7-.9-1.4-3.9-1.4-.8-.7-1.7-1-.7-.2-2.1.2-3.3-.7-.8.4-1.6,1.3-3.8,1.5h-1.2c0,0-1.8-.3-1.8-.3l-1,.2-1,.7-1.2,1.5-1.5.8h-1c0,0-1.9-1.3-1.9-1.3l-2-.3-1.5-.4-1.3-.7-1.4-1.5-1-.6-.9.2-.5.6-1.1,2.1-.9.8-.7.2-1.6-.3-1.7-1.1h0l-.8-.5-2.2-.4-.9-.5-.6-1.3-.3-2-.3-.6-1.6-.9-1.2-.5-.9-.3h-1.4c0,0-1.3.3-1.3.3l-2.3,1.1-.4.6-2.1,1.7-.8.9-.3.9-.6.9h-1.2c0,.1-1.9-1.3-1.9-1.3l-.9-.2h-.5c0,0-1.1.7-1.1.7l-1.6,2.2-.7.5h-.9c0,0-1.8-.8-1.8-.8h-.7l-.8.9-.8,1.9-.9,1.2-2.4.6h-1.1c0,0-1.3.5-1.3.5l-1-3.9-.8-.7-.3-1.1-.9-.6-1.4-1.6-1.3-1.8.5-.2-.8-1.1-.9-.3-1.1-1.4,4.9-1.2v-.3c.1,0-.9-1.9-.9-1.9l-.8.4h-2c0,0-.7.5-.7.5h-1.4c0,.1-.3-1-.3-1v-.7l1.1-.8-.2-1.5.9-.6,1.6-2.4,2-1.5,2.5-.9.6-1.3h-3.8s-1.2.3-1.2.3v-1.1s-.6-.8-.6-.8l-.2-1-.2-3v-1.8c0,0-4.1-3-4.1-3l.2-.8,1.5-.7.2-1.6.7-1,1-.4,1.1-.2.7-.4.3,1.2.7.5,2.4.3h.9c0-.1,0-.4,0-.4l.5-.3-.5-3.1,2.5-1v-.3s-4-2.8-4-2.8l-1.8-.7-3.5-3.8-.2-.6h-.8s-.2-1-.2-1v-1.9s-.8-1.4-.8-1.4v-1.3Z"/>
    <path id="NL-ZE" class="cls-1" d="M254.6,449.1h.3s0-.3,0-.3h.1c0,0,.6,1.3.6,1.3l-.2.2h-1.2c0,.1-1.5-.5-1.5-.5l-.4-.4.9-.6,1.1.2.2.3ZM183.1,441.5l2.3.7-.2.5h.1c0,0,.3,0,.3,0v.2c.1,0,.8,0,.8,0l1.2,1.4.7.3h1.3s.7.2.7.2l.2.4.7.2.2.4,3,.9,5.5.9.6.7v.4c0,0,.4.1.4.1v.4c0,0,2,1.3,2,1.3l.9,1.3h1.2c0,.1.9-.2.9-.2l3,.6v.4c.1,0-.4.4-.4.4v.7c0,0,1.2.7,1.2.7h.5s0-.2,0-.2l-.2-2.1v-.3c0,0,2.4,0,2.4,0l.4.5.9.5,1.2.2-.4.4v.4s.9,1.7.9,1.7h.3c0-.1-.3-1.2-.3-1.2l.4-.2-.3-1h.4s-.1.3-.1.3l.2.6.4-.2.3-.7h.3s-.2.3-.2.3l.2.3h.9c0,.1.9.7.9.7h3.1c0,0,.8-1.1.8-1.1l.3-.7,1.8-.5.5-.7,2.2-1.5,1.3-.6,2-.4v-.2c0,0,1-.3,1-.3h.4c0,0,.3-.2.3-.2l.6.5.2-.8v-.3c-.1,0,.3-.8.3-.8v-1.2c0,0,.8-.7.8-.7l-.3-.7v-1.7c-.1,0,1.1-1.8,1.1-1.8l2,.2.3.4,3,.5-.2.4.3.3h.3c0-.1.5.7.5.7l.4.2.5,1.8h-.2c0,.1.1.6.1.6h.5l.9,2,.7.9,3.4.2,1.6.3,2.8,2.5,2.1,2.5,1.2.7-1.3-1.7-.6-1.4,1.3-.5h.8s.4.2.4.2l.4.8h.7l.5.4.7.9v.4c0,0,.2,0,.2,0l.3-.5-.5-.5-.3-.6h1.9c0,0-.3-.2-.3-.2l-1.7-.3-.3-.3h2.7c0-.1.9,0,.9,0l-.5-.5h-2.3s-1.1-.3-1.1-.3l-1-1.7v-.9c0,0,.9-.3.9-.3l.5.2.8-.6h.5c0,0,.3,2.3.3,2.3l1.7,1,.9.2-1.4-.7-.7-.7-.2-.5v-1s.3-.2.3-.2l.3.3v.8c.1,0,.3-1.7.3-1.7l.5-.5h1l.8.4h.4s.9.6.9.6l.5,1.6.7,1.2,1.3,1.4-1.7,2.6-6.2,8-8.2,6.2-2.2,1.4-.5.5-1.6.8-.4.7-2.2.5-.3-.2-.4-.7-.5.4-.9.4-.4-.7h-.8s-1.5.9-1.5.9l-.6.6-.6.2-.6.6-.2-.3-1.1,1.8-1.7.3v.6s-.5.9-.5.9h-1.3c0,0-.6.3-.6.3v.3s-.8.3-.8.3l-.4-.9-.6-.7-.4.6h-.7s-.4.7-.4.7l.2.9h-.4c0,0-.5.7-.5.7l-1.3.6-.7-.3-.2.3-.6.3-.2-.6-.7-.8,1.4-1.1.4-.7-.7-1.2-1.1.5-2.5,1.8-.9-.5-.3.2h-.3c0-.1-.6.2-.6.2l-.7-.3-.9.7-.8.2-1.6-.7h-.6c0,0-.1,0-.1,0l.2.6h-.1c0,0-.6-.4-.6-.4l-.2-.5-.7-.2-.2-.4v-2.2c-.1,0,0-3.3,0-3.3l.7-2-.2-.3-.9-.2-1.1-1-.5-.2-.2.4-.5.3-.6-.4-.7-1.3-.5-.3-.5.3-3-.7-.8.3-2.7-.8-.3-.2-.4-.8h-1.3s-.3-.5-.3-.5l-2.2-1.3h-1.5l-.6.4-1.7-1h-.6c0,0-.4-.5-.4-.5l-3.4-1.8-1.2,1.4.6,1-.5.3.2.5-.2.4-.4-.4h-.4c0,0-.5-.4-.5-.4v-.3s-1.1-.5-1.1-.5l-.4.2-.2.5-.4.3-1.4-.2-.6,1.3h-.7c0,0-.9-.8-.9-.8l-1.2.2,1.5,7.9-5.5.7-3.6.3h-.7c0,0-1.7-.7-1.7-.7h-.5s-.3-1.8-.3-1.8l-.2-.3-.9-.8-.9.6-.5-1-1.3-.8-.7-1.4-1.1-.3-.4-.5.7-.6v-1.1s-.2-.3-.2-.3l-1.1-.7-.5-1.2,1.1-.6-2-2.4v-.3s3-3.5,3-3.5l-.2-1.7-1-1.4v-.6c0,0,0-1.4,0-1.4l-1-1.9.6-.9,1-.7v.3s.2,0,.2,0v-.4c0,0,2.3-.8,2.3-.8l2.8-1.4,1-.2v.6c.1,0,.7.2.7.2v-.4c.1,0,1.6-.5,1.6-.5l.6-.5,1.8-.3,1.8-.6.7-.3v-.3c0,0,.8,0,.8,0l1.2-1.1h1.4c0-.1.5,0,.5,0l2,.2.8.3v.5ZM202.3,419.7v.2c.1,0-.3-.1-.3-.1l-.2-.3h.4l.2.2ZM200.9,417.8h-.2c0,0,.3-.2.3-.2v.2ZM200.6,417h0c0,.1,0,0,0,0v-.4c.1,0,.2.4.2.4ZM204,417v.2c0,0-.2,0-.2,0v-.3c0,0,.3-.7.3-.7v.9ZM204.5,416.1v.3l-.2-.6.3-.3v.2c.1,0-.1.4-.1.4ZM200.6,415.6h-.2l.3-.2.3-.6v.5c.1,0-.4.3-.4.3ZM209.3,413.6h.6c0,0,.2,0,.2,0l.6.4-.9.2h-2s0-.5,0-.5l.2-.3h.4s.9.2.9.2ZM223,413.1h-.3v-.2l.4-.4.2.3-.3.3ZM211.1,413.2l-.8-.4h0c0,0,.3-.2.3-.2l.6.2-.2.4ZM210,412.6v.6c.1,0-1.2-.1-1.2-.1l-.3-.3,1.1-.3h.3v.2ZM199.8,412.4l.5.2.5.5.2.5v.7s-.3,0-.3,0l-.3,1-.2-.2-.2-1.1-.5-1.1v-.6s.3.1.3.1ZM198.6,411.9h0c0,.1-.3-.6-.3-.6h.4c0,0,0,.6,0,.6ZM198,410.5h.2s0,.4,0,.4l-.3-.2h-.5c0,0,0-.2,0-.2h.4ZM258.2,401.6h-.4c0-.1.3-.2.3-.2l.2.2ZM218.3,372.2l1,1,3.5,1.1,1.2-.2,2.5-3.1,1.9-1.1,2.3-.6,2.2.3,1.7,1.6,4.6,1,.3.5.5,2.1,2,2.8.2,3.8.4,1.5,1.1,1.9.9.4,5.3.4,2.3.8h2.3c0,0,1.8.1,1.8.1l5.6,4.2,4,2.7,2.3.7h0l-1.3,2.4-3.3,1.5-1.4,1.4-.9,1.9-.2,1.8v.8c0,0,.6,1.2.6,1.2l4,4.9.9,1.6v.5c.1,0,.2,1.1.2,1.1v.8c-.1,0-1.5,3.6-1.5,3.6v.2c0,0-.7,2.4-.7,2.4v1.5s1.6,3.3,1.6,3.3l4.6,10.9.6,1-1,.9-.5,1,.6,2.8v1s-.3.4-.3.4v1.1s-.2.2-.2.2l.4.9h.8c0,0,.4,1.3.4,1.3h0l-4.4.2.2-.4v-1.1c0,0-1.4-2.5-1.4-2.5l-2.2-1-.8.2-.3-.8-.5-.5h-1.1c0,.1-1,.8-1,.8l-.7.3h-.6l-1.9,1.1h-.8l-1.4-.3-1-.6-2.9-.5-2.9-1.1h-.3c0,0-.2,0-.2,0l-.7-.8-1.3-.4-1.3-1.3v-.3s-.6-.9-.6-.9l.4-.7-2-.6v-.8c-.1,0-.3,0-.3,0l-.2.3-1.8-.9-.6-.7h-.7s-.2-.4-.2-.4l-.4-.2-.2-.4-1.3-.9-.7-1.2-.7-.4-1.6,1.1h-1.4c0,.1-2,1.5-2,1.5l-1-.5h-.2c0,0,.1,1.1.1,1.1h-.5c0,.1.5,1.3.5,1.3v.7s-.7,1.3-.7,1.3l-.3,1.3-.3.3v.6s-.4.3-.4.3l-1.4,3.9-.9.4-2.7-.8-1,.5-.6.6h-.9c0,0-.6.4-.6.4h-1c0,.1-.6.5-.6.5h-2.1c0,.1,0,.4,0,.4l-.5-.2-1.3-1.6-1.2-.8v-.3c-.1,0-1.9-1.1-1.9-1.1l.2-.8h-1.5c0,0-1.3-1-1.3-1l-1.1.6h-1.2l-.4-.2-.7-.6-.6-2.3h-.6c0,0-.6-1.1-.6-1.1l-1.3-1.3-1.9-1.5-.9-.5-3.7-.2-.7.6v.6c0,0-.8.4-.8.4h-.3c0,.1-.8,0-.8,0l-.6.2-.6-.2-.9.2-.9-.7v-1.5c0,0-.5,0-.5,0v1.6c0,0-.7-.2-.7-.2v-.6l-.3.5h-.1c0,0,0-.6,0-.6h-.2c0,0-.2.4-.2.4v.2s1.2.6,1.2.6v.2l-1.1-.3-.7.2v.3s-.3-.2-.3-.2l-.6.3-.6-.3-.3-.7-1.1-1h-.7c0,0-.2-.3-.2-.3l-1.7-1.2-1.1-1.1-.6-.7-1.7-3.3-1.2-1.7-1.2-1.2-.8-.2-3.3-2.4-1.3-1.7-.6-.3-.2-.6-.5-.3.2-1.6.5-1.5,2.6-1.5,2.6-2.1,1.9-1.2,3-1.8,1-.3,1.6-1.2,3.3-1.7,1.1-.2,1.4.3h1.1c0,0,1.3.2,1.3.2l1.4.9h.5s3.7-1.4,3.7-1.4l1.6-.4.6-.4.5-2.4v-1.5c0,0,.3-.1.3-.1v-.4c-.1,0-.4,0-.4,0l-.2-.3.9-.2.5-.7,2.4-2.5-.2-.4.6-.2.7-1.6-.4-.5v-.2c.1,0,.6,0,.6,0v-2.2s-1.8-.6-1.8-.6l-1.4-1.1-1.3-2-.4-1.2-.2-1.2v-1.3s1-2.2,1-2.2l1-1.8.7-.8.7-.3,2.4-.8h1.3c0,0,3.8-1.6,3.8-1.6h3.1s3.2.6,3.2.6l.5-2.4.5-.7.9-.5ZM214.1,384.8h.4v.3l-.6-.2v-.6c-.1,0-.7,0-.7,0l-.5.4-.4,1,.2.3-3.6,2.4-.7.4-3.5,1.2v2.2s.6,0,.6,0l-.2.8h-.7s-1,2.5-1,2.5h.2c0,0,.4-.4.4-.4v.3s-1.1,1.2-1.1,1.2l1.1.6h-.2c0,.1-1-.4-1-.4l-.4.4.2.8-.3.5v-.2c-.1,0,0-.4,0-.4l-.7-.6-1.1,1v.2s.2,0,.2,0l-.3.2v.6c0,0-.3,0-.3,0v.3s-.2.4-.2.4l-.3,2.9h.3c0,0,0,.4,0,.4l.6-.5v.4s1.2-.3,1.2-.3l1.4.9h.4l.3.5h1.4s1.1-.7,1.1-.7h.9c0,.1.5-.3.5-.3h1.4s.3-.4.3-.4l1.5.3.8-.7,2.3-.2.5-.4h1s1.3.4,1.3.4l1.4-.5h.6l.5.6,2.3.4,1.3,1.4,2,3.5.4-.4v.4c0,0-.4.2-.4.2v.3h.3l.2.7.5.9h.3c0,0-.1.7-.1.7l-.8.5-2.1.6-1.4,1.8-1,.3-.5-.2-.9-.9-.2-.5-1.1-.8-2.1.5-1.4,1.2-2-.5h-.1c0,.1-1.6-.8-1.6-.8l-1.2-.2-.2.2h-.2c0-.1-3.2,1.7-3.2,1.7l-.7.9-1.8,1.2-.8,1.4-.4.2-.6-1.4.3-1.2.4.2.4,1.3h.1s0-.5,0-.5l-.3-.4v-.4s-.4-.3-.4-.3l-.4-1.5-1.2-1.6,1.5-1.9h-.1c0,0-.3.3-.3.3l-.9,1.4h-.5c0,.1-.9-.4-.9-.4l-.8-.9-1.2-.6-.2-.4-.4.2-.5-.3-1-2.4v-.6c0,0,.1,0,.1,0v-.4c0,0-.8.2-.8.2l-1.4.7.2,1.8.2.4,1.1,1v.4c0,0,.6.7.6.7v.4c0,0,1.1.4,1.1.4l1.4,1.1h.4c0,.1,1.1,2.4,1.1,2.4l.7,2.2,1.6,2.4.5.4v.4l.2-.4.4.8-.3-.7.4.2v-.2c0,0,1.6-.3,1.6-.3l-.4-.2h-1.1c0,.1-.4-.4-.4-.4l1.1-.5.7-.7.9-.2h0c0-.1-.4-.4-.4-.4v-.4c0,0,.7-1.4.7-1.4v-.9c.1,0,1.5-.9,1.5-.9h.6s-.3.8-.3.8h.4s.1-.6.1-.6h2.9c0,0,2.5.3,2.5.3l1-.3.3-.5h.3c0-.1,1.1-.3,1.1-.3l.2-.3h1.5c0,0,.6,0,.6,0l.9.5.3.4v.3s.4.4.4.4l1.4.3.4-.2v-.5c-.1,0,.3-.3.3-.3h.2s.2.6.2.6l1.9-.5,1.1.4.3-.3.3.2.2-.5h.7s.6-.4.6-.4l.7.3h1s.4.4.4.4v1c.1,0,.4.6.4.6l1.1,1.5,1.9-.8,1.4.3,2.7,1,1.2.6h.2c0,0,0,.8,0,.8l.2.7h.4v-1.6c-.1,0,.7.5.7.5h.6c0,0,.5,1.1.5,1.1h.4c0,0,0,.3,0,.3l1.5,1,.7.7.9-.3.4.6-.2.8.3.9.3.2.3.6v.3l-.4.6h.1c0,.1-.2.4-.2.4l.3.3.3.8.3.2.9,1.2h.2c0,0,.1.2.1.2h-.1c0,0,1,1.7,1,1.7h.6s1.1,2.4,1.1,2.4l1.1.3,2.9,1.8h0c0-.1.3,0,.3,0l.5.7h.7c0,0,1.9-.2,1.9-.2l.6-.6,2-1h.6s.3-.4.3-.4l2.3.4.4.2.2.4.6.2h1.3c0,0-.4-3.8-.4-3.8l.3-.9-.7-5.3-5.2-2.4-.4-.7v-.5s.6-1.4.6-1.4l-.9-.8-.2-.6h-1.4c0,0-.4-.3-.4-.3l-.3.4h-.6c0,.1-.2.1-.2.1l-.8-.8-1,.4h-2.9c0-.1-.1-.3-.1-.3h-1.1c0,0,0-.3,0-.3l-2.1-.2-.4-.4.2-.3h-.3c0,0,0-.3,0-.3l-.2-.2h-.5s-.6-1.6-.6-1.6l.2-.3-.8-.7h-.3c0,.1-.2-.1-.2-.1v-.9c0,0-2.1-.4-2.1-.4l-.8-.4.3-.9-.8-1.1-1.3-.5-.5-.6-.8-.4-1.7-.3-.7-.9v-1s.8-1.2.8-1.2l1.5-.2v-.2s.8-.3.8-.3l.4.2.8-.5.5.2,1.9-1.4h.9c0,0,.9-1,.9-1l.7-.2h.3c0,.1.1-.2.1-.2l1.6-.5,1,.3h.6c0,0,1.5.2,1.5.2l.4.4.4,1,.3-.2h.2c0,.1.8.9.8.9l-.2-.5h1.3s2.1-.4,2.1-.4l.4.3h1c0,0,.1,0,.1,0l.2-.6,1.4-.2v-.4c0,0-.5,0-.5,0v-.2s.8-.4.8-.4v-.7s-.6,0-.6,0l-.6.4-.4-.2-.6.4h-3.6c0,0-1.2-2.5-1.2-2.5l-1-.8h-.4s-.5-.4-.5-.4v-2c0,0,0-.3,0-.3l.5.2v-.6l1.8-1.6h1.2s2.2.7,2.2.7l.9.4.6.5,1.7.7,2.1,1.3v-1c0,0-.6-.9-.6-.9l-1.3-.8v.2c0,0-.5,0-.5,0l-1.9-1.2-.2-.3.4-.7h0c0-.1-.3-.2-.3-.2l-.6.8-1.6-.6v-.2c.1,0-.1-.2-.1-.2h0c0-.1.3,0,.3,0l2.2-.2v-.4s-.4,0-.4,0v-.2s-.2-.2-.2-.2h-1.3c0,.1-.6.5-.6.5h0c0-.1.6-.4.6-.4h1.2c0-.1.1-.4.1-.4h.2v.2s.4,0,.4,0v-.3c0,0,.4-.2.4-.2l-.5-1.4-.4-.3-.3-.5-.7.5-4.3.6-1.7,1.1v.4c.1,0,1.3,1.2,1.3,1.2l-.2.6h-.6l-.3.6.3.2v.2s-.2.2-.2.2h-.3s0,.5,0,.5l-1.7,1-.3.6-1.2,1.2-1.4.7-1.1-.5-1.2.6-.2.4-1.6.6-1.8,1h-2s-.7.6-.7.6h-2c0,.1-.9-.4-.9-.4l-1.5-1.6h-.3l-.8-1.5-.3-.3h-.2s-.6,1-.6,1l-.7.2v-.2s-.6,0-.6,0l-.4.2-2.3-.7v-.3c-.1,0,2.6-2.4,2.6-2.4l.9-.4-1,.3-2.7,2.5-.6.2v-1.9c0,0-.5-1.1-.5-1.1v-.3c.1,0-.2-1.2-.2-1.2l-.5-.3-.6-1v-.9c0,0-2.1-2-2.1-2l-.3-.2-1,.3-3-1.5.2-.5v-.6c0,0-.7-.9-.7-.9l-.5-.3h-.8c0-.1-.8,0-.8,0v.5Z"/>
    <path id="NL-ZH" class="cls-1" d="M279.8,379.2l.8.7h.2c0-.1.4,0,.4,0v.4c.1,0,1,.5,1,.5v.3s-2.2,0-2.2,0l-.8-.2-.8-.9,1.2-.7h.3ZM270.7,373.1h1s3.1.8,3.1.8l4,1.8,1.9.6.7.4v.6c0,0-2.7,1.1-2.7,1.1h-2c0,0-1.5-.4-1.5-.4l-1.9-1.1-3.8-2.6-.3-.3v-.6c.1,0,.6-.3.6-.3h.9ZM298,259.9l8.2,3.7.8-1.4,1.6-.5h.3s3,1.2,3,1.2l-1,1.4-.8,2.1v.5s-1.1,2.5-1.1,2.5l-2.4,2.4.2,1.6-1,5-1,1.2v.4c0,0,0,1,0,1l.8.7,1.8.4,1.3-.4,1.8.7,1.7.2,2.5-.2,3.9-2.3h2.3c0-.1.3-.3.3-.3h.2c0,.1.9-.8.9-.8l1.1-.5,2.4.4-.2,2.3.4,1v.7c0,0,0,.4,0,.4l.7.5.9-1.2,1.5-1,1.1-.3,1.1-.8.7-1,1.2-.5,1.3.3h0v1.3s.9,1.4.9,1.4v1.9s.2,1.1.2,1.1h.8s.2.6.2.6l3.5,3.8,1.8.7,4.1,2.8v.3s-2.5,1-2.5,1l.5,3.1-.5.3v.2c0,0-.9.1-.9.1l-2.4-.3-.7-.5-.3-1.2-.7.4-1.1.2-1,.4-.7,1-.2,1.6-1.5.7-.2.8,4.1,3v1.8c0,0,.1,3,.1,3l.2,1,.7.8v1s1.2-.3,1.2-.3h3.8s-.6,1.2-.6,1.2l-2.5.9-2,1.5-1.6,2.4-.9.7.2,1.5-1.1.8v.7l.3,1.1h1.4c0-.1.7-.7.7-.7h2c0,0,.8-.3.8-.3l1,1.9v.3c-.1,0-5,1.2-5,1.2l1.1,1.4.9.3.8,1.1-.5.2,1.3,1.8,1.4,1.6.9.6.3,1.1.9.7,1,3.9,1.3-.4h1.1c0,0,2.4-.7,2.4-.7l.9-1.2.8-1.9.8-.9h.7l1.8.7h.9c0,0,.7-.4.7-.4l1.6-2.2,1.1-.7h.5c0,0,.9,0,.9,0l1.9,1.5h1.2c0-.1.6-1,.6-1l.3-.9.8-.9,2.1-1.7.4-.6,2.3-1.1,1.3-.4h1.4c0,0,.9.4.9.4l1.2.5,1.6.9.3.6.3,2,.6,1.3.9.5,2.2.4.8.5h0l-3.5,6.7h-.4c0,0,0,.6,0,.6l-1.6,2.3v1.2c0,0-.5-.3-.5-.3l-1.7,3.1-.2,1.7-.3.5-1.3-.3-.8.2-.7-.2-.3.3v1c-.1,0-.9,1.2-.9,1.2l-.9.5h-1.5s-1,.5-1,.5l-.2.7.3.7.8.5-.5.4-1.4.6-.4.5-1.2-.5h-3.1c0,0-1.4-1.1-1.4-1.1l-.3.3.5,1.4-.3,1.1.7,1.2,2.6.4-.8,3.8h-1.8s-4.1-.6-4.1-.6l-3.5-.8h-2l-1.4.3-2.9,1.4-2.2,2.3-1.9,1.3-.7.3-1.3.3-3.1-.5h-1.6c0,0-1.7.6-1.7.6l-1.8,1-1.9,2.2-1.2,3.5-.5.9-1.5,1.7-2.7,2.4-3.7,2.6-7.6,2.2-1.9,1.5-9.1,2.5-2.7-.3-9.1-3-1.7,1.6-.8.5-.3.9h-.7s-.4.8-.4.8l-1.5,1.5-.3,1.3-.8,1.4-1.1,1.1-1.1.6-2.5,1.2-2.4.5-1.7.7-2.9.7-3.3-.4h0l-2.3-.7-4-2.7-5.6-4.2-1.8-.2h-2.3c0,0-2.3-.8-2.3-.8l-5.3-.4-.9-.4-1.1-1.9-.4-1.5-.2-3.8-2-2.8-.5-2.1-.3-.5-4.6-1-1.7-1.6-2.2-.3-2.3.6-1.9,1.1-2.5,3.1-1.2.2-3.5-1.1-1-1h0l1.6-.8.6-.6,1.1-2.9.3-1v-.5c0,0-1.3-3-1.3-3v-1.2s.9-1.4.9-1.4l1.1-.8,1.1-.2,1.7-.7h1.4s1-.3,1-.3l3.5-1.7,3.6-1.4,1.4-.4h2.5s1.2.6,1.2.6l.5.5-1.1-.2-.2.9,1.6,1,.8.9.6.3.2-.2-.4-.5v-.4s.6.1.6.1l.4-.3.2.2,1.2-1.4-.2-.2v-.2c.1,0,1.1-.7,1.1-.7l.9-.4v-.7c0,0-.5-1.3-.5-1.3l-3.6-5.4-.3-.7.2-1.5.6-.8,1.4-3,.4-.3v-.6c0,0-1-.8-1-.8l-.7-.3-.5.7v.8s-.3-.3-.3-.3h-.1v.4s-.2,0-.2,0l-.3-.5-.8-.3-.5.4h-.2c0,0-.6.3-.6.3h-.8c0,0-.4-.1-.4-.1l-.2-.4v-1.1c.1,0,1.9-6.1,1.9-6.1v-1.6s-.1-.1-.1-.1l-.4.2v-1.1l.7-1.7.5-.4h.9c0,.1.9-1.1.9-1.1h.3c0-.1,1.1.4,1.1.4l.2-.2h.9s.8.5.8.5l1.5.6.7.6,2.6-2.3,1.7-1.2,1-.9.6-.8.8-.5,1.3-2.3,1.5-2.1,9.4-10.8,2.6-3.3v-.3s.3,0,.3,0l.5.4.6-.8h-.2c0,0-.5.5-.5.5l-.3-.2v-.4s2.5-2.6,2.5-2.6l.8-.6,2-2.1,5.4-6.9,3.6-5.4,4.7-8.2,3.4-6.3,5.8-12.7ZM244.8,357l-1.2,1.4.2.2-.2.7v.4c0,0-.3,0-.3,0v.3c.1,0,0,.2,0,.2l.2.2v.2c0,0,.1,0,.1,0l.6-.6.9.5,1.1,1,4.4,2,1.5,1.1,3.5,1.8,2.3,1.5,3.4,1.1v.2c0,0,.1.2.1.2h.3c0,0,2.6,2.8,2.6,2.8l1.6,1.4,1.4,1,.3.6,2.1,2.6.6.5,2.7,1.7,1.1.2,2,1.4,2.1.8,1.6.3,4.4.2h.9c0,0,.4-.4.4-.4l.3-.4v-.7s.4,0,.4,0l.8-2.6-.9-.5v-.3s-.3.1-.3.1l-4.8-2.8-4.2-2v-.2h-.3c0,0,0,0,0,0l-5.1-1.5-2.9-1.1-.9-.7-1.3-1.9v-.4c-.1,0,0-.2,0-.2v-1.2s-1.8-2.1-1.8-2.1l-1.7-1h-1.1c0,0-.6.2-.6.2l-.5-.2-2.5-3-.5-.3-.3-.4h-1c0,.1-.8,0-.8,0h-.3c0,0-.2.4-.2.4h-.3s-1.2,0-1.2,0l-.5-.4v-.6c0,0-.3,0-.3,0l-.2.8-.5-.6-2.9-1-.9-.9-.9-1.4-1.7.8-.4.5h-.2Z"/>
  </g>
</svg>