<?xml version="1.0" encoding="UTF-8"?>
<svg id="Laag_1" data-name="Laag 1" xmlns="http://www.w3.org/2000/svg" xmlns:amcharts="http://amcharts.com/ammap" version="1.1" viewBox="0 0 841.9 595.3">
  <defs>
    <style>
      .cls-1 {
        fill: #f59b18;
        stroke: #fff;
        stroke-width: .5px;
      }
    </style>
  </defs>
  <g id="_defs" data-name="&amp;lt;defs">
    <amcharts:ammap bottomLatitude="27.636889" leftLongitude="-18.161674" projection="mercator" rightLongitude="4.332045" topLatitude="43.794381"/>
  </g>
  <g>
    <path id="ES-AN" class="cls-1" d="M490.2,469.1v1s-1.9.8-1.9.8l-.7,1.6-2.7.7-3.4-4.2-2.3-1.8-2.1-.4-2.5,1.6-2.1-1.4.5.6-.7-.5-3.5,1-2.6,5-1.1,1.1-2.2.9h-3c0,0-1.8-1.2-1.8-1.2l-1.5.5-3.1-3-2.2.7-11.6-.9-3.6.8-1.1,1.3-2.3,1.1-2.5-.2-2-1.5.2.4-1.4.2-2-1.5h-2.3c0-.1-.9.8-.9.8l-1.6-.2-.6.7-.9-1-.7.4-2.8-1.3-5.1,1.5-4.7-1.2-1.5,1.3-3.3.5-6.1.2-2.8-.6-.9.8v-.6c0,0-4.1,6.2-4.1,6.2l-.9.9-3,1.1-1.4,2.8-4.4,1.2-4.6-1.1h-2.5s-4,2.5-4,2.5l-3.2.4-3.1,1.8h-.9s-1.8,2-1.8,2l-1.2,3.5-2.9,4.1-1,3.9h-1.1c0,0-.9-1.2-.9-1.2l-1.7.2-.9,1.8.7,3.7-1.4,1.1-.9-.2-5.1,2.5-1.5-2.2-1.8-1-1.5.3-2.4-1.4-.8.5-2.7-3.5-2.4-2h-5c0,.1-2.9-5.2-2.9-5.2l-1.6-.6-1.6-3.7-1.6-1.4-3.1-6.7-1.2-.2,1.6-.8-.5.5.5.2v-.5c0,0,0,.7,0,.7l.8,1.6.2-.6v.4c.1,0,1.3-2,1.3-2l.4-1.4-.4-.7h-1.6c0,0-1.4-1.9-1.4-1.9l-.9.3.4-.3-.8-.4v.7c.1,0-.6-.8-.6-.8l-.6.6-1.5-1-2.1-5.5,3.6-2.9-1.7-1-2-4.8-3.5-4.1-9.9-6.6-4.3-2-2.9-2.3.9,1.5,3.4,2.8-4.7-4h-1c0-.1.6.5.6.5h-.5s-4.2-1.9-4.2-1.9l-11.4.9-1.5,1.2-1.5-.6-.5-2.6-.8-1,.5-1.2-.9-1.9v-4.2s-.9-1-.9-1l.8-.5-1-2.7.3-.9-.9-.6-.3-1.3h-.8c0,0-.5-1.7-.5-1.7l.7-.3.2-2.4,2.1-2.3,1.4-5.8,1.2-.4,3.9-4,.8-3,1.1-1.6v-2.9c-.1,0,2.3-1.1,2.3-1.1h3.1s.2-1.4.2-1.4l1-.7,1.7,1.3,2.3-.2.9-4.3,1.5-2.7-.6-.3v-.8s1.5-1.8,1.5-1.8h0l3.6,1.6h2.1c0,0-.7,3.5-.7,3.5h1.6s0,.6,0,.6l1,.4,1.1-.5,3,.5.9-.4,1.1,1.1h0l.7.8h0l.2,2.1,1-.3h.5l3,1.2.5-.3-.2-.9,1.1-.9-.4-.5,1.6-.2,1.9.5.4,1.8,1.1,1h.2c0,0,1,1.1,1,1.1l2.2.4.6.6,1.6-.2.9,1.1,2.7-2.3,2.8-.7h4.1c0,.1.8-2.6.8-2.6l1.1-1.1-.9-1.1v-.9c.1,0,2-1.4,2-1.4v-1.2c.1,0,1.2-.9,1.2-.9l2.2-.2.8-.6,1.1.3,1.2-.9,1.8.8v1.1c0,0-.3-.6-.3-.6l-.5.3.4.8-1.9,1.2.3,2.2,1.2.4,3-3,2.2.3.3-1,1.6-.7-.2-1.2.5-1h.2c0,0,0-3.2,0-3.2l-2-3.5.7-2-1.1-1.1v-.9s1.6-2.6,1.6-2.6l1.1-.7h1.5l.2-1.1,2.9-1.9h0l-.2-.4h0l.6-1,.7.4-.3-.8,1-1.6,2.6.3v-.8c-.1,0,.7-1,.7-1l1.5-.8,1.4-1.7.4.4.2-1,.3.6.2-.5.5.4v-.8s.7,0,.7,0h0c0-.1-.7-2.2-.7-2.2l3.6.6,2.2-1.2h0l1.5.7.3,1.2,2.4.7h2.9c0-.1.8,3.7.8,3.7l6.4,2.2.2,1,1.6.3,1.8,1.4,1.2,2,.3-.4.8.3.3.8.7-.3,3.7,4.4,7,3.1.8-.2-.4-1.8.6-1.1,5.6,1.1,9.1.6,2.5-.3,1-1,.3-1.2,1-.3h0l.8-.2h0l1.8.6.4-.5,4.8,1.6,1.1-.6.2-2.3h.6c0-.1,1.3.4,1.3.4l.3,1.7,2.5.6,1.9-.5,2-1.8v-1.1h0l.2-.5h0l2-.7h.2c0,.1,1.9,1.3,1.9,1.3l5.9,1,3-2.1,2.7,3.7.4-2.3,1.2-1h2.6s1,.9,1,.9l.8-1.2,1-.5.3.4v-.5l1.6-.8.2-.7.3.3.4-1.2,4,2,2.8-1h.4l1.3,1.2-.2,4.1,3.8,1v5.1c0,0,1.8.9,1.8.9l.2,1.1-.8,2.6.3,1.7-4.5,5.5,1.2.7h.5l3.9,2,3.4.3h0l1.7,1.2,1.9,3.5,3.4,2.6,2-.6,1.7,1.5.9-.5,1.7.8.7-.6.8.3h.3s.3.4.3.4l-.9,1.2-.6,3.5.6,2.6-.7,1.4.5,2.5h0l.3.3h0l6.3,10.2,1.5,1.1v-1c0,0,3.1.6,3.1.6l4.6,3.6h0l-2.1,1.1-1.4,2.5-3.9,4.2-2.1,8.3-2.2,4.2.2,2.1-.4.7h-1.4l-1.1,2-1,.2-.5.7.2,2.2-1.7.8-1,1.5Z"/>
    <path id="ES-AR" class="cls-1" d="M499.2,185.5l.4.9h2.9s2.2,2.1,2.2,2.1l2.6-.5,4.1,2.8h0l1,.2h0l.8-.2h0l.5-.5h0l3.9.2,1.2-1.4v-.8c-.1,0,1.7-3.4,1.7-3.4l1.4-1.4-.2-1.7h-.4s-1.3,0-1.3,0l-.6-1.9-1.4-1.1.3-3.1-1.1-2.2,1.1-3.1-.3-1,2.9-3.5-.2-.9-1-.4.8-2.6,2.7-2.9-.5-2.8,1-1.9,1.5.8.9-.4h.2v-1.7c0,0,1.9-1.2,1.9-1.2l-.9-.7h.9s.2-2.1.2-2.1h4.7c0,0,0-2.4,0-2.4l.6-.5,2.4-.2,2-2.3h.9s0-1,0-1h1.5c0-.1.7-1.5.7-1.5l-.5-.7.2-2.7,1.6-1.2v-2c.1,0,1.6-1.1,1.6-1.1h2.4c0,.1-.4,1.4-.4,1.4l1.5,1,.8-.3.9,1.4,2.3,1.7v1.4c0,0,1.5,0,1.5,0v1.4s.7.2.7.2l.4-.9h.7s0-1,0-1l.9-.9,2.6,1.9,1.3-.7,1.1.4,1.6-2.1.9.2.5-.9,2.3,1.6h.6c0-.1.2.7.2.7l2.1,1.2,1.1-.6,2.3,4.4,1.6.2.3,1.3,2,.6,1-.2.3-.7,1.5.3,1.1-1.1,1.5.2,2-.7.6-.8,3.5,1.2.2,1.3,1.3,1.1,1.1-.6.2-1.2,1.5-1.1,2.6,1.9,2.4-.5,1.6.5.4-.7,2.5.4.4-.6,2.7.8h0l.2.4h0l.3.2h0l.9,1.3.4,2.1,2.6.7-1.1,3.8.4.6-.7-.3-.6.7v.8c0,0,.8.4.8.4l-1.1,1-.5-.4-.5.5,2.3,5.7-1,1.1,2,.8-1.3.9,1,.9-2.6,7.6-.2.9.7.5-.9.7.4,1.9-1.3,4-.6.4v2.3l-.5,1-.2-.6-.8.3-.5,1.5-.8-.3-1,1.6,1.9,1h-.5c0,.1-.1,1.9-.1,1.9l.6.8-1.1.5v.7s-1.1,0-1.1,0l-.5,1.8h-1.3s-1.3,1.1-1.3,1.1l-.7,2-2.9.4v1.4c-.1,0-.6-.4-.6-.4l-2.4,3.4v1.1c0,0,1.3,1.6,1.3,1.6l-.3,1.8,2.2.4,1.1-.5.8,3.3-2.1,2.9-2.3.3.5,1.9-1.5,3.1,2.2,2.3-1.1,1.4.9.7-.2.8.9,1.5-.3,2.3h-.6c0,0,0,.7,0,.7h-1.8c0,0-1.1,3.8-1.1,3.8l-1.7.4-.3,1.1-1.4-.4-.5.6v2.2s.8.1.8.1l.5,1.5-.5.7.6-.3v.7s.6-.3.6-.3l1.4,1.1-.8.3.9,1.9h0v.4h0l.5.3-1.7,2.8h0v.3h0l-.6,1.7,1.6,3.5-1.8,1.9-.2,1.1-2.2.7v.7c0,0-.7-.5-.7-.5l.4.9h0l-1,.8-1.6-.4-2.9,2h0l-.5-.2h0l-.5-1.6h0v-.2h0l-.8-.3h-.8s-1.7.2-1.7.2l-1.9-.9-1.5-1.3v-1s-2.2,0-2.2,0l-1.5,2.4-.2,2.7-3,1.7-.9-1.1-2.1.8.4,2.9,1.9.6,1.3-.4-.3,5.3,1,.9.2,1.2-2.6,1.1-.5.8,2.5,3,.2,1.2-2.5,1.4-1.1,1.9h-1s-.5.6-.5.6l.7,1.7-1.8,1.1-2.8.9-2.2-1.3-1.5,6.3-1.3.6-.8,1.3.6,1.8-.7-.2-2.1,1.6h-3.1c0,0-1.1,2.8-1.1,2.8l-2.3.9v2.9c0,0,1.7,2.3,1.7,2.3l-3.1,1.9-1.8-1.3.5-1-.5-1.5.4-1.2-.7-1.4-.5.4-2.3-1.3h-3.5c0,.1-.9.7-.9.7l-1-.2-.3.6-.7-.5h0l-1-2.2h0l3.4-1.4.5-.7-.3-1.1-3-2.4-4.1-.2v-1.6l-1.3-.8-.7-1.6h0l-.3-.7h0v-.5s-.9.7-.9.7v2.8s-.7.3-.7.3h0l-.8.7h0l-1-.5-.8.3h0l-.5-.3h0l-2-.3h0l.4-2.9-1.5.6-1.5-1-1.3.7-6.2-6.6-1.3,1.8-.4-1.3.4-.9h.9c0,0-1-1.3-1-1.3h-.2c0-.1-2.1-2.7-2.1-2.7l-1.1-.4v-.6s.4-.5.4-.5l.4.3,1.7-3,2.2-1.2-.4-2.6.4-2.2.8-.9,3.2,1.6,2.2-1.9-.7-1,1.2-4-1-2.9.8-1.2v-2c.1,0-.6-1.9-.6-1.9h-.7c0-.1-2-2.8-2-2.8l.5-2.7h0l-.4-.9h0l-1.3-1.2h0l-.5-.8h0l-6-6.2-2.2-.7-2-1.9h0l-.5.2h0l-2.1-2.2-3.9,1.3h0l-1.1-1.4-2.7-.7-1.2-5.9.9-2.4-.3-1.1,1.6-.9,1-4.2,2.7,1-.3,1.8.6.7,3.8-1.3v-.8s-.7-.2-.7-.2v-2.1c0,0-1.1-1.4-1.1-1.4l.6-3.3-1.2-1.9v-1.1c0,0,3,0,3,0l1.1-2h0l.4-.2h.6s.7-1.3.7-1.3h2.1c0-.1-.1-1.4-.1-1.4l1.6-2.1-1.4-.7.2-1-2.1-2,1.4-2.1v-1.5c0,0-1.5-2.9-1.5-2.9v-3.6h0l.5-2.3Z"/>
    <path id="ES-AS" class="cls-1" d="M330.6,91l.5,1,2.1.7-.4.8.9.6.5,1.4,3.3.7-.7.6-.3-.4.2,1,.5-.4-.5.8h1c0,.1.4-.4.4-.4l.7.4,1.2-.9,1.1.6,3.2-.3.9.5,3.7-.6.8,1.4.7-.5,3.3.2,3.3,3.6,3.9-.6,4.7,1.5,3.7-.2,2.2,1.1,1.5-.2.2.7.9-.3,4.9,1.8,3.2.7h4.5c0,0,0,.8,0,.8l-1.2,1.4.9,2.5-.2,2-1.1.6-.2-1-2.2-.8-1.1,1.9-4.1.6.4,1.3-.7,2.7-1.7-.3-1.4.6h-.2c0-.1-.9,0-.9,0h0l-1.3-2.5-1.8-.6-2.2,1.5-1.3,2.2-1-.6-2.3.2-1.1,4.5h-1.6c0,0-.3-.7-.3-.7l-2.5,1.2h0v.3h-.1l-4.9.6-.8-.9h-1.1s-.7.4-.7.4l-.3,2.1-3.7-.3-.6,1.9-6-.8-2.3-1.3-1.6.9-1.7,3.2v.9c.1,0-1.7.4-1.7.4h-1.5s-.8-1-.8-1h-1.2s.1-.7.1-.7h-1.1c0,0-1.8-1.5-1.8-1.5l-.7-2.6-2,.6-2.5-1.2-.7,2.5-1.7.7-1.7-1.6h-1.6s-.5,2.2-.5,2.2l-1.6-.4-.9-1.1-.5.5-1.3-.3-.2-.8-1.1-.8-.6,1-1,.2.2,1-.8.2-.5,1.7-.6-.2-.4.7-1.1-.6h-.3s.2,1.5.2,1.5l1.6.2v1.3s-1.8.4-1.8.4l-.5.8-.9-.5-1.4.9-2.9-.7-3.2.2-1.5.3-1.6,2h-.6c0,0,0-1,0-1l-2.2-.9h0l-.7-.7.2-1.8-1.5-1.8h-1.6s-2-2.7-2-2.7v2.3c0,0-.7,0-.7,0l-1.1-1.4.7-1.2.7.4v-1.5s1.1-1.5,1.1-1.5l1,.7.8-1h1l1.7-1.8.3-1.2-1.4-1.6-1.2.3v.5c0,0-2.2,1.4-2.2,1.4h-.8c0-.1-1-1.9-1-1.9l.7-1.3-.2-.9-1.3-.2-.4-.9-.5.5-1.7-1.7-.4-1.4.4-2.1h-1.7c0,0-1.3-1.5-1.3-1.5v-2.4c0,0-.3-.8-.3-.8l-.9.5-.8-.5.2-1.1h0v-.2h0v-1.5s2.9.2,2.9.2l.6-1.6,1.4-1h0l1-1.5-.4-.6.5-1.3h1.1c0,0-1.1-.8-1.1-.8v-.9c0,0,2.4.2,2.4.2l.9-.9.2.3v-.7c0,0,2.4.3,2.4.3l.5.7,1-.8,1.8.9,2.7-.7.9,1,.6-.8,1.5.2,2-.7.3.6.6-.2.2.7h2.4s.4.5.4.5l2.6-.2v-1.3c.1,0,1.9,1,1.9,1l1.4-.4,1.7.5,4.2-1.6.5-1,1,.9.5-.4.2.7.6-.4v.9s1.1-.3,1.1-.3l1.9.8,4.1-1.9,1,.9,1.6-.4.8-.9-.4-.2,1.4-.5v-1h1.4s.9-.8.9-.8v-1.1s.7,0,.7,0Z"/>
    <path id="ES-CB" class="cls-1" d="M438.5,117.5l-.9-3.1,1.7-.8.7.4-.8,1.6v1.6h0l-.7.3ZM425.8,99.3v.7s1.6-.4,1.6-.4l.5,1,.9-.2.6,1.2,3,.5.3,1.2-1.2.3,1.2,1.6.7-.5,1.9.5,1.8-.4v1.1c0,0,.8-.5.8-.5l3.2.7,1.4,1.9,1.7.6h0l-.2,3-1.4.2-.8.9-.7-1.4-2.3,1.1-.7-.6-1.2.4-.4-.5-.3,1.3-1.8.4-.7,1.4-2.2.6.3,1.1h0l.3.4h0l.7,4.3h-3.1s-3.4-1.1-3.4-1.1h-1.3c0,.1-.4-.9-.4-.9l-1.6-.7-1.4,2.2h0v.3h0l-.9,1.3-2,.9-.5,1.2h-2.8l-1.1-.5.2,2.8h-1.8s-1.1,1.5-1.1,1.5l-1.5.8-1.5,3.9.7,1.3,1.8-.2v.9c-.1,0,2.7-3.2,2.7-3.2l1.6,1.5-1.5,1.7-1.9-.7.7,1.3h-1.3s1.1.4,1.1.4l-.6.9h0v.3h0l1.7.5.4-2.1,1.2.6.9,2.5-.2,2-1.7.7-1.3-1-.7,2.1-.9-.3-2,.9-.2-.6h-.7l-.2-3.6-.7.7.2.7-.7.4.2.7-.9.4v.9c.1,0-1.4.2-1.4.2l-.7-1.7h-2.1c0,.1-1.4-1.1-1.4-1.1v-.7c0,0,1-.9,1-.9l.9.3.4-1.4-.9-.8-2.1,1.5-1-.7v-3.1c.1,0-.5-.3-.5-.3v-2.3c0,0-4.7-1-4.7-1l-2.3-3.5-2.6-1.6-.6,1.3-1.8-.4-1.6,1.6-2-.9-1.4,1.1-1.9-.5-2.2.3-.2-2h-1s0-1.1,0-1.1l-2.8-1.6-.8-1.4.7-1.8-.7-.9.5-.5h.9c0-.1.2,0,.2,0h0l1.4-.6,1.7.3.7-2.7-.4-1.3,4.1-.6,1.1-1.9,2.2.8.2,1,1.1-.6.2-2-.9-2.5,1.2-1.4v-.8h0l1.7.3,2.2-.5,1.5.4,1.9-.9.7.9h1.8c0,0,4.4-.7,4.4-.7l2.7-1,1.3-1.1,1.1.3.3-.7.5.7.6-.9,2.3.6-.6-.2,1.4-1.7,4.5-.5,1.1-.9,1.1.2v.8c0,0,.9.6.9.6l-1.6.4-1.4,1.1v.6s1,.4,1,.4l-.2,1.3.4-.8.2.4,1-.6-.5-.6h.6c0,0,.2-1,.2-1h1.1c0-.1-1-.7-1-.7h1.6c0,0,.5-.8.5-.8h1.4c0,0,1.8-1.4,1.8-1.4h1.3c0,0,1.1-.8,1.1-.8ZM403.7,139h0c0,0,0,0,0,0h0l.6.3h0l.2,1.2-.5.4-.4-1.3h0v-.5ZM401.3,139.2l.2.2h0v.3h0l-.5.2h0l-.3-.4h0v-.2h0,0c0-.1.2-.2.2-.2h.4Z"/>
    <path id="ES-CL" class="cls-1" d="M453.1,151.4l.5.6-.8-.3h0l.3-.3ZM450.9,151.6l-.3.2h0v-.3h0v-.2h.1v-.2h0c0,0,.4-.1.4-.1h0v.3h0l-.2.3ZM457.8,141.4h.1c0,0,3.9-.5,3.9-.5l3.7,1.6,1.7-.3.6,1.1,1.3-.7-.7,2.2-.6.7-.5-.2-.4,1.1,1.3,1.6,2.3-.9.2,2.2-1.3.4-.3-.6h-3.4c0,.1-1-1.3-1-1.3h-1.9c0,0-.6.6-.6.6l-2.1-.2-.7-1.8-1.7-.6-1.9-1.8,1.3-2.4h0l.2-.7h0l.2.3h0v.2ZM401,139.2h.3s.1,0,.1,0h0v.2h0v.3h0l-.5.2h0l-.3-.4h0v-.2h0,0c0-.1.2-.2.2-.2h.1ZM404.1,139.1h.3c0,.1.2,1.3.2,1.3l-.5.4-.4-1.3h0l.2-.6h0l.3.2ZM289.2,133.8l2.2.9v.9c0,0,.5,0,.5,0l1.6-2,1.5-.3,3.2-.2,2.9.7,1.4-.9.9.5.5-.8,1.8-.4v-1.3s-1.6-.2-1.6-.2l-.2-1.4h.3s1.1.6,1.1.6l.4-.7.6.2.5-1.7.8-.2-.2-1,1-.2.6-1,1.1.8.2.8,1.3.3.5-.5.9,1.1,1.6.4.5-2.1h1.6s1.7,1.6,1.7,1.6l1.7-.7.7-2.5,2.5,1.2,2-.6.7,2.6,1.8,1.6h1.1c0,0-.1.7-.1.7h1.2s.8,1,.8,1h1.5s1.8-.4,1.8-.4v-.9c-.1,0,1.5-3.2,1.5-3.2l1.6-.9,2.3,1.3,6,.8.6-1.9,3.7.3.3-2.1.7-.5h1.1s.8.9.8.9l4.9-.6h0v-.3h.1l2.5-1.2.3.7h1.6c0,0,1.1-4.5,1.1-4.5l2.3-.2,1,.6,1.3-2.2,2.2-1.5,1.8.6,1.3,2.5h0l-.5.5.7.9-.7,1.8.8,1.4,2.8,1.6v1.1s1,0,1,0l.2,2,2.2-.3,1.9.5,1.4-1.1,2,.9,1.6-1.6,1.8.4.6-1.3,2.6,1.6,2.3,3.5,4.6,1v2.3c0,0,.7.3.7.3v3.1c-.1,0,.9.7.9.7l2.1-1.5.9.8-.4,1.4-.9-.3-1,.9v.7c0,0,1.5,1.2,1.5,1.2h2.1c0-.1.7,1.6.7,1.6l1.5-.2v-.9c-.1,0,.7-.4.7-.4l-.2-.7.7-.4-.2-.7.7-.7.2,3.6h.7l.2.6,2-.9.9.3.7-2.1,1.3,1,1.7-.7.3-2-.9-2.5-1.2-.6-.4,2.1-1.7-.5h0v-.3h0l.6-.9-1.1-.5h1.3s-.7-1.3-.7-1.3l1.9.7,1.5-1.7-1.6-1.5-2.8,3.2v-.9c.1,0-1.7.2-1.7.2l-.7-1.3,1.5-3.9,1.5-.8,1-1.5h1.8s-.2-2.8-.2-2.8l1.1.5h2.8l.5-1.2,2-.9.9-1.3h0v-.3h0l1.4-2.2,1.6.7.4,1.1h1.3c0-.1,3.4,1,3.4,1h3.1s6.9-3.7,6.9-3.7l1.3,1.5,2.3-.3,1,.7-1.6,2.8,1.2.8.4-.3.3.7-1,1.3.7.4v2.2s-1.5.4-1.5.4l1.3.9,3.5.2,1,1.2-.2.6,2.6,1.8-1.7,1.7-3.1.5-2.4-1.1v-.9c0,0-3.2-.9-3.2-.9l-2.6,3.9,3,3.2h.4c0,0-.7-.7-.7-.7l1.3-1.7,1.4.7,1.6-2,.4,1.2-2.1,3.9,1.4.9-1,1.8,4.1-.4.3,1.5h1.1c0,0,0,.1,0,.1h0l1.5,1.9,2.1-.2,1.2.8.2,1.3h-.1c0,.1.4,1.2.4,1.2l1.3.6h0l-1.1,1-.6-.4-.6.5-1.4-1.1-1.6.2-.9-.5-.6.7-2.8-.5,1,3h0l-.6.2h0l-1.2,1.8-1.2.7.4.5,1.5-.3.7.5-.2,1.5-.8.9,2.1,2.4-.7,1.2.3,3.1-1.1-1.5.2-1.1h-.9s-.2,1.7-.2,1.7h.9s.9,1.4.9,1.4l-2,.5.3,1.3h0l.2.2h0l-.5.7.7,3.8-.6,1.8-1.1.9,4,6.3h4.1c0-.1.9,2.6.9,2.6h0v.4h0l1.3,1.3,1.3-1.2,1.9-.4.7-3.7h0v-.4h.1l.7-.9.9.4.7-.4,1.2,1.2v1.1c-.1,0-2.1,2.9-2.1,2.9l.5,1.3,1.8-.3,1.3,1,2.1-.5,1.8.6,1.4-3.2,1.4-1v-2.5c0,0,1.3.4,1.3.4l1.2-.5.7-1.2,5.1-.5,1.6.8.6,2.4,1.4-.8,4.5.2v1.1s-1.4.8-1.4.8l2.2,3.5-.6.5.4,1.9,4.1,1h0l.2.2h0l1.1,1.1h.8s4.5-2.7,4.5-2.7h0v3.5c0,0,1.6,2.9,1.6,2.9v1.5c0,0-1.5,2.1-1.5,2.1l2.1,2-.2,1,1.4.7-1.6,2.1v1.3c.1,0-2,.1-2,.1l-.7,1.3h-.6s-.4.2-.4.2h0l-1.1,2h-2.9s0,1.1,0,1.1l1.2,1.9-.6,3.3,1.2,1.4v2.1c0,0,.6.2.6.2v.8s-3.8,1.3-3.8,1.3l-.6-.7.3-1.8-2.7-1-1,4.2-1.6,1,.3,1.1-.9,2.4,1.2,5.9,2.7.7,1.1,1.4h0l-.5,1.9.7,2-.4.5-3.2-2.8-1.8,1.9-2.2-.8-1.3,1.6-1.3-.2-1.3.8-1.4-1.6-2.6,1.6-.6-.8-1.6-.3-.6-2.1-1.1-.2-.3-1.6-.9-.7-1.6,1.3-.9-.6.7-1.6-1.8-.4,1.2-.8.2-1.4-1.7.5-.7-1.3-2.6-.6-.4-1.2h-1.8s-.7,1.1-.7,1.1l-1.7-.2-2-.9-.2-2.4-1.6-.6-1.4.7-.4,1.2-2.9.2-1.8.8-5.3-1.7-2,.6-.9,2-.8-1-.8,1-1.4-.2-.5.5-2.4-.3-.8-.8.7,1.6-.2,1.8h-1.7c0,0-.9,1.6-.9,1.6l-1.7.7h0l-.4.4h0c0,0-.5,0-.5,0h-.5l-2.1.3-1.8,1.3-1.9,2.9-2.7,1.6-1.7,2.9-4.7,1.9-1.2,2.1h-.7c0,.1-1.7,7.9-1.7,7.9l-2.1.3-1.8-.7-1.1,2.5-2.7,3.3h0l-1-.5h0l-.6.2h0l-2.2.4-.9.7h0l-.7-.2-1.2.8v.9h0l-.6.6,1.8.5h0l.5,1.4-.5,2.1-1.3.8-.2.8.5,3.8-1.1,1.6.8,1.4-4.2.2-.9,1.1.2,2-.9.5.3,1.2-2,.3-1.1-1.6h-.8c0,.1.7,2.8.7,2.8l-1.7,1.9.4,1.9-.8.4h0l-2.7,1-1.6-.6-.3-2.3-.7-.6.2-1.2-1.7.5h0l-.9.6h0l-1.9-.8-.6,1.2.4,1.1-2.8,1.9h0v.3h-.1l-2,1.4-.2,1.9-2.9,1.3h-.4c0,.1-.5-2.6-.5-2.6l-2.1.4-.9,1.4-.4-.2-1.7,1.9-1.2.3-1.3.2-.4-1.3-2.1-.2h-.3c0,0-1.6.1-1.6.1h0l-.9-.3h-.3c0-.1-1.4-2.8-1.4-2.8v-3c0,0,1.1-2.5,1.1-2.5l-3.6.6-1.8,2.4-1.1.5h-2.6c0-.1-.5-.4-.5-.4h0l-.6-.3h0l-1.2-.3-.3-1.6-1.2-.2-.3-1.1-1.4-1.2h-2c0-.1-1.1.6-1.1.6l-1.1-.3-.4-.6.8-1.4-1.1-2.1-3.5,2.2-1.1,2.3-2.4-.8h0l-.4-.3h0l-1.1-.8h0l-.2-.3h0v-1.1c0,0-3.6-.9-3.6-.9l.9-.4-.2-.7.5-.4-.5-.2.8-.3-.8-.6h-.2c0,0-1.6-.8-1.6-.8l.5-1.1-1.2.3-.6-1.2-3.1-1.6-5,2.9h0l-.6.6h0l-.3,1.1-2.1.2-1,1.5h-1c0,0-3.4,1.7-3.4,1.7l-.7,1.2.2,1.6-1.3,1.1-3.2.3-1.1,1.2-1.1-1.5-1.6,1.6-1.2-.5h-.7l-.2.4-1.2-.3-1.3-1.1h0l.2-1.7,2.9-1.8.4-1.9-2.3-2.5-.5-2.2,2.2-3.5-.2-2.1-1.8-1,2-5.1-1.5-5.1.6-2.9-.4-2.1,1.1-.2v-.8l-.3-1.2-1.6-1.1-.5-2.7-2.6-2.9-.4-1.4.7-.5,2.3.6,2.2-.5,2.2-3.6-.6-1.8,3-2.8.3-1.5,1.8-2.1,2.1.2.4-.6.7.9,2.2-2,.4.6.8-.2.6-.5-.4-.8,1.7-.5,1.3-2.7,1.6-.6-.7-.6v-.9c.1,0,1-.5,1-.5l.7.8,1.5-.5-.7-1.3,1.6-1.3-.4-.9,4.8-7-.6-1.3-1.2-.5-2.6-3-6.2-1.4-.6.9-1.8.6-2.1-1.6v-2.2c0,0-.8-1.2-.8-1.2l2.2-7-2.3-.8,1.1-2.7-1.8-1.9-1.3,1.5-3.3.4-2.2-.5-1-2.4-1.2-.3-1.3,2.7h-4.8s-.6-1.3-.6-1.3l-1-.3h0l-.2-1.2,1.1-1.8-.6-1.6h-1.4c0,.1-1-1.2-1-1.2l1.2-.6.7-2.1,1.5-.4.4-2.4,1.8-1,.6-1.4,1.8-.7,2,1.1v-.9h0l-.2-.5h0l2.5-3.7.2-3.5-1.4-.4-.6-.9-1.7-.3-.9-1h0c0-.1,1-1.3,1-1.3l-.3-1.4.6-.8-.7-1.5-1.3.4-3.2-1.9-1.3.2-.6,1.4-2.7-.7h-.8c0,0-.9-.1-.9-.1l.7-1.2-.3-1.4,1.3-1.8-.6-.7v-1.9c0,0,1.8-.9,1.8-.9l-1.6-3,1.4-1.6h1.6c0-.1.5-1.8.5-1.8l1,.8,2.9-2.7v-.8c0,0,1.1-1.2,1.1-1.2l-1.2-2.9,1.6-.4-.3-1.4.7-.5Z"/>
    <path id="ES-CM" class="cls-1" d="M396.8,260.1l.9-.7,2.2-.4h0l.6-.2h0l1,.5h0l-.6,1.2.6,2.4-2.9,1.1h-.7c0,0-.7-.1-.7-.1l-.3-1.2h-.8s-1.8-.5-1.8-.5l.6-.6h0l2.6-.2-.7-1.3ZM427.8,233h.5l.5.2h0c0,0,.4-.4.4-.4h0l1.7-.7.9-1.7h1.7c0,0,.2-1.7.2-1.7l-.7-1.6.8.8,2.4.3.5-.5,1.4.2.8-1,.8,1,.9-2,2-.6,5.3,1.7,1.8-.8,2.9-.2.4-1.2,1.4-.7,1.6.6.2,2.4,2,.9,1.7.2.7-1.1h1.8s.4,1.2.4,1.2l2.6.6.7,1.3,1.7-.5-.2,1.4-1.2.8,1.8.4-.7,1.6.9.6,1.6-1.3.9.7.3,1.6,1.1.2.6,2.1,1.6.3.6.8,2.6-1.6,1.4,1.6,1.3-.8,1.3.2,1.3-1.6,2.2.8,1.8-1.9,3.2,2.8.4-.5-.7-2,.5-1.9h0l3.9-1.3,2.1,2.2h0l.5-.2h0l2,1.9,2.2.7,6,6.2h0l.5.7h0l1.3,1.2h0l.4.9h0l-.5,2.7,2,2.7h.7c0,.1.7,2.1.7,2.1v2c-.1,0-.9,1.2-.9,1.2l1,2.9-1.2,4,.7,1-2.2,1.9-3.2-1.6-.8.9-.4,2.2.4,2.6-2.2,1.2-1.7,3-.4-.3-.4.5v.6s1.1.4,1.1.4l2.1,2.6h0l.3.2h0l1,1.2h-.9c0,0-.4,1-.4,1l.4,1.3,1.3-1.8,6.2,6.6,1.3-.7,1.5,1,1.5-.6-.5,2.9h0v1.1s1.8,1.3,1.8,1.3l-.4.4,1.9,4.2,4.1.5h0v.2h0l1.1.4,3.5-.9h0l1,2.2h0l-2.7,1.2-.3.9.6,1.1h0v.7h-.1l-.7,5.2-2.5,3.8.5,2.2-.7,1.1-1.5.4h0l-1.1-.5h0l-1.2-.4-1.4,1.2-2.5,4.9-2.4,1.5h.7c0,.1.2,2.7.2,2.7l-.5.2.4,1-.4,1.1-.6.2.4,1.3h1c0,.1-.3.5-.3.5h.9l-.3,1h.9l-.4.5.6-.3h.1c0,0,.3.9.3.9h-.6s.8.3.8.3v.7h-.3c0,0,1-.7,1-.7h0v.2h0v.5c0,0,.2-1,.2-1l1.1.2-.4.5h1v.8h.7c0,0,1.3,1.1,1.3,1.1l.4-.4h.3c0,0,1.5.6,1.5.6h1.1c0,.1.2.2.2.2h0l1.4.5.5-.5,1.9,1.1-.8,5.2-3.1,5.6-.3,3.3,1.6,1.2,3.5,5.2,4.7-.3,1.4-.8,1.7.3.5,1.8,1,.9-.5,2,.5,1.7-.2,2.1-1.4.7,1.9,4.1-2,2.1h-2.7s-3.8-2.9-3.8-2.9l-.2-1.5-2.8-.9-2.1.7h0l-.5.2h0l-3.9,3.2-1-1.4-.8.3-2.7,2.6-.2,3.6-1.5,1-.4,1.5.7,2.8v5.8c0,0-4.6,3.5-4.6,3.5h-3.3s-1-1.6-1-1.6h0v-.2h0l.4-.8-.8-.8-.7.6-1.1-.9h-1.1c0,0,0,.8,0,.8l-1-.2.5.7-5.3,3.1-3.1.9-2.7-1.3-.8.6h0l-.6,1h0l-1.5,2.1-4.2,1.8-2.3,5.1-2.7,2.2-.4,2.2h0l-3.4-.3-3.9-2h-.5l-1.2-.7,4.5-5.5-.3-1.7.8-2.6-.2-1.1-1.8-.9v-5.1c0,0-3.7-1-3.7-1l.2-4.1-1.3-1.2h-.4l-2.8,1-4-2-.4,1.2-.3-.3-.2.7-1.6.8v.5l-.3-.4-1,.5-.8,1.2-1-.9h-2.6s-1.2,1-1.2,1l-.4,2.3-2.7-3.7-3,2.1-5.9-1-1.9-1.1h-.2c0-.1-2,.5-2,.5h0l-.2.5h0v1.1c0,0-2,1.8-2,1.8l-1.9.5-2.5-.6-.3-1.7-1.3-.5h-.6c0,.1-.2,2.4-.2,2.4l-1.1.6-4.8-1.6-.4.5-1.8-.6h0l-.8.2h0l-1,.3-.3,1.2-1,1-2.5.3-9.1-.6-5.6-1.1-.6,1.1.4,1.8-.8.2-7-3.1-3.7-4.4-.7.3-.4-.7-.8-.2-.3.4-1.2-2-1.8-1.4-1.6-.3-.2-1-6.4-2.2-.8-3.8h-2.9c0,.1-2.4-.5-2.4-.5l-.3-1.2-1.5-.7h0l2.4-.7,2.3-6.6.8-1.2,2.8.2.7-2.9-3.1-1.4-.7.2-1.7-5.3,3.5,1.4,1.8-.7h.1c0,0,.3-.9.3-.9l-.7-.5h0l-.4-.2h0l-.8-1.5,1.4-3.3h.3l1-1.9,2.9.3,3.8,1.5-2.5-2.4-.2-1.9-.8-.4-1.2-3.7,2.2-.4v-2c0,0,1.6-3.2,1.6-3.2l-.9-1.4-2.1,1.5h-.3c0,.1-1.3,1.4-1.3,1.4l-2.4.5h-.1c0,.1-1.5,1.1-1.5,1.1l-3.4-1.3-4.5-5.1-1.2-.3-3-3.7h0l-.7-.6h0l-1.3-1.5,1.9-2.4h0v-.5h0l.9-3.4-1.5-2.2.6-.4-.3-2.2-1.7.2-2,2.5-2.3-.4-.2-3.7,1.1-1.9-1.7-1.6-3.4.8,1.8-5.8-.2-6.3,1.4-.9h.3c0,.1.9.4.9.4h0l1.6-.2h.3c0,0,2.1.2,2.1.2l.4,1.3,1.3-.2,1.2-.3,1.7-1.9.4.2.9-1.4,2.1-.4.5,2.7h.4c0-.1,2.9-1.4,2.9-1.4l.2-1.9,2-1.4h0v-.3h.1l2.8-1.9-.4-1.1.6-1.2,1.9.8h0l.9-.6h0l1.7-.5-.2,1.2.7.6.3,2.3,1.6.6,2.7-1h0l2.1.9.7-.9,3.3-1.1v-1.2c.1,0,2.3-1.6,2.3-1.6l.2-1.6.9.6.3,3.9h.7s.5.7.5.7l.6-.4.4.8,1.1-.8,1-2.2,2.4-1.2,2,1.7v1c0,0,1.7.2,1.7.2l1.3-1.3,2,.9v.7c0,0,1.4,1.4,1.4,1.4l1.6-.2.2,1.3.8-.8.7.7h1.6l1.7,1.6,1.2-.9,1.5,2.1,1.2.3.9-.8,1.4.8.9-.6.2.7,2.3,1.2-.6,2.9-2.7,2.2-.7-.2-.6,1.7-.9.4.2.5h.3c0,.1-.2.5-.2.5l-1-.4.2.8-.5.4v-1c0,0-1,1-1,1l-1-.4-1,1.4-.3-.6-.8.2-.8.7.3.4h0v.2h0l.3.7,2.6,1,1.8-1.8h0l.3-.2h0l.5-1.1,1.5-.8.5.3,3-1.1-.5-1.1h0l.6-.2h0l1.2-1.2,2.9-.4.6-1.5,1.5.4.9-.5v.7c0,0,1-.5,1-.5l1.2.6.9-1.1v-1.1c0,0,1.8-.3,1.8-.3l1.3,1.6,1.2.3.4-.5,2.6-.2.6-1.2h.1l.8-.5.3,1.4,1.7.2,1.5-.6,1.4-1.9-1.8-2,.3-1.2.9.3-.7-1.7.3-2.1-.9-2.7-.6-.6-1.6,1.2-.9,1.6-1-.7.6-3.5,1.7-2.1-.5-1,.9-2-1-1.9-1.8-.2v-4c-.1,0-1.4-1.4-1.4-1.4h-1.4c0,.1-.2.2-.2.2h-1.1c0,0,.5-2,.5-2l-2-1.4.4-.9-.7-.7.6-.3h0v-.6h0l.2-.6-1,.9-1-.5-.3-1.8-.9-.8-.5,1.2-.7-.6-.8.3h0v-.2h0l-1-.6,1.4-2.2-.7-.4.2-1.4h0v-.2h0l-.7-1-2-.2,1.8-3-.2-1.2,1.3-.9-.8-1.4h.7s1.1-4.5,1.1-4.5l.8-.8-1.8-2.3.6-2.2-2.7-.7-.9-2.3-1.3-.7v-.9Z"/>
    <path id="ES-CN" class="cls-1" d="M-179.1,914.4l.9.4.8,1.7-1.3,1.6-.5,1.8-1.3.6-.9,3.8-1.3-.5-1.7-2-4-.5-.6-.5.2-1.9.8-.7,2.3.8,1.9-.4,2-1.8-.2-1,2.9-1.3ZM-73.4,898.6l.8.7-.3,1.6v-1.3l-.4,1.5v-.8l-.5.4.8,1.9-.4,1.9,2,2.4.2.9-.7,1.1,1.1,1.6-1.1.4-.4,1.7.4,1.5-1.2.6-.6,1.9-5.2,1.8-.9,1.4h-1.2c0,.1-2.5-.9-2.5-.9l-.6.4-4.7-4-2-3.6.4-4.9,1.5-.4,2.8-2.3,1-3.8-.5-.7,1.1-.2.7.6,1.2-.7,1.5,1.3,3.1-.5,2.5,1.4,1.2-.5-.2-1.3,1-.7ZM-151.6,897h.6c0-.1.7.7.7.7h2s.5,1,.5,1l2.7,1.3.7,1.1v1.7c0,0-2.8,2.7-2.8,2.7l-1.3.5h-3c0,0-2.1-1.7-2.1-1.7v-.8c0,0-1.2-1.1-1.2-1.1l.2-2.6,1-2.2,2-.8ZM-130,889.3h1.5s2.2-1.3,2.2-1.3l3,.4,2.2-1.2h1.7s3.4-3.2,3.4-3.2l.8-1.9,1.2-.9,2-.4.6-1.1,4.2.6,2.7-1.1,1.1.3.5,1-.2,1.3-4.6,2.2-.7,1.5-4.6,3.6v3.5l-2.7,4.9v2.7c0,0-5.1,5.9-5.1,5.9l-2.1-.2-2,1.2h-2.4s-.4-2-.4-2l-1.1-.4v-1.4s-1.8-1.6-1.8-1.6l-2.4-4.1-.2-2.7-2.4-3.2-1.2-.4.3-.9,3.6-1.5,1,.8h2ZM-9,871.1l2.4,2.1.6,5.8-.9,4.2-1,1.1.6,4.2-1.8,3.3v1.7c0,0-.9,1.7-.9,1.7l-1.1,1.1h-1.8s-1.1,1-1.1,1l-8.7,2-4.8,5.8-6.1-1.6-1.4.6.7-2.1.4.5h1.7s3.1-.9,3.1-.9l6.1-4.5.9-5.5,1.7-2,.7-3.4,2.2-2.2,2.5-5.1-.2-1.2,1.3-2.9-.3-1.9,5.2-2ZM-5.5,870.7l-.2,1.2h-.7c0,0-.3-.6-.3-.6l1.1-.6ZM-178.4,866.4l2.2,1.2,2.1-.6,1.3.2,1.1,3.3,1.1,1.4-2,3.2.9,2.5-.4,2.6-3.4,5.6-1.1-1-.5-3.2-1.9-2.7-2.3-6.2-1.1-1.5v-1.3c0,0,1.7-2.1,1.7-2.1l2.4-1.4ZM9,848.6l1.8.9.2,1.2-.4,1.4-1.5,1.3.7,1.9-.8,1.5v1.8s-.8,1.2-.8,1.2l-2.2,1.1-.4.8-2.1.2-1.9,1.4-3.9.6-2.2,3.3-.6-1-3,.2-.4-1.5,2.2-2-.2-2.9.8-2.1,2.6-2.1h2c0,0,2.4-2.1,2.4-2.1l.8.4,1.3-1,2.3.8,1-1.1,1.2-3.7,1.1-.9.2.5ZM7.3,845.5l1.5,1.3-1.3,1.9-1.7.3,1.5-3.4ZM7.4,839.5l.7.6-.8.9h-.9s.3-1.3.3-1.3l.8-.2Z"/>
    <path id="ES-CT" class="cls-1" d="M661.6,160.3l-2.4-.4,1.4-2,.2,1.6.8.8ZM708.8,178.2l.6,1.2,1.6.2-.3.3,1.8,2.1-.6,1.3v2.2s-.4,0-.4,0l1,1.9.9.2v1.1c.1,0-.5.4-.5.4l-.3,2.3-1.1.8-.2,1.1-1.1.3-.8,1.2-1.3-.2-2.4,3.8-2.9,1.2-1.8,2.4-5,1.6-1.1.8-.6,1.4-10.3,4.4-6.3,4.1-4.6,1.9-3.2,4.2-1.2,2.9.6-2.5-.9,1.9h-.7c0,0,0,.5,0,.5l.7-.2-1.1,2-1.3,1-3.9,1.2-3.7.2-2.6,1.4h-2.2s-3.1,1-3.1,1l-.6.7.3-.6-9.5,2.1-4.8,2.6-4.1.3-2.2,1.4h-.4c0,.1.3-.4.3-.4l-1.5.6-1.6,2.5-1.9-1.1-3.2.6-2.7,1.3-5.3,5.2-2.9,4.5-1.7,1.1-.4,1.3-1.7,1.1,1.3,2h2.2c0,0-1.7-1.2-1.7-1.2h1.2c0,0,2.6,3.2,2.6,3.2l2.8.7-2.1,2.3-3.8,2-3.5,4.4-2.1.3-1.1-1.3.7.4v-.9c0,0,1.6,1.1,1.6,1.1l.5-.4-.8-.5,2.7-.4,1.3-2.4-2.2-.3-1.3.8-2.6.2v.6c.1,0-.4-.3-.4-.3l-2.3,2.7-1,2.5h0l-3.2-1.4.2-1.7-1.7-1.3-2.6-.3-2.5-1.1-.6-.9.9-2.5h-.3c0-.1-.1-.3-.1-.3h0l-.4-.4h-1c0,.1-.2.1-.2.1h0l-.5-1.8-1.2.5-1.2-.5h0l-.4-.9.6.5v-.7c0,0,2.3-.7,2.3-.7l.2-1.1,1.8-1.9-1.6-3.5.6-1.7h0v-.3h0l1.7-2.8-.5-.3h0v-.4h0l-.9-1.9.8-.3-1.4-1.1-.6.3v-.7s-.6.3-.6.3l.5-.7-.5-1.5-.8-.2v-2.2l.5-.6,1.4.4.3-1.1,1.7-.4,1.1-3.7h1.8c0,0,0-.8,0-.8h.6c0,0,.3-2.3.3-2.3l-.9-1.5.2-.8-.9-.7,1.1-1.4-2.2-2.3,1.5-3.1-.5-1.9,2.3-.3,2.1-2.9-.8-3.3-1.1.5-2.2-.4.3-1.8-1.3-1.6v-1.1c0,0,2.5-3.4,2.5-3.4l.5.5v-1.4c.1,0,3-.4,3-.4l.7-2,1.3-1.2h1.3s.5-1.7.5-1.7h1s0-.6,0-.6l1.1-.5-.6-.8v-1.8c.1,0,.6-.1.6-.1l-1.9-1,1-1.6.8.3.5-1.5.8-.3.2.6.5-1v-2.3l.6-.4,1.3-4-.4-1.9.9-.7-.7-.5.2-.9,2.6-7.6-1-.9,1.3-.9-2-.8,1-1.1-2.3-5.7.4-.5.5.4,1.1-1-.8-.4v-.8c0,0,.6-.7.6-.7l.7.3-.4-.6,1.1-3.8-2.6-.7-.4-2.1-.9-1.3h0l-.3-.2h0l-.2-.4h.6l.3-1-.8-2.3-.9-.3,1-1.2-.9-.4,1.1-1.3-.5-1.9,2.1-1.3,2.9,1.4,1.1-.2,2.2.7,3,2.1,1.4-.9,1,1.1,2.6.3,1.4-.4,2.1,1.9.2,1.5,1.5,1.1,2.6-1.1,1,.7,4.3-.2-.2.9,1.5.8v1.2s1.1.8,1.1.8l.2,1.7,1,1.3-.7,1.2.7.9-1.3,1.7,1.5-.2.8,1.7-2,1.6.9.5.3,2.2,4.3.3.5-1.4.7.5.8-1h2.5s.6-2.1.6-2.1l1.4.8.9-.7,1.6.8,1.6-.2,1.5.5,1.8,1.9,2.3-.2.2,1.3.8.4.3,2.3,2.2,1.9,2.9-.8.3-.9,1-.4.4-1.5,1.3-.8,1.9.4,2.3-1.3,1.6.9,1-.2,1.5,1.2,3.4.7v1c0,0,2.1,2,2.1,2l2.5.4.5-1.1,1-.3,4,1v-1.1c.1,0-.8-1.6-.8-1.6h.8s.1-.9.1-.9l1.8-.9,1.6-.3,1,.8,2.1-1.6.5-1.1.8.3.5-.7,1.9.6,1.2-1.5.8.9,3.1-.4,2,2.7,1.4-.7,2.3.2-.7.4.4.6-.7,1.4.6.2-.5.5.3,1.1,1,.5.3.9,1.4-.9,1,1.2.7-.6.8.8,1.5.3-1.5.9.5,1.1h-.9c0-.1.4,1.1.4,1.1l-.4.7h-1.1s.4.9.4.9l-1.5-.8-.4,1.1-1.6-.8-.4-1.1-1.4.9-1,2.4.4,4Z"/>
    <path id="ES-EX" class="cls-1" d="M287.4,282.6l1.3,1.2,1.2.3.2-.4h.8s1.2.5,1.2.5l1.6-1.6,1.1,1.5,1.1-1.2,3.3-.3,1.3-1.1-.2-1.6.7-1.2,3.4-1.7h1c0,0,1-1.5,1-1.5l2.1-.2.3-1.1h0l.6-.6h0l4.9-2.9,3.1,1.6.6,1.2,1.2-.3-.5,1.1,1.6.7h.2c0,0,.8.7.8.7l-.8.3.5.2-.6.4.2.7-.9.4,3.7.9v1.1h0l.2.3h0l1.1.8h0l.4.3h0l2.4.8,1.1-2.2,3.6-2.2,1.1,2.1-.8,1.4.4.6,1.1.3,1.1-.7h2c0,.1,1.4,1.3,1.4,1.3l.3,1.1,1.2.2.3,1.6,1.2.3h0l.6.3h0l.5.3h.3c0,.1,2.2,0,2.2,0l1.1-.5,1.8-2.4,3.6-.6-1.1,2.5v3c0,0,1.4,2.6,1.4,2.6h0l-1.4.9.2,6.3-1.8,5.8,3.4-.8,1.8,1.6-1.1,1.9.2,3.7,2.3.4,2-2.5,1.7-.2.3,2.2-.6.4,1.5,2.2-.9,3.4h0v.5h0l-1.9,2.4,1.3,1.5h0l.7.6h0l3,3.7,1.2.3,4.5,5.1,3.4,1.3,1.5-1h0c0-.1,2.4-.6,2.4-.6l1.2-1.2h.3c0-.1,2-1.7,2-1.7l.9,1.4-1.5,3.2v2c0,0-2.3.5-2.3.5l1.2,3.7.8.4.2,1.9,2.5,2.4-3.8-1.5-2.9-.3-1.1,1.9h-.3l-1.4,3.3.8,1.5h0l.4.2h0l.7.5-.3.9h-.1c0,0-1.8.7-1.8.7l-3.5-1.4,1.7,5.3.7-.2,3.1,1.4-.7,2.9-2.8-.2-.8,1.2-2.3,6.6-2.4.7h0l-2.2,1.2-3.6-.6.7,2.1h0c0,.1-.7.2-.7.2v.8s-.5-.4-.5-.4l-.2.5-.3-.6-.2,1-.4-.4-1.4,1.7-1.5.8-.8,1v.8c.1,0-2.5-.3-2.5-.3l-.9,1.6.3.8-.7-.4-.6,1h0l.2.4h0l-2.9,1.9-.2,1.1h-1.5l-1.1.7-1.6,2.6v.9s1.1,1.1,1.1,1.1l-.7,2,2,3.5v3.1h-.2c0,0-.5,1.1-.5,1.1l.2,1.2-1.6.7-.3,1-2.2-.4-3,3-1.2-.4-.3-2.2,1.9-1.2-.4-.8.5-.2.4.6v-1.1c0,0-1.8-.8-1.8-.8l-1.2.9-1.1-.3-.8.6-2.2.2-1.1.9v1.2c-.1,0-2,1.4-2,1.4v.9c-.1,0,.8,1.1.8,1.1l-1.1,1.1-.8,2.8h-4.1c0-.1-2.8.6-2.8.6l-2.8,2.3-.9-1.1-1.6.2-.6-.6-2.2-.4-1-1h-.2c0,0-1.1-1.1-1.1-1.1l-.4-1.8-1.9-.5-1.6.2.4.5-1.1.9.2.9-.5.3-3-1.2h-.5l-1,.3-.2-2.1h0l-.7-.8h0l-1.1-1.1-.9.4-3-.5-1.1.5-1-.4v-.7s-1.7,0-1.7,0l.7-3.5h-2.1c0,0-3.6-1.6-3.6-1.6h0l-.2-.7h-.9c0,0-.7.8-.7.8l-.4-.4-1.3.4-.7,1.1-1.6-.2-.7.8-2.3-3.1-.7-2.5-.7-.2-4.3-6-.3-1.5-1.5-1.1-.8.2,1.6-2-1.1-.2.8-3.5,2.5-4.3-1.2-.8.5-4.6,2.1-1.2,3.4-3.6,1.4-.2,1.3-2,1.2-.6.3-.8-.8-1.5,4-6.3-.4-1.6-1.1-2.1-1.9-1.2-3.1.9-1.3-.5-.4-.7.5-2.6-3.4-1.2-1.1-1.1-.3-2.1.7-1.5-3.1-3.1-.7-2.4,1-1.9.2-2.5-2.2-1.5-.7.3-.7-.5-.4-2.2-1.6-.2-1.6-2.3-1.3-.6-1.2-3.6-.6-.4h3.5c0,.1,5.1,1.3,5.1,1.3l3.5-1.4,4.4.7,1-.6,2.5.3,2.2-.7,1.7-5.5-.4-2.2,1.4-.6,1.8-2.2v-3.3c.1,0,.8-.6.8-.6l.2-2.4.9-1.8-3.2-5.3-2.5-.5-1.3-3.8.8-2.2,1.9-.6.5-1.1,1.8.2,1.9-.8Z"/>
    <path id="ES-GA" class="cls-1" d="M201.3,174.2l.8.9-1-.3.2-.7ZM200.9,171.7l.9,1.3-.7.9.4-.7-.6-1.4ZM200.8,163.6l-1,2.3v-1.5s.5-1,.5-1l.5.2ZM196.9,158.5l.6.8-.4.4-.2-1.2ZM202.7,153.5l.2.5.6-.2.2,1.1h-.7c0,.1.2,1.2.2,1.2h-.4c0,0-.3-.4-.3-.4h.4c0,.1-.4-.4-.4-.4l.4-1-1-.6.7-.3ZM242.7,86.1l1-1.7.5.4,1-.6.4.6-.5,1.7.9,1.5-1-.7v1.9c0,0-.6.2-.6.2l.8.7h-1.4c0,0,1.1.7,1.1.7l1.2-.8-.7-1.4,1.4-.3.4.8.7-.3-1-.9.8-.4v-.5c0,0,3.7-1.4,3.7-1.4l1.5-1.5v-.9c0,0,1,1,1,1l-1.6,2.2.8.3.4-1,1.5-.4.4,1.8.9.2-.3,2.2.5,1.3.3-1.5.8-.5-.3-1.1h1.1c0,0,0-1.1,0-1.1l1.4-.4.4.8h1.9s-.4.9-.4.9l5.1,2.1.8,2.3,1.8,1.9-.6.5.7-.2,1.8,1.1-.4.9h-.6c0,0,.8.3.8.3l-.4.3,1-1.1,3.1.9,2.1-.5,2.9.3.3,1.1-.7,1v2.7h-.1l-1.4,1-.6,1.6-2.9-.2v1.4h0v.2h0l-.2,1.1.8.5.9-.5.4.7v2.4c0,0,1.2,1.6,1.2,1.6h1.7c0,0-.4,2-.4,2l.4,1.4,1.7,1.7.5-.5.4.9,1.3.2.2.9-.7,1.3,1,1.8h.8c0,.1,2.3-1.3,2.3-1.3v-.5c0,0,1.1-.3,1.1-.3l1.4,1.6-.3,1.2-1.7,1.8h-1l-.8,1-1-.7-1.1,1.5v1.5s-.6-.4-.6-.4l-.7,1.2,1.1,1.4h.6s0-2.3,0-2.3l2,2.7h1.6s1.5,1.8,1.5,1.8l-.2,1.8.7.7h0l-.7.5.3,1.4-1.6.4,1.2,2.9-1.1,1.2v.8c0,0-2.8,2.7-2.8,2.7l-1-.8-.5,1.7h-1.6c0,.1-1.4,1.7-1.4,1.7l1.6,3-1.8.9v1.9c0,0,.5.7.5.7l-1.3,1.8.3,1.4-.7,1.2h.9s.8.1.8.1h0l2.7.7.6-1.4,1.3-.2,3.2,1.9,1.3-.4.7,1.5-.6.8.3,1.4-1,1.2h0c0,.1.9,1.1.9,1.1l1.7.3.6.9,1.4.4-.2,3.5-2.5,3.7h0l.2.5h0v.9c0,0-2-1.1-2-1.1l-1.8.7-.6,1.4-1.8,1-.4,2.4-1.5.4-.7,2.1-1.2.6,1,1.3h1.4c0-.1.6,1.4.6,1.4l-1.1,1.8.2,1.2h0l-1.1,1.3h-2.6c0,0-.8-1.3-.8-1.3l-1.3-.7-2.5.3-.4,2.2.5,1.3-.9,2.2-4.9,2.1h-1.8c0,.1-.4-.5-.4-.5l-2.4,2.4-1.1-3-1.8-.5-1.5,1.7-3.6.6.5-2.1.7-.7-3.1-.2-1.8-1.4-1.6.8-.9-.3-1.3.9-1.9.2-1.8,1.6-.5-.6.2-3.4-.7-.3-.8,2.7-2.4.3-1.5,2.4-1.8.8-3,.4-1.6-.5-.2-3.2-1.3.2-.6-2.1,2.3-4,1.4-1.3,1.7-.6.2-1.8-1.2-1.8-2.9.7-.6-4.9-1.1,1.2-1-.3-.5,1-2.6,1.1-.6,1.1-1.3-.3-.8.8-1.8.2-.8-.6h-3.3c0,.1-.2,1.1-.2,1.1l-.8.5-3.6.3-1,1.1-.4,1.6-3.4,2.1-.4,1.7-2.7,1.3-2.1,2.6-.4-.8-.3-5.5.5-1.6-1-6.3h.9s1.2-1,1.2-1l.7.9.4-.2.2-1.3-1.3-.9h1.2s.3-1.8.3-1.8l1.6-1,.7-1.5h.9s-.6,0-.6,0l.5.3,3.4-3.3h2.1c0-.1-.6-1.4-.6-1.4l.7-1.9-.9-.6-.2,1.5-1,.7v1.3c0,0-2.2.9-2.2.9l-.2-.7h-.6c0,.1-.3,1-.3,1l-1.2.8-.8-.3-.4.9-.9-.7-.7.4-1.1-.6-.3.8-.4-.2.7-3.3,1.1,1.8h.6s-.1-2-.1-2l-.8-1.4h1.5l.7.6,1.3-.7,1.2-2.5,3.1-2.4-1.3.4-.4-1.1-3.5,3-1.7-.7-1,.9-1.8-1.8.4-1.2-.6-1.2-1.1-.3-.6.7-.7-.7.3-.9h2c0,0,0-.8,0-.8l.9-.4.7,1.6-.7.6v.8c.1,0,1.3-.8,1.3-.8l1,.8-.6-1.9,1-.7-.5-.7.4-1.3-.7.6-.4-1.8.9-.5h-.6c0-.1.2-.9.2-.9l1.5-.2,1.2-1.2-.5-.8,1-1.9-.6-.3-1.5.9-.7-.5.4-1.1-1.2-1.2v1.5s-.5-.2-.5-.2l-.4,1.1,1,.8-.9.4v1.1s-1.2-.2-1.2-.2l.6-1.3-1.1-.4-1.6,1.8.7,1.2h-1.3c0,.1-.4,1-.4,1l-1.1.2v1.7s-2.3,1-2.3,1l.4-2.3-.9-1.1-.8.6-.7-.6,2.1-3.3.8-4.3h.6l1-1.8,1.3-.3,1.4-2.3.6-.3,1,1.1-.6-1.1.2-1.3,1.4-.8h-.7s-.4.7-.4.7l-.7-1.1-.2,1.9-.7.3-.3-.5-1.3,1.6-.8-.8v.9s-1.5-.2-1.5-.2l-.2-1.2-.9.9h-.9c0,0,.6,1,.6,1l-1.7,1.8-.4-.9h-.8s-.7-2.1-.7-2.1l-.7-.4,1.8-1.4-.2-1.1h-.9c0-.1-.8-1.8-.8-1.8l.9-2-1.4-.2-1.4-2.6.5,2.4h-1.1c0,0-.5-1.5-.5-1.5h-.6s0,.9,0,.9l-1.3.6-.2,2.1-.5-.6.2-1.1-1-.7.2-1,1.2-1.9v-1.7s.6.3.6.3l.3-.5-1.2-.3-.9-2.6,1,.6.7-.4v-2.3s1.6.2,1.6.2v-1.6c0,0,1.6,1.4,1.6,1.4l.9-1.9,1.6-.6-1.7.4v-1.4s-.8,1.6-.8,1.6l-.9-.3-.4-1.9.6.4.8-.7.2-1.5.8.5.3-.8.6.3.2-.4,2.1,1,1.6-.7,1.2-2.3.7.9.7-.7h1.5c0,0,0,.8,0,.8l.8-.4.5-1.2h.7-.7c0-.1-1.1,1.2-1.1,1.2l.3-.7-.6-1.7h-1c0,0-.6-.7-.6-.7l1.4-1.1,1.2.7v-.7c.1,0,.9,0,.9,0v-1.7c-.1,0,1.4.5,1.4.5l.2-.6,1.1.2.2-1.5,2.3,2.4,3.3.8,4.2-1.8,2.2.7.9-.3,1-.7.6-1.8.8.4.9-.4.9-1.3,1.2.8.3-1.2.7,1.3-.8.3.8.5v1.3c.1,0,0-.6,0-.6l1.5-.3.5-1.8-.7-.2.2-.9,1.8-.5.5,1.2h1.3c0,.1.7,1.2.7,1.2l-.2.8,1.8,1.4v-.8c-.1,0,.4.3.4.3l-.8-1,.4-.6-.5-1.7.6-1h1.4c0,0,0-.6,0-.6l-1-.3-.9.5-.6-.6-1.2.6-.9-1-1.6-.5h.6c0-.1-.3-.6-.3-.6l1.7-.5.2.5.5-.7,1.1.6,1.1-.2.9-.7v-.6c-.1,0,.4.3.4.3l.4-1.1-2.9,1.5v-.6s-.7.2-.7.2v-.9c0,0-.8,1.5-.8,1.5l-1.2.4-.9-.6-.9.7-.4-.4,1.2-1.9-.4-1.3,1.3-.9-1.2-1.5.5-.5.8.8h1.4c0,0,2.9-2.6,2.9-2.6l.2-1.2,1.4.2v1.1s.6-2.2.6-2.2l1.3-.3.8-1.5.3,1.7.7-.4.8.6-.9-.9h.8v-.7s-.9,0-.9,0l.6-2.6,1.2-.5,1.4.5,2-1.4v-.7c0,0,1,.2,1,.2Z"/>
    <path id="ES-RI" class="cls-1" d="M498.7,187.8l-4.5,2.7h-.8s-1.1-1.1-1.1-1.1h0l-.2-.2h0l-4.1-1-.4-1.9.6-.5-2.2-3.5,1.3-.8v-1.1s-4.5-.2-4.5-.2l-1.4.8-.6-2.4-1.6-.8-5.1.5-.7,1.2-1.2.5-1.2-.4v2.5c0,0-1.5,1-1.5,1l-1.4,3.2-1.8-.6-2.1.5-1.3-1-1.8.3-.5-1.3,2-2.9v-1.1c.1,0-1.1-1.2-1.1-1.2l-.7.4-.9-.4-.7.9h0v.4h-.1l-.6,3.6-1.9.4-1.3,1.2-1.3-1.3h0v-.4h0l-.9-2.8h-4.1c0,.1-4-6.2-4-6.2l1.1-.9.6-1.8-.7-3.8.5-.7h0l-.2-.2h0l-.3-1.3,2-.5-.9-1.4h-.9s.2-1.8.2-1.8h.9s-.2,1.1-.2,1.1l1.1,1.5-.3-3.1.7-1.2-2.1-2.4.8-.9.2-1.5-.7-.5-1.5.3-.4-.5,1.2-.7,1.2-1.8h0l.6-.2h0l-1-3,2.8.5.6-.7.9.5,1.6-.2,1.4,1.1.6-.5.6.4,1.1-1h0l.6.5v1.2s1-.2,1-.2v1.2c0,0-.9.5-.9.5h0v.6h.1l.8.8.2-.7.5.2,1-.9.6-2.4h1s2.4,1.6,2.4,1.6l-.4,3.1h0l-.6,1.3h0l1.2-.5v.9s.9.4.9.4l.4,1.1,1.8-1.1.4,1.8,1.1-1.2,1.6.6-.3-.7,1.2-1.4-.2,1.7,1.6.2,1.2-.6,1.1.4h0l.9.9,2,.5.3.8h.6c0-.1-.2-.8-.2-.8h0l.4-.2h0l1.2.6v-.6s.5.1.5.1h0l.3.6h0l.3.6,1.5.3v.6c0,0,1.1.4,1.1.4v.4c0,0,1.2-.1,1.2-.1l.7.6.7-.6h1.8c0,0-.3,1.1-.3,1.1l1.6,1.8-.4,1.2.8.2,2.1-1.5.9.3,1.1.6.2,1h1s.4.7.4.7l.5-.3.2,1.5,1.9.7v2.1c0,0,.7.1.7.1v-.5c.1,0,1.4.6,1.4.6l.2,1.1,4.1.9.6,1.2h.9s-.9,1.1-.9,1.1l.8,1.2-.9.6-.7.4-1.7-1-1.1.7-1.7-.8-2.9,3.8-.6,1.5.3,1.6,1.9,1.5.4-.3h0l-.4,2.2ZM450.6,151.7v-.2h0v-.2h.1v-.2h0c0,0,.4-.1.4-.1h0v.3h0l-.2.2h0l-.3.2h0ZM452.8,151.7l.3-.2h0l.5.6-.8-.3h0c0,0,0,0,0,0Z"/>
    <path id="ES-MD" class="cls-1" d="M396.8,260.1l.7,1.3-2.6.2h0v-.9c0,0,1.3-.8,1.3-.8l.6.2ZM427.8,233v.9c0,0,1.2.7,1.2.7l.9,2.3,2.7.7-.6,2.2,1.8,2.3-.8.8-1.1,4.5h-.7s.8,1.4.8,1.4l-1.3.9.2,1.2-1.8,3,2,.2.7,1h0v.2h0l-.2,1.4.7.4-1.4,2.2,1,.6h0v.2h0l.8-.3.7.6.5-1.2.9.8.3,1.8,1,.5,1-.9-.2.6h0v.6h0l-.6.3.7.7-.4.9,2,1.4-.5,1.9h1.1c0,0,.2,0,.2,0h1.4c0-.1,1.3,1.3,1.3,1.3v4c.1,0,1.9.2,1.9.2l1,1.9-.9,2,.5,1-1.7,2.1-.6,3.5,1,.7.9-1.6,1.6-1.2.6.6.9,2.7-.3,2.1.7,1.7-.9-.3-.3,1.2,1.8,2-1.4,1.9-1.5.6-1.7-.2-.3-1.4-.8.5h-.1l-.6,1.2-2.6.2-.4.5-1.2-.3-1.3-1.6-1.9.3v1.1c0,0-.8,1.1-.8,1.1l-1.2-.6-.9.5v-.7c0,0-1,.5-1,.5l-1.5-.4-.6,1.5-2.9.4-1.2,1.2h0l-.6.2h0l.5,1.1-3,1.1-.5-.3-1.5.8-.5,1.1h0l-.3.2h0l-1.8,1.8-2.6-1-.3-.7h0v-.2h0l-.3-.4.8-.7.8-.2.3.6,1-1.4,1,.4,1.1-1v1c0,0,.4-.4.4-.4l-.2-.8,1,.4.2-.4h-.3c0-.1-.2-.6-.2-.6l.9-.4.6-1.7.7.2,2.7-2.2.6-2.9-2.3-1.2-.2-.7-.9.6-1.4-.8-.9.8-1.2-.3-1.5-2.1-1.2.9-1.7-1.6h-1.6l-.7-.7-.8.8-.2-1.3-1.6.2-1.4-1.4v-.7c0,0-2-.9-2-.9l-1.3,1.3-1.8-.2v-1c0,0-2-1.7-2-1.7l-2.4,1.2-1,2.2-1.1.8-.4-.8-.6.4-.5-.7h-.7s-.3-3.8-.3-3.8l-.9-.6-.2,1.6-2.2,1.6v1.2c-.1,0-3.4,1.1-3.4,1.1l-.7.9-2.1-.9h0l.8-.4-.4-1.9,1.7-1.9-.7-2.7h.8c0-.1,1.1,1.5,1.1,1.5l2-.2-.3-1.2.9-.5-.2-2,.9-1.1,4.2-.2-.8-1.4,1.1-1.6-.5-3.8.2-.8,1.3-.8.5-2.1-.5-1.4h.8s.3,1.2.3,1.2l.7.2h.7c0,0,2.9-1.1,2.9-1.1l-.6-2.4.6-1.2h0l2.7-3.3,1.1-2.5,1.8.7,2.1-.3,1.7-7.8h.7c0-.1,1.2-2.3,1.2-2.3l4.7-1.9,1.7-2.9,2.7-1.6,1.9-2.9,1.8-1.3,2.1-.4Z"/>
    <path id="ES-MC" class="cls-1" d="M546,419l-.3,1.8.9,3.2-1.1-3,.5-2ZM545.7,417.4v.9c0,0,.7.7.7.7l-.8-.6-.3-.9h.4ZM478.4,404.1l.4-2.2,2.7-2.2,2.3-5.1,4.2-1.8,1.5-2.1h0l.6-1h0l.8-.6,2.7,1.3,3.1-.9,5.3-3.1-.5-.7,1,.2v-.7s1.1,0,1.1,0l1.1.9.7-.6.8.8-.4.8h0v.2h0l1,1.6h3.3s4.7-3.5,4.7-3.5v-5.8c0,0-.8-2.8-.8-2.8l.4-1.5,1.5-1,.2-3.6,2.7-2.6.8-.3,1,1.4,3.9-3.2h0l.5-.2h0l2.1-.7,2.8.9.2,1.5,3.8,3h0l1.1,4.4-1,2.7.5,1.4-3.3,3.1.6.3-.3,4.5,4.5.5.9,2.4-.9,4.4-2.1,3.4.3,2.4,4.9,9.4,3.1,3.2,2,1h.9c0-.1.6,2.9.6,2.9l-1.5-1.5-.8,2.2-1.7,1.5-.7,1.5,2.6,3.4,2.6,1.4.9-1.2.7,1.1h.6c0,0-1.4,1.6-1.4,1.6l-2.6.6-1.6,1.1-1.1-.5-1.3.4-1.8,1.3-1.8-.4-.2-.4h.9c0-.1-1.2-.4-1.2-.4l-.4-.7.4-.5-.8-.2.2,1.1-.9-.2-.6.7-2.1-.6-1.5.8-.7.9.7.9-2.3-.4-.2-1-1.4-1h-1.8c0-.1-.5.9-.5.9l-3-.3-3.1,2.9-2.5,1.1-1.1,3.4-1.4-.4-1.8,1.4-1.4.2-1.3,1.4h0l-4.6-3.6-3.2-.6v1c0,0-1.5-1.1-1.5-1.1l-6.3-10.2h0l-.3-.3h0l-.5-2.5.7-1.4-.6-2.6.6-3.5.9-1.2-.3-.4h-.3s-.8-.3-.8-.3l-.7.6-1.7-.8-.9.5-1.7-1.5-2,.6-3.4-2.6-1.9-3.5-1.6-1.3Z"/>
    <path id="ES-NC" class="cls-1" d="M507.3,111l1.3.3-.3,1.4.9,1.8h1.3c0,.1.8-1.6.8-1.6l-.3-.5,2.1-.3,2.2,1.3h2.1c0,0,1.3,1.1,1.3,1.1v3.6l-.8.7-.5,2.9-2.5,2.3,1.4,2.4,3.6,1,.4-3.8,1-1.1,2.1-.3-1.6,2.8,2,1.5,2.1-.5,2.9,1.6v.9c.1,0,1.3-.9,1.3-.9l1.4,1.4,2.9.5.7,1,2.2,1.2,1.6-.6.4.5,3.7.2,2.3-1,1,1.3-.3.6.5.9h-2.4c0-.1-1.5,1-1.5,1v2c-.1,0-1.7,1.2-1.7,1.2l-.2,2.7.5.7-.7,1.4h-1.5c0,.1,0,1.1,0,1.1h-.9s-2,2.3-2,2.3l-2.4.2-.6.5v2.5s-4.8,0-4.8,0l-.2,2.1h-.9s.9.7.9.7l-1.8,1.2v1.7h-.3l-.9.4-1.5-.8-1,1.9.5,2.8-2.7,2.9-.8,2.6,1,.4.2.9-2.9,3.5.3,1-1.1,3.1,1.1,2.2-.3,3.1,1.4,1.1.6,1.9h1.3s.4,0,.4,0h0l.2,1.7-1.4,1.4-1.8,3.4v.8c.1,0-1,1.4-1,1.4l-3.9-.2h0l-.5.5h0l-.8.2h0l-1-.2h0l-4.1-2.8-2.6.5-2.2-2.2h-2.9s-.4-.8-.4-.8h0l-.4.3-1.9-1.5-.3-1.6.6-1.5,2.9-3.8,1.7.8,1.1-.7,1.7,1,.7-.4.9-.6-.8-1.2.9-1.1h-.9l-.6-1.2-4.1-.9-.2-1.1-1.3-.6v.5c-.1,0-.9-.1-.9-.1v-2c0,0-1.8-.7-1.8-.7l-.2-1.5-.5.3-.4-.7h-.9s-.2-1-.2-1l-1.1-.6-.9-.3-2.1,1.5-.8-.2.4-1.2-1.6-1.8.3-1.2h-1.8c0,0-.7.7-.7.7l-.7-.6h-1.2c0,.1,0-.3,0-.3l-1.1-.4v-.6c0,0-1.4-.3-1.4-.3l-.3-.6h0l-.3-.6h-.4c0-.1,0,.5,0,.5l-1.2-.6h0l-.4.2h0l.2.7h-.6c0,.1-.3-.6-.3-.6l-2-.5-.9-.9h0v-1.2s1.3-.4,1.3-.4l-.2-4.6-1.1-.4-1.2,2.2-.4-1.1h-1.2s-.4-1.6-.4-1.6l.7.2,1.3-1.9,1.5-.9,1.3.3.5.8-.4.5,3.8-1v-.9c.1,0,0-.6,0-.6l-.7.3-.5-2.9.3-.9,2.3-.5-.8-2.2,2-3.1-.4-2.6h0l-.3-.5h.5s0-1.6,0-1.6l1.1-1.5,1.2.8,2.2-.3,1-.5.5-1.5,2.2-.4.5-1-.6-1.9.9-.9h0v-.5h.1l.2-.9,2.7-1.4,1.9-2.2-.7-1,.3-4.1,1.3,1,.2-1.3.6,1.1.5-.7h.4c0,0,2-1.3,2-1.3v-1.8h0l.5-.5h0c0-.1.6,0,.6,0h0l1.4-.8h0l1.6-.8h1.7Z"/>
    <path id="ES-IB" class="cls-1" d="M637.8,365.3l.7,1.2.7-.2.2,1.4,1.6,1.3.6.3,1.6-1,.7,1.2-.5.9h-2.1c0,0-1.6-1.4-1.6-1.4l-1.7-.4-2.7,2.4-.2-4.2.7-.9.4.4.9-.5.3-1.9.2,1.3ZM637.1,362.7l.4,1.2-.7-.5.2-.7ZM641.9,345.4l.9,1.3,2,.2-.3.4.5.2-.8.2v.7c-.1,0,1.3,1.9,1.3,1.9l-1.5.7-.2,1.4-2,.3v1.5c-.1,0-.6.2-.6.2l.4.4h-.8c0,0-1.4,1.7-1.4,1.7l-.8-.2v.8s-.7-.7-.7-.7v.7c0,0-.8,0-.8,0l-.7,1.5v2.4c.1,0-.8-.6-.8-.6l-.6.6-1.1-2.1-1,.8v-.6c0,0-.9.2-.9.2v-.7l-1.1-.2-1,1.3-1-.8-.5-1.7,1-2-.9-1,.6-.9.7.4,2.6-.3-.9-1.1.6-.9-.2-1.2,2-1.2.7-1.1.7.6.5-.9h1.2c0,0,.3-.7.3-.7l.7.6,2-1.6.4.6.4-.8,1.2-.2ZM701.7,342.9l.9.3-.8.6v1.1s-1.5,0-1.5,0l-.2-1.9.6,1v-.6c0,0,.8.3.8.3l.2-.8ZM675.4,319.9l-1.2.8,1.5-1.4-.3.6ZM712.6,299.5l-.4.9-2,1.1-1-.2-.9,1.5-.8-.7-.5.6v1.3c.1,0,1,1,1,1l4.2-1.7-.6.5.3,1.1-.8,1.1-2.3.3v1.7s.8,1.4.8,1.4l1.2,1.1,3.6,1.5,3.2-1.7.8-1.6,3.6,2.4h1.1c0,0-.3,1.3-.3,1.3l1.1.4-1,.5v2.7s-.6,0-.6,0l-.2,1.2h-1.2c0-.1-.6.7-.6.7l-.3,1.7.8.6-1.1.2-.4,1.3-1.5.7.3.2-2.2,2.6-.5,3.9-.5-.5.3.5-1.3,2.5h-.5l.3.3-1.9.6-.7,1.3-1-.2-3.1,3.3-.9.2-1.6-2.4-1.2-.3v-1.2c.1,0-1.2-1.3-1.2-1.3h-1.2c0,0-.7.6-.7.6l-1.3-.7h-2c0-.1-.3.5-.3.5l-.9-.6-.8.2-2-2.4.2-1.9-1.1-1.9,1.1-1.9-3.3-2.8h-1.5c0,0,.4-.3.4-.3h-.4c0,0-.4.9-.4.9l.7-.2-.3.5-1.1-.4-.7,1.1-2.2.4.3.7-.6.3-.4,2.6-1.4-.8-.6.4v-1.4c.1,0-.8-.8-.8-.8l1-.7-1.2-1-1.4.8v-.8c.1,0-.6,0-.6,0l-.8.9v-.7s-1.1,0-1.1,0l1.1-.8h-.7c0,.1-1.1-1-1.1-1l.4-2.2,4.5-2.6,2.8-2.7h1.1c0,0,1.3-.8,1.3-.8l1.4-2.2,1.8-.9.2-1.1.5-.4.5.5.3-1.1,3.2-1.6v-.9c.1,0,3-.3,3-.3l.4-.7,3.4-1.6.6-.9,1.4.6,2.5-1.6-.2.4,1-.2v.7s1.3-.9,1.3-.9l1.1.2,1.9-1.5h.6c0,0-.3.5-.3.5l1.6-.5ZM752.9,305.6l-5.6-3.7-3.2-1.2-2.5.9h-3.2s.4-4.3.4-4.3l-1.5.2-.3-1.2,1.3-1.7,1.9-.4h1.3c0,0,1,.7,1,.7l.5-.9,1.9.7,2.2-.8.9.7,1.5-.9-.3-1.1.7.2-.3,1.4.5.8,1.3-1-.3,2,.6-.5-.2-1.8,1.5.3-.5,1.4.9.7.6-.6.4,2.1v-1.1c0,0,.6.9.6.9h2.1l-.6.2.5.6-.5,1,.6.3-.2.7.6-.3.2,2.1.9.8v1c0,0,.8.2.8.2l-.7.3-.6-1.1-1.6-.3,1.6.8.5.9-.2,1.8-1.3,1.3-2.7-.9-1.7-1.4Z"/>
    <path id="ES-PV" class="cls-1" d="M459.6,103.2l1.4-.6.5,1.6,2,1.3,1.9-.6,1.2,1.4.7-.2.7.7.9-.5.5,1,1.7-.2,2,2.4,4.5,2.1,3,.2,2.3-.9.9.4v-.4c.1,0,.7,1.1.7,1.1l1.4.4,5.3-2,1.7.3v-.6c0,0,1.3-.7,1.3-.7h1.9c0,0,2.9-2.4,2.9-2.4l2.4-.9.4,1.9-1.1.7,2.1.4.9.8.2,1.8h0l-1.4.8h-.6c0,0,0,0,0,0h0l-.5.5h0v1.8c0,0-2.1,1.2-2.1,1.2h-.4c0,0-.5.7-.5.7l-.6-1.1-.2,1.3-1.3-.9-.3,4.1.7,1-1.9,2.2-2.7,1.4-.2.9h0v.5h-.1l-.9.9.6,1.9-.4,1-2.2.4-.5,1.5-1,.5-2.2.3-1.2-.8-1.2,1.5v1.7c0,0-.6,0-.6,0h0l.3.5h0l.4,2.6-2,3.1.8,2.2-2.3.5-.3.9.5,2.9.7-.3.2.6v.9c-.1,0-3.9,1-3.9,1l.4-.5-.5-.8-1.3-.3-1.5.9-1.3,1.9-.7-.2.4,1.7h1.2s.4,1.1.4,1.1l1.2-2.2,1.1.4.2,4.6-1.3.4v1.2h0l-1.1-.4-1.2.6-1.6-.2.2-1.7-1.2,1.4.3.7-1.6-.6-1.1,1.2-.4-1.8-1.8,1.1-.4-1.1-.9-.4v-.9s-1.1.5-1.1.5h0l.6-1.3h0l.4-3.1-2.4-1.5h-1s-.6,2.4-.6,2.4l-1,.9-.5-.2-.2.7-.8-.8h0v-.6h-.1l.9-.5v-1.2c0,0-.9.2-.9.2v-1.2s-.7-.5-.7-.5h0l-1.3-.6-.4-1.1h.1c0-.1-.2-1.5-.2-1.5l-1.2-.8-2.1.2-1.5-1.9h0v-.2h-1.1c0,0-.3-1.4-.3-1.4l-4.1.4,1-1.8-1.4-.9,2.1-3.9-.4-1.2-1.6,2-1.4-.7-1.3,1.7.7.6h-.4c0,0-3-3.1-3-3.1l2.6-3.9,3.3.9v.9c0,0,2.3,1.1,2.3,1.1l3.1-.5,1.7-1.7-2.6-1.8.2-.6-1-1.2-3.5-.2-1.3-.9,1.5-.4v-2.2s-.7-.4-.7-.4l1-1.3-.3-.7-.4.3-1.2-.8,1.6-2.8-1-.7-2.3.3-1.3-1.5-6.9,3.7h0l-.7-4.3h0l-.3-.4h0l-.3-1.1,2.2-.6.7-1.4,1.8-.4.3-1.3.4.5,1.2-.4.7.6,2.3-1.1.7,1.4.8-.9,1.4-.2.2-3h1.1c0,0,.5.6.5.6l.3-1.1h.5l2.1,1.4.6-.4-.5.4,1,.8.3-1.3-1-1.5,1.4-.5,1.4-1.7h1s0-1.3,0-1.3l5.8.3,1-.8ZM438.5,117.5l-.9-3.1,1.7-.8.7.4-.8,1.6v1.6h0l-.7.3ZM457.4,140.8h.1s.2.3.2.3h0l.2.2h0l3.9-.4,3.7,1.6,1.7-.3.6,1.1,1.3-.7-.7,2.2-.6.7-.5-.2-.4,1.1,1.3,1.6,2.3-.9.2,2.2-1.3.4-.3-.6h-3.4c0,.1-1-1.3-1-1.3h-1.9c0,0-.6.6-.6.6l-2.1-.2-.7-1.8-1.7-.6-1.9-1.8,1.3-2.4h0v-.8Z"/>
    <path id="ES-VC" class="cls-1" d="M515.9,289.5l2,.3h0l.5.3h0l.7-.3,1,.5h0l.8-.7h0l.7-.3v-2.8s.8-.7.8-.7v.5h0l.3.7h0l.7,1.6,1.3.8v1.6s4.1.2,4.1.2l3,2.4.3,1.1-.5.7-3.4,1.4h0l-3.5.9-1.1-.4h0v-.2h0l-4.1-.5-1.9-4.2.4-.4-1.8-1.3v-1.1ZM528.9,299l.7.5.3-.6,1,.2.9-.6h3.5c0-.1,2.3,1.2,2.3,1.2l.5-.4.7,1.4-.4,1.2.5,1.5-.5,1,1.8,1.3,3.1-1.9-1.8-2.3v-2.9c0,0,2.4-.9,2.4-.9l1.1-2.9h3c0,.1,2.1-1.5,2.1-1.5l.7.2-.6-1.8.8-1.3,1.3-.6,1.5-6.3,2.1,1.3,2.8-.9,1.8-1.1-.7-1.7.5-.6h1s1.1-1.9,1.1-1.9l2.4-1.4-.2-1.2-2.5-3,.5-.8,2.6-1-.2-1.3-1-.9.3-5.3-1.3.4-1.9-.6-.4-2.9,2.1-.8.9,1.1,3-1.7.2-2.7,1.4-2.4h2.2c0,0,0,.9,0,.9l1.5,1.3,1.9.9h1.7c0-.1.8-.2.8-.2h0l.8.3h0v.2h0l.5,1.6h0l.5.2h0l2.9-2,1.6.4,1-.8h0l1.2.5,1.2-.5.5,1.8h1.2c0-.1.4.3.4.3h.1c0,.1.3.3.3.3h0l-.9,2.5.6.9,2.5,1.1,2.6.3,1.7,1.3-.2,1.7,3.2,1.4h0l-1.6,3.5v-.4c0,0-2.5,3.7-2.5,3.7l-.4,2.4-3.5,4.5-1.6,1.3-.9,2.4-3.1,2-2,5.1-4.1,2.7-2.3,6.4-2.5,3h-.8c0,0-4.1,6.9-4.1,6.9l-1.3,4.4-2.2,2.4-2.4,5.3v3.3c0,0-.5-.4-.5-.4l.5.9-.7.3,1.3,5.7,3.8,7.9-1,.7v1.7c0,0,3.3,8,3.3,8l5.8,6.4,6.1,1.4-.7.2.3.5.2-.4v.6l3.2,1.6-.6.6.3,1.1.8.7.6-.2.4,1.5-2.2.9-1.4,2.1-.9-.3-1.3.7-1,1.5.4.8-1.4-.6-.8.9-1.4-.3-1.1.7-1.5,2.1.5.9-2,2.1-2.3-.6-.9,1.1-4.8,1.5-3.7,2.4-1.2,2.1v2.8s-1.8-.5-1.8-.5l-1.8,1.9.4-.9-.9.4-.7,2.8.4,4.2-.6.7h-3c0,0-.9,1-.9,1l-1.2,3.8-.2,5.3-.9,1.4-1.4.5-.9,3-1.3.7-.5,2.7h-.9c0,.1-2-.9-2-.9l-3.1-3.2-4.9-9.4-.3-2.4,2.1-3.4.9-4.4-.9-2.4-4.5-.5.3-4.5-.6-.3,3.3-3.1-.5-1.4,1-2.7-1.1-4.4h2.7s2-2.2,2-2.2l-1.9-4.1,1.4-.7.2-2.1-.5-1.7.5-2-1-.9-.5-1.8-1.7-.3-1.4.8-4.7.3-3.5-5.2-1.6-1.2.3-3.3,3.1-5.6.8-5.2-1.9-1.1-.5.5-1.4-.5h-.2c0-.1-.9-.2-.9-.2h-.2l-1.5-.5h-.3c0,0-.4.4-.4.4l-1.3-1.2h-.7c0,0,0-.6,0-.6h-1c0,0,.4-.6.4-.6l-1.1-.2v1c0,0-.2-.5-.2-.5h0v-.2h0l-1,.8h.2c0,0,0-.8,0-.8l-.8-.3h.6s-.3-1-.3-1h-.1c0,0-.6.4-.6.4l.4-.5h-.9l.3-1h-.9l.3-.4h-1c0-.1-.4-1.4-.4-1.4l.6-.2.4-1.1-.4-1,.5-.2-.2-2.5h-.7c0-.1,2.4-1.6,2.4-1.6l2.5-4.9,1.4-1.2,1.2.4h0l1.1.5h0l1.5-.4.7-1.1-.5-2.2,2.5-3.8.7-5.2h0v-.7h.1l-.6-1.1.3-.9,2.8-1.2Z"/>
  </g>
</svg>